<?xml version="1.0" encoding="utf-8"?>
<!-- Generator: Adobe Illustrator 27.2.0, SVG Export Plug-In . SVG Version: 6.00 Build 0)  -->
<svg version="1.1" id="Layer_1" xmlns="http://www.w3.org/2000/svg" xmlns:xlink="http://www.w3.org/1999/xlink" x="0px" y="0px"
	 viewBox="0 0 252.5 107.1" style="enable-background:new 0 0 252.5 107.1;" xml:space="preserve">
<style type="text/css">
	.st0{fill:#FFFFFF;}
</style>
<g>
	<path class="st0" d="M112.9,37.1c0.8-4.9-1.1-12.6-3.4-16.9C91.3-15.6,15.1,1.8,5.1,29.2c-2.9,7.1-0.4,17.5,6.6,20.2
		c-2.5-2.9-2.4-6.6-1.7-9.5C16,13.3,69.3,3,97.1,15.1c12.5,5.5,15.2,13.1,7.8,22.9c-10.8,14.4-44.1,28-62,26.7
		c-2.4-0.1-4.5-1.1-6.3-2.1c13.6-13.5,27-24.4,28.9-24.1c2.6-2.9-4.9-13-8.5-10.5C45.5,36,5.5,73,0.1,92c-0.9,3.5,3.7,15.1,7,15.1
		C4.6,98.5,19.4,80,34.7,64.5c3,6,7.2,10.6,11.4,10.9C66.4,75.4,109.8,64.2,112.9,37.1z"/>
	<path class="st0" d="M219.1,48.1c1.3,0.6,7.6-6.5,8.4-7.7c1.2-2-2.2-9.7-5.6-8.1c-3.7,3.7-5.7,11-5.5,12.3
		C216.9,47.3,216.9,47,219.1,48.1z"/>
	<path class="st0" d="M250.8,53.5c-4.9,4-15.4,10.7-25,16.9c-1.1-2.1-1.6-4.6-0.6-6.6c1.2-2.5,9.5-8,12.7-8.8c0.9-0.2,1,0,1.1,0.6
		c-0.8,1.9-4.8,4.5-6.4,5.1c-0.6,0.6-0.3,1.5,0.4,1.5c2,0.1,9.2-4.9,7.9-8.6c-0.7-2.6-5.1-5.7-7.3-5.9c-3.5-0.4-14.1,5-16.1,10.9
		c-0.6,1.8-0.6,3.5-0.2,4.9c-11.8,8.5-25.4,17.6-24.9,15.3c5-7.6,18.6-21.1,22.3-22.1c2.9-2.1-3.3-9.3-6.2-7.6
		c-2,1.2-6.2,4.4-11.5,9.7c-5.9,3.3-10.2,5.7-11.2,5.4c-0.1-1.6,6-5.7,9.3-7.4c1.2-2.7-3-7.8-5.1-7.7c-4.2,0.3-20.8,9.3-20.6,9.1
		c3-2.2,3.9-2.8,4.5-2.9c0.2-1.7-3-6.7-5.8-6.4c-2.7,0.3-21.7,14.9-24,22.1c-6.9,4.4-12.6,7.6-13.4,6.7c-0.4-0.4,1.1-3.6,2.6-5.4
		c3.5-4.2,9.3-9,14.7-13.5c1.7-1.8,4.3-3.6,0.8-6.3c-3.1-2.5-5.1-1.6-6.4-1c-1.2,0.6-2.6,1.7-4.2,2.6c-2.6,1.8-1.1-0.7-1.9-1.6
		c-5.5-5.5-7.9-5.9-14.6-2.9c-9.7,4.8-20,15-19.9,19.9c0.3,3.3,1.9,7.3,4.5,9.2c2.6,1.6,5.1-1.3,8.1-3.6c5.1-4.1,9.2-7.8,14.5-11.8
		c-5,4.9-5.4,8-4.8,10.4c0.5,2.4,2.2,6.4,6.3,7.3c1.6,0.3,7.2-2.9,13.8-7.2c0.8,3.5,3.7,7.3,4.6,6.8c8.5-13.6,34-27.8,38.1-29
		c-3.1,1.6-7.4,4.1-8.5,6.1c-1.8,3.5,3,8,5.9,9.2c1.9,0.4,4.6-1.1,8.3-3.4c-2.2,2.5-4.6,5.3-7.1,8.5c-2.4,3.1,2.5,8.8,5.4,10
		c1.5,1.4,15.9-8.4,27.1-16.7c1.1,2.5,3,4.7,3.9,7.2c-8.9,5.9-16.1,11-16,13.1c0.2,3.6,5,6.1,7,6.6c4.2,1.2,19.6-7,17.5-13.8
		c-0.6-2-2.1-4.4-3.5-6.6c9.3-6.3,19.8-13.3,25-17.6C253.2,53.5,252.2,52.2,250.8,53.5z M109.1,76.2c-1.4,1-0.9-0.9-0.9-0.9
		c6.2-9,14.6-16.3,24.4-19.1c0.7,0,0.7,0,0.7,1C125.4,63.5,117.3,69.7,109.1,76.2z M221,77.8c-3.6,4.1-9.7,6.5-11.4,6.7
		c-0.1-0.6,5.7-5.1,13-10.1C222.7,75.3,221.8,76.8,221,77.8z"/>
</g>
<g>
	<path class="st0" d="M154.6,31.1c-0.6,2.1-1.8,5.3-2.4,6.7c-1.3,0.3-4.7,1.1-8.1,1.1c-10.6,0-16-7-16-14.8c0-9,6.9-15.3,16.8-15.3
		c3.8,0,6.9,0.8,8.4,1c0.2,2,0.5,4.7,0.8,6.9l-1.4,0.3c-0.9-3-2-4.8-4.2-5.7c-1.2-0.5-3-0.8-4.7-0.8c-7.3,0-11.2,5.4-11.2,12.7
		c0,8.6,4.4,14.1,11.6,14.1c4.5,0,6.7-2.1,9-6.5L154.6,31.1z"/>
	<path class="st0" d="M172.5,38.7c-0.7,0-1.6-0.4-2.1-0.8c-0.6-0.6-0.8-1.2-1.1-2c-1.8,1.2-3.9,2.8-5.3,2.8c-3.1,0-5.4-2.6-5.4-5.5
		c0-2.2,1.2-3.6,3.6-4.4c2.7-0.9,6-2.1,7-2.9V25c0-3.1-1.6-5-3.9-5c-1,0-1.6,0.5-2.1,1c-0.5,0.6-0.8,1.6-1.2,2.9
		c-0.2,0.7-0.6,1-1.3,1c-0.8,0-2-0.9-2-2c0-0.6,0.6-1.2,1.5-1.8c1.3-0.9,3.9-2.6,6.4-3.1c1.3,0,2.7,0.4,3.7,1.2
		c1.6,1.3,2.3,2.8,2.3,5.1v8.6c0,2,0.8,2.7,1.6,2.7c0.5,0,1.1-0.2,1.6-0.5l0.4,1.2L172.5,38.7z M169.3,27.5c-1,0.5-3.1,1.4-4.1,1.9
		c-1.7,0.8-2.7,1.6-2.7,3.2c0,2.3,1.8,3.4,3.2,3.4c1.2,0,2.7-0.7,3.6-1.6C169.3,32.3,169.3,29.6,169.3,27.5z"/>
	<path class="st0" d="M180.8,18.7v-1.2c0-3.2,1.1-6.5,3.9-8.9c1.6-1.4,3.2-2.1,5-2.3c1.5,0,2.9,0.6,3.6,1.4c0.4,0.5,0.5,0.9,0.3,1.6
		c-0.1,0.4-0.6,1.1-1.1,1.4c-0.5,0.3-0.8,0.2-1.3-0.1c-0.9-0.8-2.1-1.8-3.6-1.8c-3.3,0-3.3,4.5-3.3,7.8v2.1h4.7
		c0.3,0.4,0,1.5-0.4,1.8h-4.3v12.8c0,3.2,0.5,3.2,3.8,3.6v1.2h-10.4v-1.2c2.8-0.3,3.1-0.4,3.1-3.3V20.5h-3.1l-0.2-0.5l1-1.3H180.8z"
		/>
	<path class="st0" d="M206.8,34.4c-2.8,3.5-5.9,4.3-7.4,4.3c-5.4,0-8.7-4.4-8.7-9.5c0-3,1.1-5.8,2.9-7.8c1.9-2.1,4.3-3.2,6.6-3.2
		c3.9,0,6.8,3.3,6.8,6.9c0,0.9-0.2,1.3-0.9,1.5c-0.9,0.2-6.6,0.6-11.8,0.8c-0.1,5.9,3.5,8.4,6.6,8.4c1.8,0,3.5-0.8,5.1-2.3
		L206.8,34.4z M199.2,19.9c-2,0-4,1.9-4.7,5.5c2.5,0,5,0,7.6-0.1c0.8,0,1.1-0.2,1.1-0.9C203.2,22,201.6,19.9,199.2,19.9z
		 M197.3,14.6l4.9-7.3c1.2-0.4,3.9-0.4,4.3-0.3l0.1,0.6l-8.3,7.7L197.3,14.6z"/>
</g>
</svg>
