<?xml version="1.0" encoding="utf-8"?>
<!-- Generator: Adobe Illustrator 27.2.0, SVG Export Plug-In . SVG Version: 6.00 Build 0)  -->
<svg version="1.1"
	 id="svg2" xmlns:rdf="http://www.w3.org/1999/02/22-rdf-syntax-ns#" xmlns:cc="http://creativecommons.org/ns#" xmlns:dc="http://purl.org/dc/elements/1.1/" xmlns:svg="http://www.w3.org/2000/svg"
	 xmlns="http://www.w3.org/2000/svg" xmlns:xlink="http://www.w3.org/1999/xlink" x="0px" y="0px" viewBox="0 0 408.9 408.8"
	 style="enable-background:new 0 0 408.9 408.8;" xml:space="preserve">
<style type="text/css">
	.st0{fill:#281C16;}
</style>
<g id="g10" transform="matrix(1.3333333,0,0,-1.3333333,0,408.8)">
	<g id="g12" transform="scale(0.1)">
		<path id="path14" class="st0" d="M1275.6,2780.3c-23.9,8.6-43.7,22.6-59.6,42c-15.9,19.4-25.9,42.4-30.2,69
			c-4.2,26.5-1.8,51.5,7.3,74.9c9.1,23.4,23.7,42.9,43.8,58.5c20.2,15.6,43.9,25.6,71.2,29.9c20.5,3.3,40,2.9,58.4-1.2
			c18.4-4.1,34.7-11.7,48.9-22.9l-15.6-21.5c-25,18.4-53.9,24.9-86.8,19.7c-21.8-3.5-40.8-11.6-57.1-24.5
			c-16.3-12.8-28.1-28.7-35.4-47.7c-7.4-18.9-9.3-39.2-5.9-60.7c3.4-21.6,11.6-40.2,24.5-55.9c12.9-15.7,29-27.2,48.5-34.3
			c19.5-7.1,40.1-9,61.9-5.5c33.1,5.3,58.6,20.6,76.3,46.1l21.5-15.6c-10-15.1-23.2-27.5-39.5-37.2c-16.4-9.8-34.8-16.2-55.3-19.5
			C1325,2769.5,1299.5,2771.7,1275.6,2780.3"/>
		<path id="path16" class="st0" d="M1687.6,2818.9c18.5,8.6,33.5,21.3,44.9,38.2c11.4,16.9,17.9,36.2,19.6,58
			c1.7,21.7-1.9,41.8-10.6,60.2c-8.7,18.4-21.6,33.2-38.6,44.6c-17,11.3-36.5,17.8-58.6,19.5c-22.1,1.7-42.4-1.8-61.1-10.4
			c-18.7-8.6-33.8-21.3-45.3-38.2c-11.6-16.9-18.2-36.2-19.8-57.9c-1.7-21.8,2-41.9,10.8-60.3c8.9-18.4,21.9-33.3,39-44.6
			c17.2-11.3,36.7-17.8,58.8-19.5C1648.8,2806.8,1669.1,2810.3,1687.6,2818.9L1687.6,2818.9z M1551.2,2806.4
			c-21.5,14-37.7,32.3-48.7,54.7c-11,22.5-15.4,47.1-13.4,73.9s10.2,50.5,24.4,71c14.2,20.5,33,36.1,56.4,46.8
			c23.4,10.6,48.9,14.9,76.4,12.8c27.6-2.1,52-10.1,73.2-24c21.2-13.9,37.4-32.1,48.4-54.7c11.1-22.6,15.7-47.3,13.6-74.1
			c-2-26.8-10.3-50.5-24.6-71.2c-14.4-20.7-33.1-36.2-56.2-46.8c-23.1-10.5-48.4-14.7-76-12.6S1572.6,2792.4,1551.2,2806.4"/>
		<path id="path18" class="st0" d="M1877.1,2756.9c-17.3,18.6-28.6,40.1-33.8,64.7c-5.2,24.6-3.6,49.6,4.8,75.1
			c8.4,25.5,22,46.6,40.8,63.3c18.8,16.7,40.7,27.3,65.7,31.9c25.1,4.6,50.7,2.6,77-6c19.7-6.5,36.8-15.8,51.3-27.8
			c14.5-12.1,25.5-26.3,33-42.8l-23.7-12c-13.8,27.8-36.5,46.9-68.1,57.3c-21,6.9-41.6,8.4-62,4.4c-20.3-3.9-38.1-12.7-53.3-26.1
			c-15.2-13.5-26.2-30.6-33.1-51.3c-6.8-20.7-8.1-41-3.9-60.9c4.2-19.9,13.4-37.5,27.4-52.7c14-15.3,31.5-26.3,52.5-33.2
			c31.8-10.5,61.5-8.5,89,6l12-23.7c-15.8-8.8-33.2-13.8-52.2-15c-19-1.2-38.4,1.5-58.1,8
			C1916.2,2724.7,1894.4,2738.3,1877.1,2756.9"/>
		<path id="path20" class="st0" d="M2260.9,2601.9c20.4-0.9,39.6,3.5,57.5,13.2c17.9,9.7,32.6,23.8,44.1,42.4
			c11.5,18.5,17.6,38,18.4,58.4c0.7,20.4-3.8,39.5-13.8,57.4c-9.9,17.9-24.2,32.6-43,44.3c-18.8,11.6-38.4,17.9-58.9,18.9
			c-20.5,1-39.8-3.4-57.8-13c-18-9.7-32.8-23.7-44.3-42.3c-11.5-18.5-17.6-38-18.2-58.4c-0.6-20.4,4.1-39.6,14.1-57.6
			c10-17.9,24.4-32.7,43.1-44.4C2220.9,2609,2240.5,2602.8,2260.9,2601.9L2260.9,2601.9z M2134.1,2653.7c-12.6,22.4-18.6,46-18,71
			c0.6,25,8,48.9,22.2,71.7c14.1,22.8,32.3,40.1,54.4,51.7c22.1,11.7,46,16.8,71.6,15.5c25.6-1.3,50.2-9.3,73.7-23.9
			c23.5-14.6,41.5-32.9,53.9-55c12.4-22.1,18.4-45.7,17.8-70.9c-0.6-25.2-7.9-49.2-22.1-72c-14.1-22.9-32.4-40.1-54.6-51.8
			c-22.3-11.7-46.1-16.9-71.4-15.6c-25.3,1.3-49.8,9.3-73.3,23.9C2164.7,2612.9,2146.7,2631.3,2134.1,2653.7"/>
		<path id="path22" class="st0" d="M2507.9,2500.8l70.7-77.1l-18.2-16.7l-70.7,77.1L2507.9,2500.8"/>
		<path id="path24" class="st0" d="M2630,2170.7c0.4,25.4,7.3,48.7,20.6,70c13.2,21.3,31.8,38.2,55.5,50.8
			c23.8,12.6,48.2,18.3,73.2,17.3c25.1-1.1,48.2-8.6,69.5-22.6c21.3-14,38.4-33.3,51.3-57.8c9.7-18.4,15.6-36.9,17.7-55.7
			c2.1-18.8,0.1-36.6-5.9-53.7l-25.4,7.8c9.4,29.6,6.2,59.1-9.3,88.5c-10.3,19.5-24.2,34.9-41.6,46.2
			c-17.4,11.3-36.2,17.4-56.6,18.2c-20.3,0.9-40.1-3.8-59.4-14c-19.3-10.2-34.3-23.9-45.1-41.2c-10.7-17.3-16.4-36.2-16.9-57
			c-0.5-20.7,4.4-40.8,14.7-60.4c15.6-29.6,38.4-48.8,68.2-57.4l-7.8-25.3c-17.5,4.6-33.5,13.1-47.9,25.5
			c-14.5,12.3-26.6,27.7-36.3,46.1C2635.8,2120.4,2629.5,2145.3,2630,2170.7"/>
		<path id="path26" class="st0" d="M2798.7,1792.4c14-14.8,30.9-25,50.5-30.4c19.6-5.4,40-5.5,61.2-0.1c21.1,5.3,39,15.1,53.7,29.2
			c14.7,14.2,24.6,31.1,30,50.8c5.3,19.7,5.2,40.3-0.2,61.7c-5.4,21.4-15.2,39.6-29.2,54.5c-14.1,15-31,25.2-50.6,30.8
			c-19.7,5.6-40.1,5.7-61.2,0.3c-21.1-5.3-39-15.2-53.7-29.4c-14.6-14.3-24.6-31.3-29.9-51.2c-5.3-19.9-5.2-40.5,0.2-61.9
			C2774.9,1825.4,2784.7,1807.3,2798.7,1792.4L2798.7,1792.4z M2743.5,1917.8c6.5,24.8,18.6,46,36.4,63.6
			c17.8,17.6,39.7,29.6,65.8,36.2c26,6.6,51.1,6.4,75.1-0.6c24-6.9,44.7-19.8,62.3-38.6c17.5-18.8,29.6-41.5,36.4-68.4
			c6.8-26.8,7-52.5,0.6-77c-6.4-24.5-18.6-45.7-36.5-63.4c-17.9-17.7-39.9-29.8-65.9-36.4c-26.1-6.6-51.1-6.4-75.3,0.7
			c-24.2,7.1-44.9,19.9-62.2,38.4c-17.3,18.5-29.4,41.2-36.2,68C2737.2,1867.2,2737,1893,2743.5,1917.8"/>
		<path id="path28" class="st0" d="M2799.7,1593.2c11.9,22.4,28.6,40.1,50,53.1c21.5,13,45.6,19.7,72.5,20.1
			c26.9,0.4,51.2-5.5,73.1-17.8c21.9-12.3,39.1-29.5,51.7-51.7c12.6-22.1,19.1-47.1,19.6-74.7c0.3-20.8-2.8-40-9.4-57.6
			c-6.6-17.7-16.5-32.7-29.6-45.2l-19.1,18.5c21.7,22.2,32.3,49.9,31.8,83.1c-0.4,22.1-5.8,42.1-16.1,60
			c-10.4,17.9-24.4,31.9-42.2,41.8c-17.7,10-37.5,14.8-59.3,14.4s-41.4-5.8-58.8-16.3c-17.4-10.5-31-24.9-40.8-43.2
			c-9.8-18.2-14.6-38.4-14.2-60.5c0.6-33.5,12.2-60.9,34.9-82.1l-18.4-19.1c-13.5,12-23.9,26.8-31.2,44.4
			c-7.4,17.6-11.2,36.8-11.5,57.5C2782.1,1545.7,2787.8,1570.8,2799.7,1593.2"/>
		<path id="path30" class="st0" d="M2776.8,1180.7c5.7-19.6,16-36.3,31-50.2c15-13.8,33.1-23.2,54.3-28.1
			c21.3-4.9,41.6-4.4,61.2,1.4c19.5,5.9,36.1,16.4,49.9,31.5c13.7,15.1,23.1,33.4,28,55c5,21.5,4.6,42.1-1.1,61.9
			c-5.7,19.7-16,36.6-30.9,50.5c-14.9,14-33,23.4-54.3,28.3c-21.3,4.9-41.7,4.4-61.2-1.6c-19.5-6-36.2-16.7-50-31.9
			c-13.8-15.2-23.1-33.6-28.1-55.2C2770.8,1220.9,2771.1,1200.4,2776.8,1180.7L2776.8,1180.7z M2785.1,1317.5
			c17.1,19.2,37.6,32.4,61.4,39.9c23.8,7.5,48.9,8.2,75,2.1c26.2-6,48.4-17.7,66.5-34.8c18.1-17.2,30.7-38.1,37.7-62.8
			c7-24.7,7.4-50.5,1.2-77.5c-6.2-26.9-17.8-49.9-34.7-68.8c-16.9-18.9-37.4-32.1-61.4-39.7c-24-7.6-49.1-8.3-75.3-2.3
			c-26.2,6-48.4,17.7-66.6,35c-18.2,17.3-30.8,38.2-37.8,62.6c-6.9,24.4-7.3,50.1-1.1,77.1C2756.3,1275.3,2768,1298.4,2785.1,1317.5
			"/>
		<path id="path32" class="st0" d="M2760.1,913.8l-50.5-91.6l-21.7,12l50.5,91.6L2760.1,913.8"/>
		<path id="path34" class="st0" d="M2486.3,692.9c24.2,7.7,48.5,8.6,72.9,2.8c24.4-5.8,46.4-17.9,65.9-36.4
			c19.5-18.5,32.7-39.8,39.8-63.9c7-24.1,7.3-48.4,0.8-73.1c-6.5-24.6-19.3-47-38.4-67.1c-14.3-15-30-26.5-47.1-34.5
			c-17.1-8-34.7-11.8-52.8-11.5l-0.7,26.5c31,0.6,58,13,80.9,37.1c15.2,16,25.4,34.1,30.5,54.2c5.1,20.1,4.9,39.9-0.8,59.4
			c-5.7,19.5-16.4,36.8-32.2,51.8c-15.8,15-33.6,24.9-53.4,29.5c-19.8,4.7-39.6,3.9-59.4-2.2c-19.8-6.1-37.3-17.2-52.5-33.2
			c-23.1-24.3-34-52-32.6-83l-26.5-0.7c-1.2,18,1.7,35.9,8.8,53.6c7.1,17.7,17.8,34.1,32.1,49.1
			C2440.5,671.4,2462.1,685.2,2486.3,692.9"/>
		<path id="path36" class="st0" d="M2182.5,412c-9.5-18.1-13.7-37.3-12.5-57.6c1.2-20.4,7.7-39.7,19.6-58
			c11.9-18.3,26.9-32.1,45-41.4c18.1-9.3,37.4-13.3,57.7-12c20.4,1.3,39.9,8,58.4,20.1c18.5,12,32.6,27.1,42.2,45.3
			c9.6,18.1,13.9,37.4,12.9,57.8c-1,20.4-7.5,39.8-19.4,58.1s-26.9,32.1-45.2,41.3c-18.2,9.3-37.6,13.2-58.1,11.8
			c-20.5-1.4-40-8.1-58.5-20.2C2206.1,445.1,2192.1,430.1,2182.5,412L2182.5,412z M2283.4,504.6c25.6,1.9,49.6-2.8,71.9-14
			c22.3-11.2,40.8-28.1,55.5-50.6c14.6-22.5,22.5-46.3,23.7-71.2c1.1-25-4.4-48.8-16.5-71.4c-12.1-22.6-29.8-41.5-53-56.5
			c-23.2-15.1-47.4-23.5-72.8-25.4c-25.3-1.8-49.2,2.8-71.7,14.1c-22.5,11.2-41.1,28.1-55.7,50.6c-14.6,22.5-22.5,46.4-23.6,71.5
			c-1.1,25.1,4.3,48.9,16.3,71.3c12,22.4,29.6,41.1,52.8,56.2C2233.4,494.3,2257.8,502.8,2283.4,504.6"/>
		<path id="path38" class="st0" d="M1994.1,346.2c25-4.3,47-14.6,66.1-30.9c19.1-16.4,33-37.2,41.8-62.6c8.8-25.4,10.8-50.4,6-75
			c-4.8-24.6-15.8-46.4-32.9-65.3c-17.1-18.9-38.7-32.9-64.9-41.9c-19.6-6.8-38.8-9.8-57.7-9c-18.8,0.8-36.2,5.4-52.2,14l11.6,23.9
			c27.8-13.7,57.5-15.1,88.9-4.2c20.9,7.2,38.2,18.6,52,34.1c13.8,15.5,22.6,33.2,26.6,53.1c3.9,20,2.3,40.3-4.9,60.8
			c-7.1,20.6-18.4,37.5-33.9,50.8c-15.4,13.2-33.4,21.7-53.8,25.3c-20.4,3.6-41,1.8-61.9-5.4c-31.7-11-54-30.6-67.1-58.8l-23.9,11.6
			c7.2,16.6,18,31.1,32.4,43.6c14.4,12.5,31.4,22.1,51,28.9C1943.5,348.1,1969.1,350.5,1994.1,346.2"/>
		<path id="path40" class="st0" d="M1595.6,236.7c-16.8-11.7-29.3-26.8-37.7-45.4c-8.4-18.6-11.5-38.7-9.3-60.5
			c2.1-21.7,9.1-40.9,20.8-57.5c11.8-16.6,27-29,45.7-37.2c18.7-8.2,39.1-11.2,61-9.1c22,2.2,41.4,9.1,58.3,20.7
			c16.9,11.7,29.6,26.8,38.1,45.4c8.5,18.6,11.7,38.7,9.6,60.5c-2.1,21.7-9.1,40.9-21.1,57.5c-11.9,16.6-27.3,29-46.1,37.2
			c-18.9,8.2-39.3,11.2-61.2,9.1C1631.8,255.3,1612.4,248.4,1595.6,236.7z M1727.9,272.5c23.6-10.1,42.7-25.3,57.4-45.5
			c14.7-20.2,23.3-43.7,25.9-70.4c2.6-26.7-1.3-51.5-11.8-74.1c-10.5-22.7-26.3-41.3-47.5-55.8c-21.2-14.5-45.5-23.1-73.1-25.8
			c-27.5-2.7-53,1-76.3,11c-23.3,10-42.3,25.2-57.2,45.5c-14.8,20.4-23.5,43.9-26.1,70.6c-2.6,26.8,1.4,51.5,12,74.3
			c10.6,22.8,26.4,41.4,47.3,55.7c20.9,14.3,45.2,22.9,72.7,25.6C1678.7,286.4,1704.3,282.6,1727.9,272.5"/>
		<path id="path42" class="st0" d="M1337.5,166.8l-102.9,18.3l4.3,24.4l103-18.3L1337.5,166.8"/>
		<path id="path44" class="st0" d="M1040.6,354.9c15-20.4,23.7-43.2,26.1-68.2c2.3-25-2.1-49.7-13.4-74
			c-11.3-24.4-27.2-43.8-47.8-58.1c-20.6-14.4-43.6-22.4-69-24.1c-25.4-1.7-50.7,3.2-75.8,14.9c-18.8,8.7-34.8,19.9-47.8,33.6
			c-13,13.7-22.3,29.1-27.8,46.3l24.9,9.1c10.5-29.2,30.9-50.8,61-64.8c20-9.3,40.4-13.1,61.1-11.6c20.7,1.6,39.3,8.2,56,19.8
			c16.7,11.6,29.6,27.3,38.8,47.1c9.2,19.8,12.8,39.8,10.9,60.1c-1.9,20.2-8.9,38.7-21.1,55.5c-12.2,16.8-28.3,29.8-48.3,39.1
			c-30.4,14.1-60.1,15.5-89.1,4.3l-9.1,24.9c16.7,6.9,34.5,9.9,53.6,8.8c19-1,37.9-5.9,56.8-14.6
			C1005.5,391.4,1025.6,375.4,1040.6,354.9"/>
		<path id="path46" class="st0" d="M677,553.3c-20.2,3.2-39.7,1.1-58.6-6.5c-18.9-7.6-35.1-19.9-48.7-37
			c-13.5-17.1-21.9-35.7-24.9-55.9c-3.1-20.1-0.7-39.7,7.1-58.6c7.8-18.9,20.3-35.2,37.6-48.9c17.3-13.7,36.1-22.2,56.4-25.6
			c20.3-3.3,39.9-1.2,58.9,6.3c19,7.5,35.3,19.8,48.8,36.9c13.6,17.1,21.8,35.8,24.8,56c3,20.2,0.5,39.8-7.4,58.8
			c-7.9,19-20.5,35.3-37.8,49C715.9,541.6,697.2,550.1,677,553.3z M797,487.2c9.9-23.7,13.2-47.9,9.7-72.6
			c-3.5-24.7-13.6-47.6-30.3-68.7c-16.7-21.1-36.7-36.1-60-45.2c-23.3-9-47.6-11.4-72.9-7.2c-25.3,4.3-48.8,15-70.5,32.2
			c-21.7,17.2-37.4,37.5-47.2,60.8c-9.8,23.4-13,47.6-9.5,72.5c3.5,24.9,13.5,47.9,30.2,69c16.7,21.1,36.8,36.1,60.3,45.2
			c23.5,9.1,47.7,11.5,72.7,7.3c25-4.2,48.4-14.9,70.1-32.1C771.3,531.3,787.1,510.9,797,487.2"/>
		<path id="path48" class="st0" d="M554.8,710.4c4-25,1.3-49.2-8.1-72.5c-9.4-23.3-24.6-43.2-45.8-59.7
			c-21.2-16.5-44.2-26.4-69.1-29.8c-24.9-3.4-49,0.1-72.4,10.2c-23.4,10.1-43.6,26.1-60.6,47.9c-12.7,16.4-21.8,33.6-27.1,51.7
			c-5.3,18.1-6.5,36.1-3.5,53.9l26.3-3.3c-4-30.8,4.2-59.3,24.6-85.6c13.6-17.4,29.9-30.2,49-38.2c19.1-8.1,38.7-10.8,58.9-8
			c20.1,2.7,38.8,10.7,56,24.1c17.2,13.4,29.6,29.5,37.2,48.4c7.6,18.8,9.8,38.5,6.7,59c-3.1,20.5-11.5,39.4-25,56.9
			c-20.6,26.4-46.3,41.3-77.2,44.6l3.3,26.3c18-1.5,35.2-7,51.7-16.7c16.4-9.6,31-22.6,43.8-39C540.3,758.9,550.8,735.5,554.8,710.4
			"/>
		<path id="path50" class="st0" d="M322.6,1052.9c-16.4,12.1-34.8,19.2-55.1,21.1c-20.3,1.9-40.4-1.6-60.2-10.6
			c-19.9-9-35.8-21.8-47.7-38.3c-11.9-16.5-18.8-34.9-20.5-55.3c-1.7-20.4,1.9-40.6,11.1-60.7c9.1-20.1,21.9-36.3,38.4-48.5
			c16.5-12.2,34.9-19.4,55.3-21.4c20.3-2,40.5,1.4,60.3,10.4c19.9,9,35.8,21.8,47.7,38.4c11.9,16.6,18.7,35.2,20.4,55.7
			c1.7,20.5-2,40.8-11.1,60.9C351.8,1024.7,339,1040.8,322.6,1052.9z M399,939.2c-2-25.6-10.2-48.6-24.6-69
			c-14.4-20.4-33.9-36.2-58.4-47.2c-24.5-11.1-49.1-15.3-74-12.7c-24.8,2.6-47.5,11.6-68.1,27c-20.6,15.4-36.5,35.7-47.9,60.9
			c-11.4,25.2-16.1,50.5-14.1,75.7c2,25.3,10.2,48.2,24.7,68.8c14.5,20.6,34,36.4,58.5,47.5c24.5,11.1,49.2,15.3,74.3,12.6
			c25-2.7,47.7-11.6,68-26.8c20.3-15.2,36.2-35.4,47.6-60.6C396.3,990.2,401,964.8,399,939.2"/>
		<path id="path52" class="st0" d="M174,1274.8l-15.5,103.4l24.5,3.6l15.5-103.4L174,1274.8"/>
		<path id="path54" class="st0" d="M257.3,1616.7c-14.5-20.8-33.2-36.3-56.1-46.6c-22.9-10.3-47.7-14-74.4-11.1
			c-26.7,2.8-50.2,11.7-70.4,26.6c-20.2,14.8-35.2,34-45.1,57.6c-9.8,23.5-13.2,49-10.3,76.6c2.2,20.6,7.7,39.3,16.4,56
			c8.7,16.7,20.4,30.5,34.9,41.2l16.7-20.7c-24.3-19.3-38.2-45.6-41.7-78.6c-2.3-22,0.6-42.5,8.7-61.5c8.1-19.1,20.4-34.6,36.8-46.7
			c16.4-12.1,35.4-19.2,57.1-21.5s41.8,0.7,60.4,9c18.5,8.3,33.8,20.9,45.8,37.9c12,16.9,19.1,36.3,21.4,58.3
			c3.6,33.3-4.6,61.9-24.6,85.7l20.6,16.7c11.9-13.6,20.5-29.5,25.6-47.9c5.1-18.3,6.6-37.8,4.4-58.5
			C280.6,1661.6,271.9,1637.5,257.3,1616.7"/>
		<path id="path56" class="st0" d="M328.1,2024.4c-3.4,20.1-11.7,38-25,53.4c-13.3,15.5-30.2,26.9-50.7,34.2
			c-20.5,7.3-40.8,9.2-60.9,5.7c-20.1-3.6-37.8-12.1-53.2-25.5c-15.4-13.4-26.8-30.6-34.2-51.3c-7.4-20.8-9.5-41.3-6.1-61.6
			c3.4-20.3,11.6-38.2,24.8-53.8c13.2-15.6,30.1-27.1,50.6-34.4c20.5-7.3,40.9-9.2,61-5.5c20.1,3.7,37.9,12.3,53.3,25.9
			c15.4,13.6,26.9,30.7,34.3,51.5C329.5,1983.8,331.5,2004.3,328.1,2024.4z M304.1,1889.6c-19.2-17-41.1-27.8-65.6-32.5
			c-24.5-4.6-49.5-2.4-74.8,6.6c-25.3,9.1-46,23.2-62,42.3c-16,19.2-26.1,41.4-30.2,66.7c-4.1,25.3-1.5,51,7.9,77.1
			c9.3,26.1,23.5,47.5,42.5,64.3c19,16.8,40.9,27.6,65.6,32.3c24.7,4.7,49.7,2.6,75-6.5c25.3-9.1,46-23.2,62.1-42.6
			c16.1-19.3,26.2-41.5,30.3-66.5c4-25,1.4-50.6-7.9-76.6C337.6,1928.1,323.3,1906.6,304.1,1889.6"/>
		<path id="path58" class="st0" d="M438.1,2190.8c-22.5-11.8-46.2-16.9-71.3-15.5c-25.1,1.4-48.8,9.6-71.2,24.4
			c-22.4,14.8-39.2,33.5-50.2,56c-11.1,22.5-15.6,46.5-13.4,71.9c2.1,25.4,10.9,49.6,26.1,72.7c11.5,17.3,24.9,31.4,40.4,42.2
			c15.5,10.8,32.1,17.6,50,20.5l5.3-26c-30.5-6-54.9-22.8-73.2-50.6c-12.2-18.4-19.1-38-20.6-58.6c-1.6-20.7,2.1-40.1,11.1-58.4
			c9-18.2,22.6-33.4,40.7-45.4c18.2-12.1,37.4-18.7,57.7-19.8c20.3-1.2,39.7,3,58.1,12.5c18.4,9.5,33.7,23.4,45.9,41.8
			c18.5,27.9,24.4,57.1,17.7,87.4l26,5.3c4.3-17.6,4.6-35.6,0.7-54.3c-3.9-18.6-11.6-36.6-23-53.9
			C479.5,2219.9,460.6,2202.5,438.1,2190.8"/>
		<path id="path60" class="st0" d="M688.5,2520.1c6.2,19.4,7,39.1,2.3,58.9c-4.7,19.8-14.5,37.7-29.3,53.7
			c-14.9,15.9-32.1,26.9-51.5,33c-19.5,6-39.1,6.6-59,1.8c-19.8-4.9-37.8-14.8-54-29.9c-16.2-15.1-27.4-32.4-33.7-51.9
			c-6.3-19.6-7.2-39.3-2.6-59.2c4.6-19.9,14.3-37.9,29.2-53.8c14.9-15.9,32.1-26.9,51.7-32.8c19.6-6,39.3-6.4,59.2-1.5
			c19.9,4.9,38,15,54.1,30C671.1,2483.4,682.3,2500.6,688.5,2520.1z M605.2,2411.3c-24.9-6.3-49.3-5.9-73.2,1.3
			c-23.9,7.1-45.1,20.5-63.4,40.2c-18.3,19.6-30.2,41.7-35.7,66.1c-5.5,24.4-4.2,48.8,3.8,73.1c8,24.4,22.1,46,42.3,64.9
			c20.2,18.9,42.6,31.4,67.2,37.6c24.6,6.2,49,5.7,73.1-1.4c24.1-7.1,45.4-20.5,63.7-40.2c18.3-19.6,30.2-41.8,35.7-66.3
			c5.5-24.6,4.2-48.9-3.7-73c-7.9-24.1-22-45.6-42.2-64.5C652.7,2430.2,630.1,2417.6,605.2,2411.3"/>
		<path id="path62" class="st0" d="M851,2732.2l92.9,48l11.4-22l-92.9-47.9L851,2732.2"/>
		<path id="path64" class="st0" d="M2016.2,1814.9c-14.4-22.1-31.1-43.1-50.5-62.5c-130.2-130.2-311.5-130.2-424.7-243.5
			c-105.9-105.9-97.1-250.2-194.8-347.9c-45.6-45.6-86.1-77.3-144.9-100.1c172.7-82.9,428.8-16,621.2,176.4
			C1999.4,1414.1,2070.2,1644.6,2016.2,1814.9"/>
		<path id="path66" class="st0" d="M1237.1,1233.2c103,103,70.4,234.1,167.2,330.9c130.2,130.2,334.1,139.3,445.9,251.1
			c43.3,43.3,64.7,88.7,73,142.9c-166.7,144.1-469.8,88.1-689.6-131.8c-219.6-219.6-275.7-522.2-132.2-689.1
			C1148.3,1160.6,1193.2,1189.3,1237.1,1233.2"/>
	</g>
</g>
</svg>
