<?xml version="1.0" encoding="UTF-8" standalone="no"?>
<svg
   xmlns:dc="http://purl.org/dc/elements/1.1/"
   xmlns:cc="http://creativecommons.org/ns#"
   xmlns:rdf="http://www.w3.org/1999/02/22-rdf-syntax-ns#"
   xmlns:svg="http://www.w3.org/2000/svg"
   xmlns="http://www.w3.org/2000/svg"
   viewBox="0 0 408.89334 408.79999"
   height="408.79999"
   width="408.89334"
   xml:space="preserve"
   id="svg2"
   version="1.1"><metadata
     id="metadata8"><rdf:RDF><cc:Work
         rdf:about=""><dc:format>image/svg+xml</dc:format><dc:type
           rdf:resource="http://purl.org/dc/dcmitype/StillImage" /></cc:Work></rdf:RDF></metadata><defs
     id="defs6" /><g
     transform="matrix(1.3333333,0,0,-1.3333333,0,408.8)"
     id="g10"><g
       transform="scale(0.1)"
       id="g12"><path
         id="path14"
         style="fill:#eedbbf;fill-opacity:1;fill-rule:nonzero;stroke:none"
         d="m 1275.6,2780.25 c -23.87,8.57 -43.74,22.59 -59.63,42.01 -15.9,19.44 -25.95,42.41 -30.17,68.96 -4.23,26.53 -1.81,51.48 7.26,74.89 9.07,23.41 23.68,42.91 43.82,58.52 20.16,15.58 43.88,25.57 71.21,29.92 20.5,3.27 39.96,2.85 58.38,-1.2 18.44,-4.08 34.73,-11.72 48.92,-22.94 l -15.58,-21.47 c -25.01,18.37 -53.95,24.95 -86.78,19.73 -21.82,-3.48 -40.85,-11.63 -57.14,-24.46 -16.27,-12.83 -28.09,-28.71 -35.43,-47.67 -7.37,-18.95 -9.33,-39.2 -5.89,-60.74 3.43,-21.56 11.58,-40.18 24.46,-55.92 12.87,-15.73 29.04,-27.17 48.49,-34.31 19.46,-7.14 40.09,-8.97 61.9,-5.49 33.11,5.26 58.55,20.64 76.31,46.09 l 21.47,-15.57 c -9.99,-15.06 -23.17,-27.46 -39.53,-37.21 -16.37,-9.75 -34.8,-16.25 -55.29,-19.51 -27.33,-4.35 -52.92,-2.23 -76.78,6.37" /><path
         id="path16"
         style="fill:#eedbbf;fill-opacity:1;fill-rule:nonzero;stroke:none"
         d="m 1687.58,2818.85 c 18.52,8.59 33.51,21.33 44.95,38.2 11.4,16.88 17.94,36.19 19.6,57.96 1.67,21.74 -1.87,41.82 -10.61,60.24 -8.74,18.39 -21.64,33.25 -38.62,44.55 -17.02,11.3 -36.54,17.79 -58.56,19.46 -22.06,1.69 -42.37,-1.77 -61.05,-10.37 -18.65,-8.57 -33.76,-21.3 -45.32,-38.16 -11.56,-16.87 -18.16,-36.19 -19.82,-57.93 -1.65,-21.75 1.96,-41.85 10.82,-60.26 8.88,-18.42 21.9,-33.28 39.04,-44.6 17.15,-11.3 36.71,-17.79 58.77,-19.48 22.01,-1.66 42.28,1.79 60.8,10.39 z m -136.42,-12.43 c -21.48,14.03 -37.7,32.28 -48.67,54.73 -10.96,22.46 -15.43,47.05 -13.39,73.85 2.04,26.8 10.18,50.46 24.41,70.98 14.24,20.54 33.04,36.13 56.38,46.76 23.39,10.62 48.86,14.88 76.45,12.78 27.55,-2.08 51.98,-10.09 73.21,-23.97 21.22,-13.88 37.37,-32.13 48.44,-54.71 11.11,-22.6 15.65,-47.3 13.61,-74.08 -2.04,-26.8 -10.28,-50.53 -24.64,-71.17 -14.4,-20.66 -33.13,-36.25 -56.18,-46.76 -23.1,-10.53 -48.41,-14.73 -76,-12.63 -27.59,2.1 -52.15,10.18 -73.62,24.22" /><path
         id="path18"
         style="fill:#eedbbf;fill-opacity:1;fill-rule:nonzero;stroke:none"
         d="m 1877.14,2756.86 c -17.3,18.58 -28.56,40.12 -33.78,64.67 -5.22,24.56 -3.64,49.59 4.77,75.12 8.38,25.51 21.97,46.6 40.76,63.26 18.77,16.65 40.68,27.29 65.74,31.92 25.05,4.64 50.73,2.65 77.01,-5.99 19.71,-6.49 36.84,-15.75 51.33,-27.82 14.53,-12.05 25.51,-26.32 32.98,-42.77 l -23.68,-11.96 c -13.81,27.78 -36.51,46.88 -68.1,57.27 -20.97,6.9 -41.64,8.39 -61.99,4.43 -20.35,-3.95 -38.12,-12.67 -53.33,-26.14 -15.23,-13.48 -26.24,-30.59 -33.05,-51.31 -6.82,-20.73 -8.11,-41.02 -3.87,-60.91 4.25,-19.88 13.38,-37.46 27.41,-52.71 14.02,-15.26 31.53,-26.33 52.5,-33.23 31.84,-10.47 61.49,-8.48 88.96,6.03 l 11.95,-23.68 c -15.78,-8.8 -33.17,-13.8 -52.19,-14.96 -19,-1.19 -38.38,1.47 -58.08,7.97 -26.29,8.63 -48.07,22.24 -65.34,40.81" /><path
         id="path20"
         style="fill:#eedbbf;fill-opacity:1;fill-rule:nonzero;stroke:none"
         d="m 2260.87,2601.85 c 20.39,-0.92 39.56,3.47 57.48,13.19 17.91,9.69 32.62,23.83 44.11,42.37 11.51,18.54 17.61,38 18.35,58.35 0.73,20.37 -3.84,39.49 -13.75,57.37 -9.88,17.87 -24.22,32.63 -42.97,44.26 -18.79,11.63 -38.42,17.94 -58.93,18.94 -20.54,0.97 -39.81,-3.35 -57.83,-12.99 -18.04,-9.66 -32.8,-23.74 -44.28,-42.29 -11.51,-18.53 -17.57,-38.01 -18.19,-58.45 -0.63,-20.43 4.08,-39.62 14.09,-57.56 10.01,-17.95 24.38,-32.73 43.15,-44.38 18.77,-11.64 38.36,-17.9 58.77,-18.81 z m -126.79,51.85 c -12.61,22.35 -18.58,46.03 -17.96,71 0.6,24.98 7.99,48.87 22.16,71.71 14.15,22.83 32.28,40.08 54.38,51.73 22.1,11.68 45.96,16.84 71.58,15.51 25.64,-1.33 50.19,-9.3 73.73,-23.89 23.51,-14.57 41.47,-32.92 53.92,-55.02 12.42,-22.12 18.35,-45.74 17.77,-70.9 -0.57,-25.16 -7.93,-49.17 -22.1,-72 -14.15,-22.85 -32.38,-40.1 -54.65,-51.79 -22.28,-11.72 -46.09,-16.9 -71.42,-15.61 -25.32,1.31 -49.75,9.26 -73.27,23.85 -23.51,14.57 -41.57,33.04 -54.14,55.41" /><path
         id="path22"
         style="fill:#eedbbf;fill-opacity:1;fill-rule:nonzero;stroke:none"
         d="m 2507.88,2500.77 70.67,-77.05 -18.23,-16.73 -70.67,77.05 18.23,16.73" /><path
         id="path24"
         style="fill:#eedbbf;fill-opacity:1;fill-rule:nonzero;stroke:none"
         d="m 2629.99,2170.68 c 0.43,25.36 7.3,48.69 20.58,70 13.25,21.31 31.77,38.23 55.54,50.77 23.76,12.55 48.17,18.3 73.25,17.26 25.07,-1.05 48.25,-8.6 69.5,-22.65 21.27,-14.04 38.35,-33.29 51.27,-57.76 9.7,-18.35 15.59,-36.92 17.67,-55.67 2.08,-18.77 0.1,-36.64 -5.95,-53.68 l -25.35,7.82 c 9.35,29.61 6.25,59.12 -9.28,88.52 -10.32,19.52 -24.18,34.92 -41.55,46.2 -17.4,11.28 -36.25,17.35 -56.56,18.21 -20.31,0.85 -40.1,-3.83 -59.39,-14.01 -19.29,-10.19 -34.32,-23.91 -45.06,-41.16 -10.73,-17.27 -16.35,-36.25 -16.85,-56.98 -0.5,-20.72 4.41,-40.82 14.73,-60.36 15.65,-29.64 38.39,-48.78 68.23,-57.4 l -7.84,-25.34 c -17.48,4.62 -33.46,13.09 -47.94,25.45 -14.51,12.34 -26.6,27.7 -36.3,46.05 -12.92,24.47 -19.16,49.38 -18.7,74.73" /><path
         id="path26"
         style="fill:#eedbbf;fill-opacity:1;fill-rule:nonzero;stroke:none"
         d="m 2798.71,1792.43 c 14.04,-14.84 30.88,-24.98 50.52,-30.45 19.63,-5.45 40.02,-5.51 61.18,-0.14 21.14,5.34 39.04,15.08 53.73,29.23 14.67,14.15 24.64,31.09 29.95,50.82 5.3,19.73 5.24,40.29 -0.19,61.7 -5.41,21.41 -15.17,39.58 -29.24,54.54 -14.09,14.96 -30.96,25.24 -50.63,30.82 -19.66,5.6 -40.08,5.72 -61.22,0.35 -21.14,-5.35 -39.04,-15.15 -53.66,-29.42 -14.65,-14.28 -24.6,-31.34 -29.87,-51.21 -5.26,-19.86 -5.18,-40.48 0.23,-61.89 5.43,-21.41 15.15,-39.52 29.2,-54.35 z m -55.19,125.37 c 6.47,24.83 18.61,46.01 36.4,63.55 17.79,17.55 39.7,29.61 65.75,36.21 26.04,6.58 51.07,6.41 75.06,-0.56 24,-6.95 44.74,-19.81 62.27,-38.58 17.5,-18.75 29.65,-41.54 36.43,-68.38 6.81,-26.82 6.97,-52.5 0.59,-77.04 -6.43,-24.53 -18.59,-45.65 -36.46,-63.36 -17.9,-17.71 -39.85,-29.84 -65.91,-36.44 -26.05,-6.59 -51.14,-6.37 -75.3,0.69 -24.16,7.05 -44.89,19.87 -62.2,38.39 -17.32,18.54 -29.39,41.2 -36.17,68.03 -6.78,26.84 -6.95,52.67 -0.46,77.49" /><path
         id="path28"
         style="fill:#eedbbf;fill-opacity:1;fill-rule:nonzero;stroke:none"
         d="m 2799.71,1593.15 c 11.86,22.44 28.55,40.13 50.02,53.11 21.48,12.99 45.64,19.71 72.52,20.14 26.87,0.42 51.24,-5.49 73.13,-17.79 21.87,-12.28 39.12,-29.49 51.71,-51.65 12.61,-22.14 19.12,-47.05 19.58,-74.7 0.33,-20.75 -2.81,-39.96 -9.45,-57.64 -6.64,-17.67 -16.5,-32.72 -29.59,-45.18 l -19.06,18.46 c 21.73,22.16 32.32,49.88 31.78,83.13 -0.36,22.08 -5.75,42.08 -16.15,60.01 -10.41,17.92 -24.45,31.86 -42.18,41.81 -17.73,9.97 -37.5,14.77 -59.31,14.42 -21.81,-0.35 -41.41,-5.81 -58.81,-16.31 -17.39,-10.53 -30.98,-24.93 -40.8,-43.18 -9.83,-18.25 -14.55,-38.42 -14.2,-60.5 0.55,-33.52 12.18,-60.86 34.86,-82.05 l -18.44,-19.06 c -13.5,12.03 -23.93,26.82 -31.25,44.39 -7.35,17.58 -11.18,36.75 -11.51,57.49 -0.46,27.68 5.27,52.71 17.15,75.1" /><path
         id="path30"
         style="fill:#eedbbf;fill-opacity:1;fill-rule:nonzero;stroke:none"
         d="m 2776.84,1180.73 c 5.72,-19.6 16.04,-36.33 31,-50.17 14.97,-13.81 33.09,-23.18 54.34,-28.09 21.26,-4.91 41.64,-4.43 61.16,1.44 19.51,5.89 36.14,16.37 49.88,31.5 13.73,15.13 23.07,33.44 28.03,54.96 4.97,21.52 4.62,42.14 -1.07,61.89 -5.68,19.74 -15.98,36.6 -30.92,50.54 -14.94,13.97 -33.04,23.41 -54.29,28.3 -21.27,4.91 -41.66,4.37 -61.2,-1.62 -19.54,-6.01 -36.19,-16.65 -49.96,-31.9 -13.76,-15.25 -23.12,-33.63 -28.1,-55.15 -4.95,-21.51 -4.57,-42.07 1.13,-61.7 z m 8.22,136.74 c 17.1,19.15 37.58,32.42 61.43,39.89 23.84,7.47 48.86,8.18 75.03,2.13 26.18,-6.04 48.37,-17.65 66.51,-34.8 18.15,-17.16 30.74,-38.08 37.73,-62.78 6.99,-24.68 7.39,-50.5 1.16,-77.47 -6.22,-26.95 -17.81,-49.88 -34.73,-68.78 -16.91,-18.89 -37.37,-32.13 -61.36,-39.68 -24.02,-7.57 -49.11,-8.34 -75.29,-2.29 -26.18,6.04 -48.4,17.73 -66.65,35.04 -18.25,17.34 -30.84,38.19 -37.77,62.58 -6.93,24.41 -7.29,50.09 -1.06,77.05 6.22,26.95 17.89,50.01 35,69.11" /><path
         id="path32"
         style="fill:#eedbbf;fill-opacity:1;fill-rule:nonzero;stroke:none"
         d="m 2760.09,913.809 -50.47,-91.579 -21.66,11.95 50.46,91.582 21.67,-11.953" /><path
         id="path34"
         style="fill:#eedbbf;fill-opacity:1;fill-rule:nonzero;stroke:none"
         d="m 2486.3,692.922 c 24.16,7.68 48.46,8.637 72.89,2.848 24.43,-5.758 46.37,-17.891 65.86,-36.411 19.48,-18.5 32.74,-39.808 39.75,-63.91 7.01,-24.078 7.26,-48.437 0.75,-73.078 -6.51,-24.641 -19.29,-46.992 -38.35,-67.051 -14.3,-15.039 -30.01,-26.55 -47.11,-34.519 -17.11,-7.973 -34.69,-11.801 -52.78,-11.512 l -0.68,26.512 c 31.04,0.609 58.01,12.969 80.9,37.078 15.21,16.031 25.39,34.07 30.53,54.152 5.12,20.078 4.85,39.867 -0.83,59.391 -5.68,19.519 -16.42,36.789 -32.24,51.816 -15.83,15.024 -33.62,24.864 -53.41,29.543 -19.77,4.668 -39.56,3.918 -59.35,-2.242 -19.81,-6.141 -37.29,-17.23 -52.5,-33.238 -23.1,-24.301 -33.96,-51.981 -32.59,-82.981 l -26.53,-0.691 c -1.21,18.043 1.72,35.902 8.8,53.582 7.07,17.687 17.75,34.051 32.05,49.09 19.06,20.058 40.66,33.937 64.84,41.621" /><path
         id="path36"
         style="fill:#eedbbf;fill-opacity:1;fill-rule:nonzero;stroke:none"
         d="m 2182.54,411.98 c -9.51,-18.089 -13.69,-37.3 -12.54,-57.628 1.16,-20.352 7.67,-39.661 19.58,-57.973 11.88,-18.289 26.88,-32.09 44.99,-41.43 18.12,-9.32 37.37,-13.32 57.74,-11.988 20.4,1.348 39.85,8.027 58.35,20.059 18.54,12.05 32.61,27.14 42.22,45.281 9.64,18.148 13.93,37.437 12.86,57.847 -1.04,20.422 -7.51,39.774 -19.39,58.063 -11.88,18.289 -26.93,32.09 -45.16,41.328 -18.22,9.262 -37.6,13.172 -58.1,11.762 -20.49,-1.422 -39.99,-8.141 -58.51,-20.172 -18.52,-12.027 -32.53,-27.07 -42.04,-45.149 z m 100.89,92.661 c 25.59,1.871 49.57,-2.789 71.89,-13.961 22.33,-11.2 40.83,-28.051 55.46,-50.59 14.65,-22.539 22.54,-46.281 23.68,-71.231 1.15,-24.968 -4.35,-48.757 -16.46,-71.379 -12.11,-22.621 -29.78,-41.468 -52.98,-56.539 -23.2,-15.062 -47.44,-23.531 -72.75,-25.359 -25.3,-1.832 -49.21,2.848 -71.73,14.078 -22.51,11.219 -41.1,28.102 -55.73,50.629 -14.65,22.539 -22.51,46.391 -23.61,71.531 -1.11,25.129 4.32,48.899 16.29,71.25 11.96,22.371 29.55,41.071 52.75,56.16 23.2,15.071 47.59,23.54 73.19,25.411" /><path
         id="path38"
         style="fill:#eedbbf;fill-opacity:1;fill-rule:nonzero;stroke:none"
         d="m 1994.06,346.219 c 25.02,-4.27 47.03,-14.59 66.07,-30.918 19.05,-16.36 32.98,-37.211 41.78,-62.602 8.82,-25.39 10.8,-50.398 5.97,-75.019 -4.83,-24.641 -15.79,-46.379 -32.9,-65.282 -17.09,-18.8863 -38.69,-32.8667 -64.85,-41.9488 -19.6,-6.8008 -38.83,-9.8008 -57.69,-9.0273 -18.85,0.789 -36.25,5.4492 -52.16,14.0078 l 11.57,23.8594 c 27.84,-13.7071 57.47,-15.0977 88.89,-4.1993 20.87,7.2422 38.19,18.6012 51.96,34.0702 13.78,15.5 22.63,33.211 26.55,53.141 3.91,19.961 2.29,40.25 -4.85,60.847 -7.15,20.602 -18.45,37.524 -33.87,50.75 -15.44,13.243 -33.36,21.672 -53.77,25.293 -20.39,3.618 -41.04,1.809 -61.89,-5.429 -31.67,-10.992 -54.02,-30.571 -67.07,-58.75 l -23.86,11.566 c 7.2,16.594 18,31.094 32.4,43.551 14.42,12.473 31.42,22.101 51.02,28.91 26.14,9.07 51.71,11.461 76.7,7.18" /><path
         id="path40"
         style="fill:#eedbbf;fill-opacity:1;fill-rule:nonzero;stroke:none"
         d="m 1595.61,236.742 c -16.78,-11.672 -29.35,-26.781 -37.67,-45.39 -8.36,-18.582 -11.48,-38.743 -9.35,-60.454 2.11,-21.699 9.06,-40.8863 20.84,-57.5074 11.8,-16.6289 27.03,-29.0312 45.74,-37.2304 18.7,-8.1993 39.06,-11.2383 61.03,-9.1016 21.98,2.1523 41.41,9.0625 58.33,20.7305 16.9,11.6718 29.59,26.8203 38.06,45.4297 8.49,18.6012 11.67,38.7422 9.55,60.4722 -2.12,21.7 -9.13,40.868 -21.06,57.481 -11.9,16.617 -27.28,29.019 -46.11,37.199 -18.86,8.199 -39.27,11.219 -61.24,9.078 -21.98,-2.148 -41.35,-9.058 -58.12,-20.707 z m 132.24,35.746 c 23.58,-10.129 42.7,-25.297 57.37,-45.527 14.67,-20.231 23.31,-43.699 25.91,-70.441 2.62,-26.739 -1.33,-51.461 -11.82,-74.1411 -10.47,-22.668 -26.3,-41.2695 -47.49,-55.75 -21.16,-14.5078 -45.53,-23.09765 -73.06,-25.789056 -27.53,-2.679684 -52.96,0.999996 -76.27,11.011756 -23.28,10.0273 -42.34,25.2187 -57.16,45.5468 -14.82,20.3633 -23.52,43.8906 -26.14,70.6326 -2.61,26.758 1.39,51.528 12,74.348 10.6,22.832 26.38,41.41 47.29,55.73 20.91,14.34 45.16,22.852 72.69,25.551 27.55,2.692 53.1,-1.039 76.68,-11.172" /><path
         id="path42"
         style="fill:#eedbbf;fill-opacity:1;fill-rule:nonzero;stroke:none"
         d="m 1337.53,166.84 -102.95,18.269 4.32,24.371 102.96,-18.269 -4.33,-24.371" /><path
         id="path44"
         style="fill:#eedbbf;fill-opacity:1;fill-rule:nonzero;stroke:none"
         d="m 1040.58,354.922 c 15.01,-20.442 23.7,-43.16 26.05,-68.152 2.35,-24.981 -2.12,-49.661 -13.41,-74.04 -11.3,-24.39 -27.23,-43.769 -47.82,-58.121 -20.568,-14.359 -43.576,-22.418 -69.002,-24.117 -25.418,-1.711 -50.683,3.238 -75.789,14.879 -18.832,8.719 -34.761,19.91 -47.789,33.559 -13.027,13.672 -22.285,29.09 -27.812,46.32 l 24.91,9.141 c 10.52,-29.219 30.859,-50.821 61.035,-64.782 20.039,-9.281 40.391,-13.148 61.055,-11.57 20.672,1.563 39.34,8.16 56.008,19.789 16.674,11.633 29.604,27.344 38.764,47.133 9.17,19.789 12.8,39.809 10.89,60.059 -1.91,20.222 -8.95,38.742 -21.13,55.519 -12.16,16.77 -28.255,29.801 -48.294,39.102 -30.422,14.089 -60.109,15.519 -89.055,4.281 l -9.132,24.91 c 16.699,6.93 34.55,9.887 53.574,8.848 19.015,-1.039 37.933,-5.93 56.765,-14.649 25.102,-11.64 45.172,-27.679 60.182,-48.109" /><path
         id="path46"
         style="fill:#eedbbf;fill-opacity:1;fill-rule:nonzero;stroke:none"
         d="m 677.031,553.289 c -20.168,3.25 -39.707,1.082 -58.621,-6.488 -18.918,-7.602 -35.148,-19.942 -48.695,-37.039 -13.547,-17.09 -21.86,-35.711 -24.93,-55.852 -3.058,-20.148 -0.707,-39.668 7.067,-58.558 7.769,-18.903 20.32,-35.192 37.621,-48.903 17.304,-13.738 36.093,-22.25 56.363,-25.597 20.277,-3.332 39.922,-1.25 58.934,6.257 19.019,7.52 35.3,19.821 48.847,36.903 13.559,17.097 21.809,35.769 24.774,56 2.964,20.218 0.5,39.828 -7.375,58.797 -7.875,18.98 -20.465,35.32 -37.782,49.031 -17.3,13.711 -36.039,22.211 -56.203,25.449 z m 119.996,-66.07 c 9.938,-23.66 13.172,-47.86 9.688,-72.598 -3.488,-24.742 -13.57,-47.633 -30.258,-68.691 -16.691,-21.059 -36.676,-36.11 -59.973,-45.16 -23.285,-9.028 -47.582,-11.418 -72.886,-7.161 -25.301,4.27 -48.797,15.012 -70.489,32.192 -21.683,17.168 -37.425,37.461 -47.238,60.847 -9.801,23.391 -12.984,47.551 -9.519,72.481 3.453,24.93 13.523,47.922 30.214,68.98 16.7,21.063 36.782,36.133 60.254,45.18 23.481,9.07 47.727,11.492 72.727,7.281 25.023,-4.199 48.371,-14.898 70.055,-32.09 21.683,-17.179 37.488,-37.601 47.425,-61.261" /><path
         id="path48"
         style="fill:#eedbbf;fill-opacity:1;fill-rule:nonzero;stroke:none"
         d="m 554.805,710.441 c 3.988,-25.05 1.3,-49.211 -8.051,-72.519 -9.356,-23.281 -24.629,-43.184 -45.844,-59.684 -21.207,-16.496 -44.242,-26.406 -69.117,-29.758 -24.879,-3.351 -49.008,0.051 -72.387,10.18 -23.379,10.11 -43.574,26.102 -60.566,47.942 -12.746,16.378 -21.777,33.609 -27.106,51.718 -5.312,18.121 -6.48,36.078 -3.504,53.91 l 26.325,-3.281 c -4.028,-30.777 4.16,-59.308 24.586,-85.551 13.554,-17.437 29.882,-30.179 48.972,-38.25 19.094,-8.066 38.707,-10.757 58.86,-8.046 20.144,2.699 38.832,10.73 56.05,24.136 17.219,13.403 29.614,29.524 37.176,48.403 7.574,18.847 9.793,38.539 6.66,59.031 -3.132,20.476 -11.476,39.437 -25.035,56.879 -20.59,26.449 -46.32,41.32 -77.191,44.609 l 3.289,26.301 c 18.019,-1.473 35.238,-7.031 51.668,-16.66 16.43,-9.641 31.008,-22.641 43.754,-39.02 17,-21.851 27.488,-45.301 31.461,-70.34" /><path
         id="path50"
         style="fill:#eedbbf;fill-opacity:1;fill-rule:nonzero;stroke:none"
         d="m 322.555,1052.94 c -16.442,12.12 -34.793,19.15 -55.094,21.06 -20.281,1.92 -40.359,-1.62 -60.242,-10.61 -19.875,-9.01 -35.785,-21.75 -47.739,-38.27 -11.945,-16.5 -18.789,-34.94 -20.527,-55.288 -1.738,-20.352 1.945,-40.582 11.051,-60.703 9.101,-20.117 21.898,-36.289 38.391,-48.547 16.503,-12.23 34.918,-19.391 55.257,-21.41 20.344,-2.043 40.457,1.437 60.328,10.43 19.872,9.007 35.762,21.796 47.653,38.429 11.902,16.629 18.687,35.188 20.375,55.668 1.683,20.473 -2.031,40.762 -11.137,60.881 -9.101,20.11 -21.879,36.23 -38.316,48.36 z m 76.429,-113.698 c -2.007,-25.57 -10.214,-48.57 -24.636,-68.961 -14.422,-20.39 -33.868,-36.152 -58.36,-47.222 -24.472,-11.09 -49.14,-15.309 -73.988,-12.668 -24.836,2.621 -47.527,11.609 -68.066,27.007 -20.551,15.383 -36.524,35.672 -47.938,60.872 -11.402,25.199 -16.105,50.46 -14.129,75.742 2,25.289 10.238,48.218 24.723,68.798 14.496,20.58 33.973,36.4 58.453,47.47 24.484,11.09 49.234,15.27 74.25,12.59 25.023,-2.69 47.691,-11.64 67.992,-26.83 20.32,-15.19 36.18,-35.39 47.582,-60.59 11.414,-25.22 16.117,-50.61 14.117,-76.208" /><path
         id="path52"
         style="fill:#eedbbf;fill-opacity:1;fill-rule:nonzero;stroke:none"
         d="m 174.004,1274.81 -15.469,103.43 24.469,3.64 15.465,-103.4 -24.465,-3.67" /><path
         id="path54"
         style="fill:#eedbbf;fill-opacity:1;fill-rule:nonzero;stroke:none"
         d="m 257.348,1616.69 c -14.516,-20.81 -33.223,-36.33 -56.125,-46.61 -22.899,-10.28 -47.703,-13.99 -74.422,-11.14 -26.723,2.83 -50.1955,11.68 -70.4221,26.56 -20.2266,14.85 -35.2383,34.04 -45.0508,57.56 -9.80076,23.51 -13.24607,49.02 -10.32029,76.55 2.19532,20.63 7.66797,39.31 16.39849,56.04 8.7382,16.73 20.371,30.47 34.8867,41.25 l 16.6679,-20.65 c -24.2656,-19.35 -38.1562,-45.57 -41.6718,-78.63 -2.3399,-21.98 0.5742,-42.48 8.707,-61.54 8.1367,-19.06 20.3945,-34.6 36.7734,-46.65 16.375,-12.05 35.4145,-19.21 57.1095,-21.52 21.695,-2.31 41.816,0.69 60.359,9.03 18.539,8.33 33.801,20.94 45.77,37.88 11.965,16.91 19.113,36.35 21.441,58.3 3.551,33.34 -4.648,61.91 -24.594,85.7 l 20.641,16.66 c 11.934,-13.56 20.469,-29.52 25.606,-47.86 5.14,-18.35 6.617,-37.83 4.421,-58.47 -2.933,-27.51 -11.652,-51.67 -26.175,-72.46" /><path
         id="path56"
         style="fill:#eedbbf;fill-opacity:1;fill-rule:nonzero;stroke:none"
         d="m 328.129,2024.43 c -3.402,20.14 -11.727,37.95 -24.981,53.42 -13.253,15.48 -30.152,26.88 -50.703,34.23 -20.539,7.34 -40.836,9.24 -60.91,5.68 -20.058,-3.58 -37.789,-12.07 -53.187,-25.49 -15.387,-13.43 -26.801,-30.55 -34.243,-51.34 -7.4253,-20.79 -9.4683,-41.33 -6.1167,-61.6 3.3517,-20.26 11.6327,-38.2 24.8357,-53.79 13.215,-15.6 30.102,-27.07 50.641,-34.42 20.539,-7.34 40.871,-9.17 60.973,-5.49 20.109,3.68 37.882,12.32 53.324,25.87 15.437,13.56 26.875,30.73 34.301,51.52 7.441,20.79 9.46,41.26 6.066,61.41 z m -24.055,-134.87 c -19.219,-17 -41.097,-27.84 -65.644,-32.48 -24.543,-4.64 -49.461,-2.44 -74.778,6.6 -25.304,9.05 -45.968,23.16 -62.011,42.3 -16.0433,19.15 -26.0941,41.39 -30.184,66.74 -4.0781,25.32 -1.4687,51.02 7.8555,77.07 9.3125,26.06 23.4725,47.49 42.4725,64.28 18.996,16.8 40.86,27.58 65.57,32.3 24.719,4.72 49.735,2.56 75.04,-6.47 25.3,-9.05 46.007,-23.24 62.125,-42.56 16.128,-19.33 26.21,-41.51 30.257,-66.54 4.047,-25.04 1.403,-50.59 -7.91,-76.64 -9.312,-26.06 -23.574,-47.6 -42.793,-64.6" /><path
         id="path58"
         style="fill:#eedbbf;fill-opacity:1;fill-rule:nonzero;stroke:none"
         d="m 438.117,2190.76 c -22.465,-11.78 -46.238,-16.94 -71.293,-15.49 -25.054,1.44 -48.777,9.58 -71.179,24.44 -22.399,14.83 -39.153,33.5 -50.243,56.01 -11.101,22.52 -15.578,46.47 -13.433,71.86 2.144,25.38 10.851,49.61 26.136,72.69 11.458,17.29 24.93,31.36 40.391,42.18 15.465,10.8 32.121,17.64 49.965,20.5 l 5.285,-26 c -30.465,-5.99 -54.875,-22.84 -73.25,-50.56 -12.191,-18.42 -19.07,-37.96 -20.641,-58.62 -1.562,-20.67 2.141,-40.13 11.133,-58.35 8.981,-18.23 22.567,-33.38 40.742,-45.43 18.188,-12.05 37.426,-18.67 57.727,-19.81 20.289,-1.16 39.652,3 58.078,12.51 18.418,9.49 33.723,23.43 45.918,41.84 18.52,27.95 24.418,57.08 17.688,87.38 l 25.992,5.29 c 4.336,-17.57 4.555,-35.65 0.652,-54.29 -3.89,-18.65 -11.57,-36.63 -23.035,-53.92 -15.285,-23.08 -34.156,-40.47 -56.633,-52.23" /><path
         id="path60"
         style="fill:#eedbbf;fill-opacity:1;fill-rule:nonzero;stroke:none"
         d="m 688.496,2520.09 c 6.223,19.45 7,39.1 2.328,58.93 -4.679,19.83 -14.461,37.73 -29.34,53.69 -14.879,15.93 -32.054,26.94 -51.511,32.98 -19.469,6.03 -39.121,6.61 -58.953,1.77 -19.844,-4.87 -37.844,-14.84 -53.981,-29.91 -16.156,-15.06 -27.387,-32.35 -33.711,-51.91 -6.324,-19.55 -7.199,-39.27 -2.621,-59.21 4.578,-19.91 14.316,-37.85 29.195,-53.81 14.879,-15.94 32.098,-26.91 51.661,-32.84 19.558,-5.97 39.308,-6.45 59.242,-1.49 19.933,4.95 37.976,14.96 54.125,30.02 16.148,15.07 27.332,32.32 33.566,51.78 z m -83.258,-108.77 c -24.879,-6.31 -49.289,-5.89 -73.23,1.27 -23.942,7.11 -45.07,20.51 -63.406,40.16 -18.332,19.64 -30.235,41.66 -35.688,66.05 -5.461,24.36 -4.191,48.75 3.809,73.14 7.992,24.37 22.109,46.01 42.347,64.88 20.227,18.88 42.641,31.41 67.235,37.63 24.586,6.2 48.953,5.72 73.082,-1.42 24.129,-7.14 45.367,-20.53 63.687,-40.18 18.332,-19.64 30.227,-41.76 35.68,-66.32 5.461,-24.58 4.234,-48.9 -3.664,-73 -7.899,-24.12 -21.953,-45.59 -42.192,-64.47 -20.238,-18.89 -42.785,-31.46 -67.66,-37.74" /><path
         id="path62"
         style="fill:#eedbbf;fill-opacity:1;fill-rule:nonzero;stroke:none"
         d="m 850.965,2732.18 92.914,47.96 11.351,-22 -92.914,-47.94 -11.351,21.98" /><path
         id="path64"
         style="fill:#eedbbf;fill-opacity:1;fill-rule:nonzero;stroke:none"
         d="m 2016.23,1814.88 c -14.39,-22.06 -31.08,-43.09 -50.5,-62.51 -130.24,-130.24 -311.52,-130.24 -424.74,-243.47 -105.9,-105.89 -97.1,-250.21 -194.78,-347.89 -45.58,-45.58 -86.13,-77.32 -144.87,-100.13 172.7,-82.9 428.84,-16 621.24,176.4 176.78,176.77 247.61,407.36 193.65,577.6" /><path
         id="path66"
         style="fill:#eedbbf;fill-opacity:1;fill-rule:nonzero;stroke:none"
         d="m 1237.09,1233.17 c 102.96,102.96 70.4,234.08 167.2,330.88 130.24,130.24 334.11,139.33 445.87,251.09 43.26,43.26 64.67,88.73 73,142.92 -166.73,144.07 -469.77,88.05 -689.59,-131.77 -219.58,-219.59 -275.715,-522.21 -132.22,-689.05 46.98,23.32 91.83,52.02 135.74,95.93" /></g></g></svg>