<?xml version="1.0" encoding="utf-8"?>
<!-- Generator: Adobe Illustrator 27.2.0, SVG Export Plug-In . SVG Version: 6.00 Build 0)  -->
<svg version="1.1" id="Layer_1" xmlns="http://www.w3.org/2000/svg" xmlns:xlink="http://www.w3.org/1999/xlink" x="0px" y="0px"
	 viewBox="0 0 32 32" style="enable-background:new 0 0 32 32;" xml:space="preserve">
<style type="text/css">
	.st0{fill:#160C0A;}
</style>
<g>
	<g>
		<path class="st0" d="M22.4,14.5h-9l2.9-2.9l0,0c0.6-0.6,0.6-1.6,0-2.2c-0.6-0.6-1.6-0.6-2.2,0l0,0l-5.4,5.4c0,0,0,0,0,0
			c-0.2,0.2-0.3,0.4-0.4,0.6c0,0,0,0,0,0.1c0,0,0,0.1,0,0.1c0,0,0,0,0,0.1c0,0,0,0.1,0,0.1c0,0,0,0,0,0c0,0,0,0,0,0
			c0,0.1,0,0.1,0,0.2c0,0,0,0,0,0c0,0,0,0.1,0,0.1c0,0,0,0.1,0,0.1c0,0,0,0,0,0.1c0.1,0.2,0.2,0.4,0.4,0.6c0,0,0,0,0,0l5.4,5.4
			c0.6,0.6,1.6,0.6,2.2,0c0.6-0.6,0.6-1.6,0-2.2l-2.9-2.9h9c0.8,0,1.5-0.7,1.5-1.5v0C23.9,15.2,23.2,14.5,22.4,14.5z"/>
		<path class="st0" d="M16,0C7.2,0,0,7.2,0,16s7.2,16,16,16s16-7.2,16-16S24.8,0,16,0z M16,28.9C8.9,28.9,3.1,23.1,3.1,16
			S8.9,3.1,16,3.1S28.9,8.9,28.9,16S23.1,28.9,16,28.9z"/>
	</g>
</g>
</svg>
