<?xml version="1.0" encoding="utf-8"?>
<!-- Generator: Adobe Illustrator 27.2.0, SVG Export Plug-In . SVG Version: 6.00 Build 0)  -->
<svg version="1.1" id="Layer_1" xmlns="http://www.w3.org/2000/svg" xmlns:xlink="http://www.w3.org/1999/xlink" x="0px" y="0px"
	 viewBox="0 0 33.3 33.3" style="enable-background:new 0 0 33.3 33.3;" xml:space="preserve">
<style type="text/css">
	.st0{fill: #6f513e;}
</style>
<g>
	<path class="st0" d="M32.7,7.3c-0.5,0.7-1,1.4-1.7,2.1c-4.3,4.3-10.3,4.3-14,8c-3.5,3.5-3.2,8.2-6.4,11.5c-1.5,1.5-2.8,2.5-4.8,3.3
		c5.7,2.7,14.1,0.5,20.5-5.8C32.2,20.5,34.5,12.9,32.7,7.3z"/>
	<path class="st0" d="M7.1,26.5c3.4-3.4,2.3-7.7,5.5-10.9c4.3-4.3,11-4.6,14.7-8.3c1.4-1.4,2.1-2.9,2.4-4.7C24.2-2.1,14.2-0.3,7,7
		c-7.2,7.2-9.1,17.2-4.4,22.7C4.2,28.9,5.6,27.9,7.1,26.5z"/>
</g>
</svg>