<?xml version="1.0" encoding="utf-8"?>
<!-- Generator: Adobe Illustrator 27.2.0, SVG Export Plug-In . SVG Version: 6.00 Build 0)  -->
<svg version="1.1" id="Layer_1" xmlns="http://www.w3.org/2000/svg" xmlns:xlink="http://www.w3.org/1999/xlink" x="0px" y="0px"
	 viewBox="0 0 50 32" style="enable-background:new 0 0 50 32;" xml:space="preserve">
<style type="text/css">
	.st0{fill:#EDD8B5;}
</style>
<g>
	<path class="st0" d="M1.2,4.5c3.8-0.4,6.3-4,10.1-4.4c0.8-0.1,1.6-0.1,2.4,0c3.8,0.4,6.3,4,10.1,4.4c0.4,0,0.8,0.1,1.2,0.1
		s0.8,0,1.2-0.1c3.8-0.4,6.3-4,10.1-4.4c0.8-0.1,1.6-0.1,2.4,0c3.8,0.4,6.3,4,10.1,4.4c0.4,0,0.8,0.1,1.2,0.1c0,1.3,0,2.5,0,3.8
		c-0.5,0-1.1,0-1.6-0.1c-1.3-0.1-2.7-0.6-3.9-1.2c-0.5-0.2-1-0.5-1.5-0.8c-0.4-0.3-0.9-0.5-1.3-0.8C41.4,5.3,41,5,40.6,4.8
		c-0.3-0.2-0.6-0.4-0.9-0.5c-0.5-0.2-0.9-0.4-1.4-0.5c-0.5-0.1-1-0.1-1.5,0c-0.5,0.1-1,0.2-1.4,0.5c-0.3,0.2-0.6,0.3-0.9,0.5
		C34,5,33.6,5.3,33.3,5.5c-0.9,0.6-1.8,1.1-2.8,1.6c-1.2,0.6-2.5,1-3.9,1.2c-1.1,0.1-2.1,0.1-3.2,0c-1.3-0.1-2.7-0.6-3.9-1.2
		c-0.5-0.2-1-0.5-1.5-0.8c-0.4-0.3-0.9-0.5-1.3-0.8C16.4,5.3,16,5,15.6,4.8c-0.3-0.2-0.6-0.4-0.9-0.5c-0.5-0.2-0.9-0.4-1.4-0.5
		c-0.5-0.1-1-0.1-1.5,0c-0.5,0.1-1,0.2-1.4,0.5C10,4.5,9.7,4.6,9.4,4.8C9,5,8.6,5.3,8.3,5.5C7.4,6.1,6.5,6.6,5.5,7.1
		C4.3,7.7,3,8.1,1.6,8.2C1.1,8.3,0.5,8.3,0,8.3c0-1.3,0-2.5,0-3.8C0.4,4.5,0.8,4.5,1.2,4.5z"/>
	<path class="st0" d="M13.2,27.5c0.5,0.1,1,0.2,1.4,0.5c0.3,0.2,0.6,0.3,0.9,0.5c0.4,0.2,0.7,0.4,1.1,0.7c0.4,0.3,0.9,0.5,1.3,0.8
		c0.5,0.3,1,0.6,1.5,0.8c1.2,0.6,2.5,1,3.9,1.2c1.1,0.1,2.1,0.1,3.2,0c1.3-0.1,2.7-0.6,3.9-1.2c1-0.5,1.9-1,2.8-1.6
		c0.4-0.2,0.7-0.5,1.1-0.7c0.3-0.2,0.6-0.4,0.9-0.5c0.5-0.2,0.9-0.4,1.4-0.5c0.5-0.1,1-0.1,1.5,0c0.5,0.1,1,0.2,1.4,0.5
		c0.3,0.2,0.6,0.3,0.9,0.5c0.4,0.2,0.7,0.4,1.1,0.7c0.4,0.3,0.9,0.5,1.3,0.8c0.5,0.3,1,0.6,1.5,0.8c1.2,0.6,2.5,1,3.9,1.2
		C48.9,32,49.5,32,50,32c0-1.3,0-2.5,0-3.8c-0.4,0-0.8,0-1.2-0.1c-3.8-0.4-6.3-4-10.1-4.4c-0.8-0.1-1.6-0.1-2.4,0
		c-3.8,0.4-6.3,4-10.1,4.4c-0.4,0-0.8,0.1-1.2,0.1s-0.8,0-1.2-0.1c-3.8-0.4-6.3-4-10.1-4.4c-0.8-0.1-1.6-0.1-2.4,0
		c-3.8,0.4-6.3,4-10.1,4.4c-0.4,0-0.8,0.1-1.2,0.1c0,1.3,0,2.5,0,3.8c0.5,0,1.1,0,1.6-0.1c1.3-0.1,2.7-0.6,3.9-1.2
		c1-0.5,1.9-1,2.8-1.6C8.6,29,9,28.7,9.4,28.5c0.3-0.2,0.6-0.4,0.9-0.5c0.5-0.2,0.9-0.4,1.4-0.5C12.3,27.5,12.7,27.5,13.2,27.5z"/>
	<path class="st0" d="M13.2,15.7c0.5,0.1,1,0.2,1.4,0.5c0.3,0.2,0.6,0.3,0.9,0.5c0.4,0.2,0.7,0.4,1.1,0.7c0.4,0.3,0.9,0.5,1.3,0.8
		c0.5,0.3,1,0.6,1.5,0.8c1.2,0.6,2.5,1,3.9,1.2c1.1,0.1,2.1,0.1,3.2,0c1.3-0.1,2.7-0.6,3.9-1.2c1-0.5,1.9-1,2.8-1.6
		c0.4-0.2,0.7-0.5,1.1-0.7c0.3-0.2,0.6-0.4,0.9-0.5c0.5-0.2,0.9-0.4,1.4-0.5c0.5-0.1,1-0.1,1.5,0c0.5,0.1,1,0.2,1.4,0.5
		c0.3,0.2,0.6,0.3,0.9,0.5c0.4,0.2,0.7,0.4,1.1,0.7c0.4,0.3,0.9,0.5,1.3,0.8c0.5,0.3,1,0.6,1.5,0.8c1.2,0.6,2.5,1,3.9,1.2
		c0.5,0.1,1.1,0.1,1.6,0.1c0-1.3,0-2.5,0-3.8c-0.4,0-0.8,0-1.2-0.1c-3.8-0.4-6.3-4-10.1-4.4c-0.8-0.1-1.6-0.1-2.4,0
		c-3.8,0.4-6.3,4-10.1,4.4c-0.4,0-0.8,0.1-1.2,0.1s-0.8,0-1.2-0.1c-3.8-0.4-6.3-4-10.1-4.4c-0.8-0.1-1.6-0.1-2.4,0
		c-3.8,0.4-6.3,4-10.1,4.4c-0.4,0-0.8,0.1-1.2,0.1c0,1.3,0,2.5,0,3.8c0.5,0,1.1,0,1.6-0.1c1.3-0.1,2.7-0.6,3.9-1.2
		c1-0.5,1.9-1,2.8-1.6c0.4-0.2,0.7-0.5,1.1-0.7c0.3-0.2,0.6-0.4,0.9-0.5c0.5-0.2,0.9-0.4,1.4-0.5C12.3,15.6,12.7,15.6,13.2,15.7z"/>
</g>
</svg>
