<?xml version="1.0" encoding="utf-8"?>
<!-- Generator: Adobe Illustrator 27.2.0, SVG Export Plug-In . SVG Version: 6.00 Build 0)  -->
<svg version="1.1"
	 id="svg2" xmlns:rdf="http://www.w3.org/1999/02/22-rdf-syntax-ns#" xmlns:cc="http://creativecommons.org/ns#" xmlns:svg="http://www.w3.org/2000/svg" xmlns:dc="http://purl.org/dc/elements/1.1/"
	 xmlns="http://www.w3.org/2000/svg" xmlns:xlink="http://www.w3.org/1999/xlink" x="0px" y="0px" viewBox="0 0 1578.5 558.4"
	 style="enable-background:new 0 0 1578.5 558.4;" xml:space="preserve">
<style type="text/css">
	.st0{enable-background:new    ;}
	.st1{fill:#EEDBBF;}
</style>
<g id="g10" transform="matrix(1.3333333,0,0,-1.3333333,0,558.36)">
	<g id="g12" transform="scale(0.1)">
		<g id="g14" transform="scale(10)">
			<g class="st0">
				<path class="st1" d="M976.6,404.9h-4.6v2.7h12.6v-2.7h-4.6v-11.7h-3.3V404.9z"/>
			</g>
			<g class="st0">
				<path class="st1" d="M999.4,393.2l0,8.6l-4.2-7.1h-1.5l-4.2,6.9v-8.5h-3.1v14.4h2.8l5.4-9l5.3,9h2.7l0-14.4H999.4z"/>
			</g>
		</g>
		<path id="path20" class="st1" d="M249.3,2584v-31.2H10.2v24.8l141.7,138.8c17.8,17.5,29.9,32.7,36.3,45.5
			c6.3,12.8,9.5,25.7,9.5,38.7c0,20.1-6.9,35.8-20.7,47c-13.8,11.2-33.5,16.8-59.2,16.8c-39.9,0-70.9-12.7-93-38L0,2847.9
			c13.3,15.6,30.3,27.6,50.9,36c20.6,8.4,43.9,12.7,69.9,12.7c34.7,0,62.2-8.2,82.5-24.6c20.3-16.4,30.4-38.9,30.4-67.4
			c0-17.5-3.9-34.4-11.7-50.6c-7.8-16.2-22.6-34.9-44.3-56L61.8,2584H249.3"/>
		<path id="path22" class="st1" d="M479.4,2598.6c15.1,11,26.9,27.1,35.3,48.2c8.4,21.1,12.7,46.6,12.7,76.4
			c0,29.9-4.2,55.4-12.7,76.4c-8.5,21.1-20.2,37.2-35.3,48.2c-15.1,11-32.6,16.6-52.3,16.6c-19.8,0-37.3-5.5-52.4-16.6
			c-15.1-11-26.9-27.1-35.3-48.2c-8.4-21.1-12.7-46.6-12.7-76.4c0-29.9,4.2-55.4,12.7-76.4c8.4-21.1,20.2-37.2,35.3-48.2
			c15.1-11,32.5-16.6,52.4-16.6C446.8,2582.1,464.3,2587.6,479.4,2598.6z M356.7,2570.9c-20.6,13.9-36.7,34-48.2,60.1
			c-11.5,26.1-17.3,56.9-17.3,92.3c0,35.4,5.8,66.1,17.3,92.3c11.5,26.1,27.6,46.2,48.2,60.1c20.6,14,44.1,20.9,70.4,20.9
			c26.3,0,49.7-7,70.4-20.9c20.6-14,36.8-34,48.5-60.1c11.7-26.1,17.5-56.9,17.5-92.3c0-35.4-5.8-66.1-17.5-92.3
			c-11.7-26.1-27.8-46.2-48.5-60.1c-20.6-14-44.1-20.9-70.4-20.9C400.7,2549.9,377.3,2556.9,356.7,2570.9"/>
		<path id="path24" class="st1" d="M845.3,2584v-31.2H606.2v24.8l141.7,138.8c17.8,17.5,29.9,32.7,36.3,45.5
			c6.3,12.8,9.5,25.7,9.5,38.7c0,20.1-6.9,35.8-20.7,47c-13.8,11.2-33.5,16.8-59.2,16.8c-39.9,0-70.9-12.7-93-38l-24.8,21.4
			c13.3,15.6,30.3,27.6,50.9,36c20.6,8.4,43.9,12.7,69.9,12.7c34.7,0,62.2-8.2,82.5-24.6c20.3-16.4,30.4-38.9,30.4-67.4
			c0-17.5-3.9-34.4-11.7-50.6c-7.8-16.2-22.6-34.9-44.3-56L657.8,2584H845.3"/>
		<path id="path26" class="st1" d="M1121.9,2584v-31.2H882.8v24.8l141.7,138.8c17.8,17.5,29.9,32.7,36.3,45.5
			c6.3,12.8,9.5,25.7,9.5,38.7c0,20.1-6.9,35.8-20.7,47c-13.8,11.2-33.5,16.8-59.2,16.8c-39.9,0-70.9-12.7-93-38l-24.8,21.4
			c13.3,15.6,30.3,27.6,50.9,36c20.6,8.4,43.9,12.7,69.9,12.7c34.7,0,62.2-8.2,82.5-24.6c20.3-16.4,30.4-38.9,30.4-67.4
			c0-17.5-3.9-34.4-11.7-50.6c-7.8-16.2-22.6-34.9-44.3-56L934.4,2584H1121.9"/>
		<path id="path28" class="st1" d="M10973.4,2584v-31.2h-239.1v24.8l141.7,138.8c17.8,17.5,29.9,32.7,36.3,45.5
			c6.3,12.8,9.5,25.7,9.5,38.7c0,20.1-6.9,35.8-20.7,47s-33.6,16.8-59.2,16.8c-39.9,0-70.9-12.7-93-38l-24.8,21.4
			c13.3,15.6,30.2,27.6,50.9,36c20.6,8.4,43.9,12.7,69.8,12.7c34.8,0,62.3-8.2,82.6-24.6c20.3-16.4,30.4-38.9,30.4-67.4
			c0-17.5-3.9-34.4-11.7-50.6c-7.8-16.2-22.6-34.9-44.3-56l-115.9-113.9H10973.4"/>
		<path id="path30" class="st1" d="M11203.5,2598.6c15,11,26.8,27.1,35.3,48.2c8.4,21.1,12.6,46.6,12.6,76.4
			c0,29.9-4.2,55.4-12.6,76.4c-8.5,21.1-20.3,37.2-35.3,48.2c-15.1,11-32.6,16.6-52.4,16.6c-19.8,0-37.2-5.5-52.3-16.6
			c-15.1-11-26.9-27.1-35.3-48.2c-8.5-21.1-12.7-46.6-12.7-76.4c0-29.9,4.2-55.4,12.7-76.4c8.4-21.1,20.2-37.2,35.3-48.2
			c15.1-11,32.5-16.6,52.3-16.6S11188.4,2587.6,11203.5,2598.6z M11080.7,2570.9c-20.6,13.9-36.6,34-48.2,60.1
			c-11.5,26.1-17.2,56.9-17.2,92.3c0,35.4,5.7,66.1,17.2,92.3c11.6,26.1,27.6,46.2,48.2,60.1c20.7,14,44.1,20.9,70.4,20.9
			c26.3,0,49.8-7,70.4-20.9c20.6-14,36.7-34,48.4-60.1c11.7-26.1,17.5-56.9,17.5-92.3c0-35.4-5.8-66.1-17.5-92.3
			c-11.7-26.1-27.8-46.2-48.4-60.1c-20.6-14-44.1-20.9-70.4-20.9C11124.8,2549.9,11101.4,2556.9,11080.7,2570.9"/>
		<path id="path32" class="st1" d="M11569.4,2584v-31.2h-239.1v24.8l141.7,138.8c17.8,17.5,29.9,32.7,36.3,45.5
			c6.3,12.8,9.5,25.7,9.5,38.7c0,20.1-6.9,35.8-20.7,47s-33.6,16.8-59.2,16.8c-39.9,0-70.9-12.7-93-38l-24.8,21.4
			c13.3,15.6,30.2,27.6,50.9,36c20.6,8.4,43.8,12.7,69.8,12.7c34.8,0,62.3-8.2,82.6-24.6c20.2-16.4,30.4-38.9,30.4-67.4
			c0-17.5-3.9-34.4-11.7-50.6c-7.8-16.2-22.6-34.9-44.3-56l-115.9-113.9H11569.4"/>
		<path id="path34" class="st1" d="M11810.6,2718.6c18.7-17.4,28-40,28-67.9c0-19.5-4.7-36.8-14.1-51.9c-9.4-15.1-23.3-27-41.8-35.8
			c-18.6-8.8-41.1-13.1-67.7-13.1c-24.7,0-48,4-69.9,11.9c-21.9,7.9-39.5,18.6-52.8,31.9l17,27.8c11.4-11.7,26.5-21.2,45.3-28.5
			c18.8-7.3,38.9-11,60.4-11c27.9,0,49.5,6.1,64.7,18.3c15.3,12.2,22.9,29,22.9,50.4c0,21.1-7.6,37.6-22.9,49.7
			c-15.2,12-38.3,18-69.1,18h-24.4v25.8l94.5,118.3h-174.3v31.2h219.1v-24.8l-96.4-121.2C11764.8,2745.7,11792,2736,11810.6,2718.6"
			/>
		<path id="path36" class="st1" d="M7836.7,3616.4c75.7,0,151.4,0,227,0c-98.6,369.7-453.8,610.8-833.8,565.9
			c-380-44.9-669.2-362.2-678.9-744.6c-9.7-382.5,263.1-714,640.3-778.1c377.2-64.1,744.2,158.6,861.4,522.8
			c-103.4,0-206.7,0-310.1,0c21.8-106.8,35.1-245.1-18.5-351.4c-65.5-130-195.5-124.2-309.3-69.5
			c-202.8,97.5-375.2,338.7-468.5,526.2c-80.3,161.4-200,493.4-93.9,687.5c69.6,127.3,202.3,113.9,313,58.4
			c111.9-56.1,193.2-136.1,271.3-229.9C7535.6,3685,7682.1,3616.4,7836.7,3616.4"/>
		<path id="path38" class="st1" d="M9446.2,3664.1c-26.2-150.3-79.6-284.1-152.7-416.6c-73-132.4-157.6-248.9-270.7-351.2
			c-89.6-81-259-208-398.5-131.1c-139.4,76.9-122.5,287.8-101.8,406.7c26.2,150.3,79.6,284.1,152.7,416.6
			c73,132.4,157.6,248.9,270.7,351.1c89.6,81,259,208,398.5,131.1C9483.9,3993.9,9466.9,3783,9446.2,3664.1z M9690.8,3723.1
			c-168.5,390.1-621.3,569.8-1011.5,401.3C8289.2,3956,8109.5,3503.1,8278,3113c168.5-390.1,621.3-569.8,1011.5-401.3
			C9679.6,2880.2,9859.3,3333,9690.8,3723.1"/>
		<path id="path40" class="st1" d="M4818.9,2979.6c-39.3-114.1-126.3-307-285.5-307c-159.4,0-246.3,193-285.6,307.2
			c-49.6,144.2-67.5,287-67.5,438.2c0,151.3,17.8,294.2,67.5,438.5c39.3,114.1,126.3,307,285.5,307c159.3,0,246.3-193.1,285.6-307.2
			c49.6-144.2,67.5-287,67.5-438.2C4886.4,3266.7,4868.6,3123.8,4818.9,2979.6L4818.9,2979.6z M5239.7,3723.1
			c-168.5,390.1-621.4,569.8-1011.5,401.3c-390.1-168.5-569.8-621.4-401.3-1011.5c168.5-390.1,621.4-569.8,1011.5-401.3
			S5408.2,3333,5239.7,3723.1"/>
		<path id="path42" class="st1" d="M3385.6,3616.4c75.7,0,151.4,0,227,0c-98.6,369.7-453.8,610.8-833.8,565.9
			s-669.2-362.2-678.9-744.6c-9.7-382.5,263.1-714,640.3-778.1c377.2-64.1,744.2,158.6,861.4,522.8c-103.4,0-206.7,0-310.1,0
			c21.8-106.8,35.1-245.1-18.5-351.4c-65.5-130-195.5-124.2-309.3-69.5c-202.8,97.5-375.2,338.7-468.5,526.2
			c-80.3,161.4-199.9,493.4-93.9,687.5c69.6,127.3,202.3,113.9,313,58.4c111.9-56.1,193.2-136.1,271.3-229.9
			C3084.5,3685,3231.1,3616.4,3385.6,3616.4"/>
		<path id="path44" class="st1" d="M6215.9,3565.4c-7.5-11.5-16.2-22.4-26.3-32.5c-67.8-67.8-162.1-67.8-221-126.7
			c-55.1-55.1-50.5-130.2-101.4-181c-23.7-23.7-44.8-40.2-75.4-52.1c89.9-43.1,223.2-8.3,323.3,91.8
			C6207.1,3356.8,6244,3476.8,6215.9,3565.4"/>
		<path id="path46" class="st1" d="M5810.4,3262.7c53.6,53.6,36.6,121.8,87,172.2c67.8,67.8,173.9,72.5,232,130.7
			c22.5,22.5,33.7,46.2,38,74.4c-86.8,75-244.5,45.8-358.9-68.6c-114.3-114.3-143.5-271.8-68.8-358.6
			C5764.3,3224.9,5787.6,3239.8,5810.4,3262.7"/>
		<path id="path48" class="st1" d="M3883.4,1772.2c-15.2-52.1-43.4-130.3-59.7-163.9c-31.5-6.5-116.2-26.1-198.7-26.1
			c-259.5,0-392,172.7-392,362.7c0,221.5,168.3,374.6,411.5,374.6c93.4,0,169.4-19.6,205.2-25c4.4-48.9,11.9-114,20.6-168.3
			l-33.7-7.6c-21.7,72.7-47.8,117.3-103.1,140.1c-28.2,13-72.8,20.6-114,20.6c-179.2,0-273.6-132.5-273.6-311.6
			c0-209.6,108.6-344.2,284.5-344.2c110.8,0,165.1,51,220.4,159.6L3883.4,1772.2"/>
		<path id="path50" class="st1" d="M4209.2,2051.2c-66.2,0-126-64.1-126-190c0-137.9,60.8-237.8,149.8-237.8
			c67.3,0,123.8,48.9,123.8,197.6C4356.8,1948.1,4304.7,2051.2,4209.2,2051.2z M4222.2,2088.1c135.7,0,236.7-103.2,236.7-243.2
			c0-175.9-130.3-259.5-236.7-259.5c-149.8,0-241.1,120.5-241.1,242.1C3981.1,2004.5,4119,2088.1,4222.2,2088.1"/>
		<path id="path52" class="st1" d="M4773.8,2075.1h121.6c0,107.5,26.1,185.7,95.5,245.4c38,34.7,79.3,53.2,120.5,58.6
			c38-1.1,69.5-15.2,88-35.8c8.7-10.9,7.6-26.1,3.3-38c-3.3-8.7-12-20.6-22.8-28.2c-10.9-8.7-20.6-7.6-30.4,2.2
			c-21.7,20.6-50,40.2-85.8,40.2c-29.3,0-44.5-12-56.5-31.5c-14.1-20.6-27.1-71.7-26.1-162.9v-49.9h115.1
			c6.5-9.8,1.1-36.9-10.9-44.5h-104.2v-313.8c0-78.2,11.9-79.3,94.5-87.9v-30.4h-251.9v30.4c67.3,6.5,71.7,10.9,71.7,81.4v320.3
			h-121.6V2075.1z M4688,2030.6v-313.8c0-78.2-1.1-79.3,76-87.9v-30.4h-238.9v30.4c69.5,6.5,77.1,10.9,77.1,81.4v320.3h-77.1
			l-4.4,11.9l23.9,32.6h57.5c0,83.6,33.7,161.8,101,219.3c40.2,34.7,94.5,58.6,141.2,64.1c80.4-1.1,121.6-38,140.1-59.7l-48.9-65.1
			c-20.6,31.5-54.3,72.7-124.9,72.7c-99.9,0-122.7-117.3-122.7-231.3h112.9v-44.5L4688,2030.6"/>
		<path id="path54" class="st1" d="M5350.3,2046.9c-50,0-98.8-46.7-114-134.6c60.8,0,121.6,0,185.7,3.3c19.5,0,26.1,5.4,26.1,21.7
			C5449.1,1994.7,5411.1,2046.9,5350.3,2046.9z M5537.1,1690.7c-69.5-86.9-145.5-105.3-180.2-105.3
			c-132.5,0-212.8,108.6-212.8,233.4c0,73.8,26.1,142.2,70.6,190c45.6,51,105.3,79.3,161.8,79.3c94.5,0,166.1-81.4,166.1-168.3
			c-1.1-21.7-4.4-31.5-21.7-35.8c-21.7-4.3-160.7-14.1-289.9-18.5c-3.3-145.5,85.8-205.2,162.9-205.2c44.5,0,85.8,18.4,126,55.4
			L5537.1,1690.7"/>
		<path id="path56" class="st1" d="M5829.2,2046.9c-50,0-98.8-46.7-114-134.6c60.8,0,121.6,0,185.7,3.3c19.5,0,26.1,5.4,26.1,21.7
			C5928,1994.7,5890,2046.9,5829.2,2046.9z M6015.9,1690.7c-69.5-86.9-145.5-105.3-180.2-105.3c-132.5,0-212.8,108.6-212.8,233.4
			c0,73.8,26.1,142.2,70.6,190c45.6,51,105.3,79.3,161.8,79.3c94.5,0,166.1-81.4,166.1-168.3c-1.1-21.7-4.3-31.5-21.7-35.8
			c-21.7-4.3-160.7-14.1-289.9-18.5c-3.3-145.5,85.8-205.2,162.9-205.2c44.5,0,85.8,18.4,126,55.4L6015.9,1690.7"/>
		<path id="path58" class="st1" d="M7004,1772.2c-15.2-52.1-43.4-130.3-59.7-163.9c-31.5-6.5-116.2-26.1-198.7-26.1
			c-259.5,0-392,172.7-392,362.7c0,221.5,168.3,374.6,411.5,374.6c93.4,0,169.4-19.6,205.2-25c4.3-48.9,11.9-114,20.6-168.3
			l-33.7-7.6c-21.7,72.7-47.8,117.3-103.1,140.1c-28.2,13-72.8,20.6-114,20.6c-179.2,0-273.6-132.5-273.6-311.6
			c0-209.6,108.6-344.2,284.5-344.2c110.8,0,165,51,220.4,159.6L7004,1772.2"/>
		<path id="path60" class="st1" d="M7329.7,2051.2c-66.2,0-126-64.1-126-190c0-137.9,60.8-237.8,149.8-237.8
			c67.3,0,123.8,48.9,123.8,197.6C7477.4,1948.1,7425.2,2051.2,7329.7,2051.2L7329.7,2051.2z M7342.7,2088.1
			c135.7,0,236.7-103.2,236.7-243.2c0-175.9-130.3-259.5-236.7-259.5c-149.8,0-241,120.5-241,242.1
			C7101.7,2004.5,7239.6,2088.1,7342.7,2088.1"/>
		<path id="path62" class="st1" d="M8021.3,1990.4c-25,38-71.7,55.4-114,55.4c-52.1,0-144.4-34.7-144.4-191.1
			c0-131.4,81.4-200.9,150.9-202c39.1,0,81.4,19.6,107.5,39.1V1990.4z M8189.6,1625.6c-22.8-4.3-104.2-17.4-168.3-40.2
			c0,22.8,0,47.8,0,70.6c-19.5-11.9-47.8-27.2-67.3-39.1c-43.4-25-72.8-31.5-85.8-31.5c-86.9,0-202,86.9-202,238.9
			c0,150.9,132.5,263.9,281.2,263.9c15.2,0,51-2.2,73.8-11.9v159.6c0,69.5-7.6,71.7-84.7,78.2v28.2c54.3,7.6,130.3,22.8,170.5,36.9
			c0-40.2,0-87.9,0-132.5v-522.3c0-56.5,7.6-64.1,47.8-66.2l34.7-2.2L8189.6,1625.6"/>
		<path id="path64" class="st1" d="M8449.2,2046.9c-50,0-98.8-46.7-114-134.6c60.8,0,121.6,0,185.7,3.3c19.5,0,26,5.4,26,21.7
			C8548,1994.7,8510,2046.9,8449.2,2046.9z M8635.9,1690.7c-69.5-86.9-145.5-105.3-180.2-105.3c-132.5,0-212.8,108.6-212.8,233.4
			c0,73.8,26,142.2,70.6,190c45.6,51,105.3,79.3,161.8,79.3c94.5,0,166.1-81.4,166.1-168.3c-1.1-21.7-4.3-31.5-21.7-35.8
			c-21.7-4.3-160.7-14.1-289.9-18.5c-3.3-145.5,85.8-205.2,162.9-205.2c44.5,0,85.8,18.4,126,55.4L8635.9,1690.7"/>
		<path id="path66" class="st1" d="M5968.3,236c6.2,29.6,14.1,59.2,19.7,87.9c2.6,14.3,4.5,28.4,3,41.2c-0.9,6.4-2.3,12.6-4.9,18.6
			c-0.6,1.7-1.4,3.9-2.2,6.1c-1.7-4.1-3.2-8.3-5-12.4c-4.8-10.8-10.1-21.4-16.1-31.8c-6.8-20.5-13.2-41-18.6-61.9
			c-6.3-25-12.1-50.6-12.7-76.3c3.3-6.1,4.8-10.4,3.4-11.6c-0.6-0.5-1.8-0.2-3.2,0.4c0.6-10,2-20.2,6.1-29.3
			c7.7,8.1,14,17.4,18.4,28C5961.8,207.9,5965.2,221,5968.3,236"/>
		<path id="path68" class="st1" d="M4755,938.6c-7.2-1.3-14.5-1.9-21.8-1.7c-12.1,0.4-24.2,2.6-35.5,7.9c2.4-2.7,4.9-5.4,7.4-7.9
			c1.5-1.3,2.6-2.3,4.4-3.5l5.5-3.4c3.6-2.3,7.2-4.8,10.6-7.7c1.7-1.4,3.4-3,5-4.8c1.5-1.9,3.3-3.8,3.7-7.6c0.3-1.8-0.6-4.3-2-5.7
			c-1.4-1.3-3-2.2-3-2.3c-0.6-0.5-0.7-0.7-0.6-2.1c0.5-2.7,2.7-6.3,5.1-9.3c2.5-3.1,5.2-6.1,8.2-8.9c1.8-1.9,3.8-3.5,5.9-5
			c23.4,3.4,46.2,4.9,68.9,7.1c12.3,0.9,24.5,2.4,36.5,4.1c9.5,1.6,19.1,3.2,28.5,6.2c-37.4,15.2-74.4,31.4-110.4,49.7
			C4766.4,941.3,4760.7,939.8,4755,938.6"/>
		<path id="path70" class="st1" d="M5986.1,504.7c0.4,3.4,1,6.8,1.6,10.3c-2.6,0.7-5.2,1.3-7.9,2c0.4-1,0.8-1.9,1.2-2.9
			c1.6-4.2,3.1-8.2,4.5-12.1c0,0.2,0.1,0.4,0.1,0.5C5985.7,503.2,5985.9,504,5986.1,504.7"/>
		<path id="path72" class="st1" d="M4847.3,814.3c-2.2-1-7.1,6.4-10.8,16.4c-3.7,10.1-4.8,18.8-2.4,19.5c2.4,0.7,7.2-6.6,10.8-16.4
			C4848.5,824,4849.5,815.3,4847.3,814.3z M4830.5,818c-2.1-1.2-6.7,2.7-9.4,9.3c-2.7,6.5-2.2,12.6,0.2,13.2
			c2.4,0.6,5.6-3.9,8.1-9.8C4831.7,824.8,4832.6,819.3,4830.5,818z M4820,814.1c-2.3-0.8-5.9,3.2-8,9.1c-2.1,5.9-2,11.3,0.4,12.1
			c2.3,0.8,5.9-3.3,8-9.1C4822.4,820.4,4822.3,815,4820,814.1z M4885.4,892.8c-8.2-7.5-18.7-12.3-29.1-15.8
			c-12.4-4.2-25.1-6.3-37.9-7.6c-12.8-1-25.5-1.3-38.3-0.2c-8.8,0.7-17.5,1.8-26.1,3.7c2.7-1.6,5.5-3.1,8.4-4.8
			c7.4-4.2,14.9-8.2,22.2-13.3c3.6-2.6,7.2-5.4,10.4-9.7c1.5-2.1,3-5,3-8.7c-0.1-3.7-2.2-6.9-4.2-8.8c-3-3-6.1-5.9-8.9-8.8
			c-2.8-2.9-4.9-5.8-5-7.8c-0.2-2,1.3-5.3,3.4-8.5c0.9-1.3,1.9-2.4,2.9-3.6c21.1,2.1,42.2,3.7,63.2,5.3c23.1,1.8,46.1,3.3,69.1,5.6
			c23,2,45.8,4.6,68.4,8.3c11.2,2,22.5,4.2,33.4,7.5c8.4,2.5,16.7,5.6,24.2,10.2c-51.8,16.9-103.6,34.3-154.1,55
			C4888.7,891.4,4887.1,892.1,4885.4,892.8"/>
		<path id="path74" class="st1" d="M5919.4,324.2c13-15.8,18.9-31.8,15.3-34c-3.7-2.3-15,9.2-27.3,24.1
			c-12.3,15-21.3,28.3-18.4,31.5C5891.9,348.9,5906.4,340,5919.4,324.2z M5738.3,362.9c-5.9-10-12.4-17.7-16.5-16.2
			c-4,1.4-3.5,12.6,3.1,24c6.6,11.4,16.1,17.3,19.3,14.5C5747.5,382.5,5744.1,373,5738.3,362.9L5738.3,362.9z M5678.5,303.4
			c-2-0.4-5.4,5-6.3,14.9c-1,9.9,1.3,23.9,8.4,37.2c7.1,13.2,16.5,22.8,24,28.6c7.5,5.8,13.1,8,14.5,6.5
			c3.2-3.4-12.6-19.9-24.8-42.3C5681.7,325.8,5682.6,304.3,5678.5,303.4L5678.5,303.4z M5915,534.6c-2.9,2.4-5.2,6.1-6.5,10
			c-9.2-7.3-18.6-14.1-28.7-20c-13.9-8.2-28.7-14.9-43.9-20.3c-1.4-0.5-2.9-0.9-4.3-1.4c-16.2-9.6-32.3-19.4-48-29.9
			c-24.8-16.5-48.5-34.5-69.6-55c-20.9-20.5-39.7-43.8-48.1-71.5c-18.4-56.1-18.8-118.5-1.7-176.3c0,0,0-0.8,0.1-1.9
			c0.8-14.5-0.5-29.1-3-43.4c-1.1-7.5-4.5-15.3-1.1-20.2c3.1-5.1,10.9-6.4,17.9-6.9c14.5-0.9,29.4,1.3,44.1,3.5
			c14.8,2.4,29.5,5.2,44.2,8.2c29.4,6,59.4,11.5,88.3,18.3c13.9,3.3,27.7,7.1,40.6,12.1c-2.9,1.3-5.9,3-8.9,5.4
			c-8.8,6.9-13.7,15.2-11,18.6c2.6,3.4,11.9,0.5,20.7-6.4c5.3-4.2,9.1-8.8,10.8-12.6c1.6,0.8,3.2,1.7,4.7,2.5
			c-1.3,0.8-2.6,1.7-4.1,2.8c-7,5.2-15.9,13.1-25.1,22.4c-18.3,18.8-30.7,36.4-27.6,39.4c3.1,3,20.4-9.8,38.7-28.6
			c9.1-9.4,16.8-18.5,21.8-25.6c1.4-2.2,2.7-4.1,3.8-6.1c2.6,1.6,5.1,3.3,7.5,5.2c-6.9,4.6-20.3,19.9-34.1,39.4
			c-17.5,24.8-29,47.1-25.6,49.7c3.4,2.6,20.5-15.6,38.3-40.7c13.6-19.2,23.4-36.7,25.7-44.9c0.5,0.5,1.1,0.8,1.6,1.3
			c1.2,1.1,2.3,2.3,3.4,3.4c-5.2,10.2-7.1,21.9-8,33.2c-7.4,5.1-19.1,16.8-30.3,32.6c-16.4,22.9-24.7,44.6-21,46.6
			c3.8,2.1,17.7-15.4,33.6-37.6c6.9-9.7,13-18.7,17.5-26.1c0.1,12.3,1.1,24.6,2.8,36.8c-5.3,2.1-16,13.7-26.6,29.4
			c-12.7,18.9-20.1,36-16.4,38.2c3.7,2.2,16.8-11,29.2-29.5c7.1-10.6,12.5-20.6,15.2-27.8c1.3,8.2,2.8,16.5,4.4,24.6
			c1.9,9.4,4,18.7,6.3,27.9c-7.2,4.7-19.1,16.8-29.8,33.4c-15.2,23.4-21.5,45.4-17.6,47.1c4,1.8,16.1-16.4,30.7-38.7
			c8-12.5,15.1-23.6,19.3-31.6c2.2,8.5,4.4,17,6.7,25.5c-0.1-0.7-0.4-1.3-0.8-1.6c-3.6-2.3-17.8,13.5-30.3,36.1
			c-12.6,22.6-18.7,42.9-14.8,44.8c3.9,1.9,16-15.1,28.4-37.2c10.8-19.3,18.3-36.4,17.6-42c1.6,6,3.3,12,5,18
			c0.7,3.8,1.5,7.7,2.4,11.5c-5.8,5-13.8,14.6-21.6,26.4c-12.4,18.7-19.7,35.9-16.2,38.4c3.5,2.5,16.5-10.9,29.1-29.8
			c4.9-7.4,9-14.6,12-20.7c0.8,3.2,1.5,6.3,2.3,9.5c-6.7,6.3-16.5,19.3-25.5,35.8c-13.7,24.9-19.9,47.3-16.1,49
			c4,1.8,16.3-17.3,29.7-41.5c6.3-11.4,11.6-21.9,15.2-30.2c1.9,7.1,3.7,14.2,5.7,21.3c0,0.1,0.1,0.2,0.1,0.3
			c-6,5.5-15.8,20.2-24,39.1c-11.1,25.4-14.8,47.8-10.7,49.1c4.1,1.4,14.2-18.3,25-42.9c5.6-12.9,10.3-24.7,13-33.4
			c0.7,2.8,1.3,5.4,2,8c0.6,7.4,1.5,14.7,2.6,21.9c-4.7,6.7-10.3,17-15.1,29.2c-1.8,4.5-3.2,8.8-4.5,13c-5,1.2-10.1,2.5-15.1,3.8
			c-7.2,0-14.4,1.1-21.6,3.6C5921.8,530.1,5918.2,531.8,5915,534.6"/>
		<path id="path76" class="st1" d="M5028.1,899.1c18.8-24.2,28.8-47.1,26.7-48.1c-2.2-1.2-15.4,19.2-33.7,42.7
			c-18.2,23.6-34.7,41.5-32.9,43.3C4989.7,938.7,5009.3,923.3,5028.1,899.1z M5014.4,934.3c2,1.4,17.9-18.3,35.5-44.1
			c17.6-25.7,30.2-47.7,28.1-49.1c-2-1.4-17.9,18.3-35.5,44.1C5025,911,5012.4,933,5014.4,934.3z M4843.3,995.5
			c9-6.8,18.1-13.5,26.7-20.8c17.2-14.6,33.5-30.4,48.1-47.6c12.6-14.7,24.2-30.3,34-47c9.5-3.3,19.1-6.7,28.7-9.9
			c-6.6,6.1-18.5,19.3-32,34.8c-19.4,22.2-34.8,40.6-33,42.3c1.7,1.7,20.2-14,39.7-36.5c16.7-19.1,28.6-36.7,30.6-42.4
			c5.3-1.8,10.6-3.6,16-5.3c-7.7,8.4-17.8,20.5-28.5,34.1c-21.4,27.3-37.2,50.6-35.3,52.1c1.9,1.5,20.9-19.3,42.3-46.6
			c13.7-17.5,25.1-33.2,31-42.8c5.8-1.9,11.6-3.8,17.4-5.6c-7.2,7.8-19.2,23.2-32.3,41.7c-19.5,27.5-33.7,51-31.7,52.4
			c2,1.4,19.4-19.7,38.9-47.3c15.5-21.9,27.5-41,30.8-48.7c24.6-7.9,49.4-15.6,74.2-23.1c-6.6,5.8-17,16.8-27.3,30.9
			c-16.1,21.9-25.4,42-23.3,43.2c2.2,1.3,14.7-16.5,30.5-37.9c13-17.8,24.2-32.6,26.6-38.1c5.3-1.6,10.6-3.2,16-4.8
			c-15,24.5-33.6,46.2-53.5,66.5c-22.5,22.5-47.3,42.6-73.4,60.8l-19.8,13.4c-6.6,4.4-13.7,8.2-20.5,12.4
			c-13.4,8.8-27.9,15.5-41.8,23.4c-6.9,4.1-14.4,7-21.5,10.6l-21.7,10.5c-11.6,5.1-23.3,10.1-34.9,15.4c-1-0.4-1.6-0.4-2.4-0.6
			c-0.9-0.1-1.6-0.1-2.2,0c-5.1,0.6-8.9,1.8-13,2.9c-4,1.1-8,2.2-12,3.1c-7.9,1.8-15.9,2.6-24.1,2.5c-8.1,0-16.3-0.9-24.5-2.2
			c-2.5-0.4-5-0.9-7.5-1.4c19.4-6.9,38.4-15.4,56-26.2C4824.7,1008.5,4833.8,1001.7,4843.3,995.5"/>
		<path id="path78" class="st1" d="M5983.7,543.2c-1.9,1.9-3.8,3.8-5.6,6c-0.9,1-1.9,2.3-2.7,3.5c-11.9,4.1-23.8,8.3-35.7,12.5
			c-0.3-0.2-0.5-0.3-0.8-0.5c-6.4-3.8-12.9-7.4-19.3-11.1c-0.5-1.9-0.8-3.7-0.7-5.4c0.2-4.7,4.1-9.5,9.6-13.2
			c5.4-3.8,11.9-6.8,18.4-9.9c5-1,9.9-2.1,14.9-3.1c-4.9,16.4-6,29-2.8,30c3.8,1.2,12-13.7,20.1-33.6c2.9-0.6,5.9-1.2,8.8-1.8
			c1.3,6.5,3,13.1,5.4,19.6C5990,538.2,5986.8,540.4,5983.7,543.2"/>
		<path id="path80" class="st1" d="M5664.2,170.4c-0.8,1.9-1.3,3.9-2,5.8C5663.3,172.5,5664.2,170.4,5664.2,170.4"/>
		<path id="path82" class="st1" d="M5826.5,574.9c-2.8,4.7-5.2,9.2-7.4,13.5c-2.9,1.3-5.7,2.7-8.5,4c4.9-5.6,10.4-12.8,15.9-20.8
			c4.8-7,8.9-13.6,12.3-19.6c1.1,0.2,2.1,0.3,3.2,0.5C5837.2,558.4,5831.8,566.1,5826.5,574.9"/>
		<path id="path84" class="st1" d="M5607.2,767.1l-22.6,27.8l-6.4,7.3c-2.3-1.4-4.6-2.7-6.9-4c8.3-11.5,17.6-24.7,27.4-38.9
			c31.2-45.4,54.9-83.3,52.8-84.7c-2.1-1.3-29,34.3-60.1,79.6c-9.9,14.3-19,27.9-26.8,39.9c-4.4-2.7-8.7-5.3-13.1-8
			c-0.8-0.5-1.5-1-2.3-1.5c3.8-5,7.6-10.3,11.6-15.6c30.9-42.1,54.3-77.4,52.3-78.9c-1.9-1.5-28.6,31.5-59.5,73.6
			c-4.1,5.5-8,10.9-11.7,16.2c-4.3-2.8-8.6-5.6-12.9-8.5c0.1-0.1,0.2-0.3,0.3-0.4c22-32.8,37.9-62.9,44.4-77.9
			c36.9-12.7,73.5-26.1,109.7-40.4C5661.9,693.6,5635.3,731,5607.2,767.1"/>
		<path id="path86" class="st1" d="M5729.3,634c20.2-8.7,40.3-17.8,60.1-27.3c-10.6,15-32,49.2-55.8,89.6
			c-24.8,42.1-45,78.6-52.3,94.2c-3.3-0.3-6.6-0.6-10.2-1.2c-8.9-1.2-16.8-3.5-23.4-5.5c11.1-15,27.7-39.1,45.9-66.7
			c30.8-47,54.1-86.2,52.1-87.6c-2-1.3-28.7,35.7-59.5,82.7c-18.6,28.4-34.4,53.9-43.6,70c-4.8-1.5-8.4-2.6-10.9-2.9
			c1.9-2.6,3.7-5.3,5.6-8.1c7.4-11.3,14.9-24.1,22.1-37.9c14.3-27.5,26-52.7,35.2-70.6c3.8-7.4,7-13.5,9.5-18.3
			C5712.4,640.9,5720.9,637.6,5729.3,634"/>
		<path id="path88" class="st1" d="M5697.1,647.2c-2.5,3.5-5.1,7.6-8.1,12.3c-10.8,17.3-23.5,42.3-37.6,69.5
			c-7.1,13.6-14.2,26.3-21.1,37.6c-7,11.2-13.6,21.1-19.9,28.9c-5.6,7.2-10.4,12.8-14,17c-2.3-1.3-4.6-2.5-6.9-3.8
			c9.2-11.4,18.2-22.9,26.7-34.9c27.2-37.8,51.5-78.2,68.2-121.6C5688.6,650.6,5692.8,648.9,5697.1,647.2"/>
		<path id="path90" class="st1" d="M5822.2,613.1c-2-1.4-28.6,34.7-59.2,80.7c-30.7,45.9-53.9,84.2-51.8,85.6
			c2,1.4,28.6-34.8,59.2-80.7C5801.1,652.8,5824.3,614.4,5822.2,613.1z M5837.8,607.2c-3.9,7-7.3,13.9-10.4,20.4
			c-33.8,43.9-66.5,88.5-98.6,133.5c-7,10-14,20-20.9,30c-5.3-0.2-13.3,0.2-22.7-0.3c10.5-14.8,32.1-49.2,56.1-89.9
			c25.4-43,45.9-80.2,52.7-95.2c1.6,0.7,4.9-1.4,9.2-5.5c2-1,3.9-1.8,5.9-2.8c2.5-1.3,5-2.6,7.6-3.8c-5.8,12.3-8.4,21.5-5.9,23
			c3.7,2.2,16.7-12.8,29-33.5c0.5-0.8,0.9-1.5,1.3-2.3c6.9-3.7,13.6-7.5,20.3-11.5C5854.3,579.2,5846,592.2,5837.8,607.2"/>
		<path id="path92" class="st1" d="M5483.5,738c-0.8-0.6-1.6-1.2-2.4-1.9c-3.9-3.2-7.7-6.4-11.4-9.7c31.9-9.6,63.6-19.5,95.1-30.3
			c0.9-0.3,1.8-0.6,2.7-0.9c-9.6,14.7-25.8,41.2-45.7,70.8c-0.1,0.1-0.1,0.2-0.2,0.3c-4.2-2.9-8.3-5.8-12.4-8.8
			c16-22.9,26.3-39.5,24.8-40.5c-1.5-1.1-14.2,13.7-31.4,35.8c-4.8-3.6-9.6-7.2-14.3-10.9c6.8-12.1,10.2-20.1,9.2-20.7
			C5496.5,720.6,5491.4,727.2,5483.5,738"/>
		<path id="path94" class="st1" d="M5670.9,844.9c-1.6-0.4-3.3-0.7-4.9-1.1c-13.1-3.7-26.2-9.5-39.1-15.5c-9.1-4.3-18.1-9-27-13.8
			c4.2-3.5,9.5-8.4,15.3-14.9c4.4-4.7,9-10.4,13.6-16.7c1.1,2.3,3.7,5.4,8.2,8.8c0,0,0.1,0,0.1,0.1c-2.5,4.8-3.6,7.6-3.1,7.9
			c0.5,0.3,2.7-1.8,6-6c7,4.7,17,9.1,28.8,10.9c11.9,1.8,22.8,0.5,30.9-1.9C5690,816.7,5680.5,830.8,5670.9,844.9"/>
		<path id="path96" class="st1" d="M5990.8,568.6c-1.4,0.7-2.7,1.4-4.1,2.1c-2.1,1.1-4,2.2-6,3.2c0.1-0.7,0.1-1.4,0.2-1.9
			c0.6-0.3,1.2-0.6,1.9-1c1.7-0.9,4-3,5-4.4c2-2.6,2.7-3.3,4.2-4.8c1.2-1.1,2.6-2.3,4-3.4C5994.3,561.2,5992.6,564.6,5990.8,568.6"
			/>
		<path id="path98" class="st1" d="M5561.3,589.5c2.8,3.4,21.1-7.1,44.5-16.9c23.4-10,43.7-15.7,43.2-20.1
			c-0.3-4.1-23.5-5.2-49.2,5.8C5574,569.1,5558.6,586.4,5561.3,589.5L5561.3,589.5z M5675.3,559.9c10.9,5,20.5,7.2,21.6,5
			c1-2.2-7-8.1-17.9-13.1c-10.9-5-20.5-7.2-21.6-5C5656.4,549.1,5664.4,554.9,5675.3,559.9z M5617.1,534.9
			c-7.9,4-12.3,9.5-10.8,12.4c2,3.8,11.7,2.7,22.4-0.3c5.9-1.7,11.1-3.8,14.6-6.1c6.5,1.5,12.9,2.9,19.4,4.4
			c25.1,5.7,50.2,11.8,74.9,18.7c12.3,3.6,24.6,7.3,36.4,12c5.9,2.3,11.7,5,17.1,8.2c2.3,1.5,4.7,3.2,6.8,5.1
			c-2.1,4.2-3.5,7.8-4.3,10.6c-22.1,9.7-44.4,19-67,27.7c-5.9,2.3-11.9,4.5-17.8,6.8c0.2-0.6,0.2-1,0-1.1c-0.3-0.2-1.2,0.6-2.6,2.1
			c-24.4,9.3-49,18.2-73.7,26.8c-7.6-7.4-16.5-13.4-25.8-18.7c-5.4-3.1-11-5.7-16.6-8.6l-17.1-7.6c-23.1-9.3-46.8-16.6-70.7-23.1
			c-1.4-0.4-2.9-0.7-4.3-1.1c16.2-19,36.5-36.1,57.7-50.9c11.8-8.2,24-15.8,36.7-22.8C5600.7,531.2,5608.9,533.1,5617.1,534.9"/>
		<path id="path100" class="st1" d="M5634.6,937.8c-11.9,12.2-24.7,24.9-38.6,32.2c-1.9,1-3.8,1.6-5.4,1.9
			c25.1-32.2,49.8-64.7,73.9-97.6c2.4-3.3,4.8-6.6,7.2-9.9c6.9,0.9,13.7,1.2,20.4,1.3C5674.5,891.1,5655.6,915.6,5634.6,937.8"/>
		<path id="path102" class="st1" d="M6077.3,532.4c-2.2,2.2-4.3,4.3-6.5,6.6c-2.5,0.9-5,1.7-7.4,2.5c-0.4-0.3-0.8-0.7-1.2-0.9
			l-3.9-2.9C6064.6,535.9,6070.9,534.2,6077.3,532.4"/>
		<path id="path104" class="st1" d="M6088.1,549.8c-4,2-8,4.4-12.1,6.1c-0.3-0.5-0.5-1-0.7-1.4c-0.5-0.9-1.2-1.8-1.8-2.6
			c2.6-2.5,5.3-4.9,8-7.3c7.1-2.2,14.5-4.6,22-7.1c0.3-0.1,0.7-0.2,1-0.3c-0.3,0.2-0.5,0.5-0.8,0.8
			C6098.8,542.6,6093.3,545.9,6088.1,549.8"/>
		<path id="path106" class="st1" d="M6090,611.6c-2.4,2.4-4.5,4.8-6.4,6.9c0.9-2.7,1.6-5.4,2-8.2
			C6087.1,610.8,6088.6,611.2,6090,611.6"/>
		<path id="path108" class="st1" d="M6044.8,639.9c4.2-6.9,9.3-19.4,13.6-34.2c0.3-1.1,0.6-2.1,0.9-3.2c0.8,0.2,1.5,0.4,2.3,0.7
			c-0.1,3.1-0.5,6.1-1.6,9.3c-0.2,0.9-0.6,1.7-1,2.6l-1.5,3.9c-1.3,3.3-1.9,6.9-2.2,10.3c-0.2,3.7,0,7,0.5,10.2
			c-3.2,1.1-6.3,2.4-9.5,4C6045.8,642.4,6045.3,641.1,6044.8,639.9"/>
		<path id="path110" class="st1" d="M6100.5,529c2-1.5,3.9-3.1,5.9-4.6c4.8-1.4,9.7-2.8,14.5-4.2c-0.9,1-1.7,2-2.5,3
			c-5.7,1.8-11.6,3.7-17.6,5.7C6100.6,528.9,6100.6,528.9,6100.5,529"/>
		<path id="path112" class="st1" d="M5451.1,716C5451.1,716,5451.1,716.1,5451.1,716C5450,716.9,5450.7,716.3,5451.1,716"/>
		<path id="path114" class="st1" d="M6549.3,982c-1.6-1.9-10,2.5-18.7,9.8c-8.8,7.3-14.6,14.8-13,16.6c1.6,1.9,10-2.5,18.7-9.8
			C6545,991.4,6550.9,983.9,6549.3,982z M6525.3,984.3c-6.5,4.9-9.6,10.9-7.9,12.6c1.8,1.7,7.4-1.2,13.2-5.5c5.8-4.4,10.1-9,9-11.2
			C6538.5,978.1,6531.7,979.4,6525.3,984.3L6525.3,984.3z M6606.9,1101.2c-0.1,0-0.2,0-0.3-0.1c-0.6-0.2-1.4-0.5-2.2-0.8
			c-1.6-0.7-3.4-1.6-5.2-2.5c-3.5-1.9-7.1-3.9-10.7-6.1c-15.5-9.2-30.6-19.1-45.9-29l-81.1-83.6c-34.2-35.4-68.4-70.8-101.7-107
			c-5.8-6.2-11.4-12.6-17.1-18.8c2.6-2.8,5.2-5.6,7.6-8.7c4.3-4.8,7.6-10.8,11.3-16.3c2.7-6.3,6.3-12.3,7.4-19.5
			c2.1-6.9,1.6-14.2,1.5-21.5c-0.7-3.5-1.6-6.9-2.4-10.4c-0.7-3.6-2-6.8-3.5-9.9l-4.4-9.4c-1.7-3-3.7-5.6-5.5-8.4l-5.7-8.3l-6.7-7.6
			c-7-7.1-14.4-13.4-22-19.4c7.5-3.7,14.7-8.2,21.5-13.3c23.1,9.1,46.2,18.5,69.1,28.2c2.9,16.9,8.9,33.2,15.6,49
			c8.1,18.1,17.8,35.5,28.3,52.3c20.9,33.7,45,65.1,70.1,95.5c25.4,30.2,51.9,59.3,79.7,87.2c23,23.2,47.1,45.4,71.8,66.7
			c-10.6-4.2-21.3-8.4-32.2-12.1c-4.1-1.4-8.2-2.7-12.6-3.9c-2.2-0.6-4.4-1.1-7.1-1.4c-1.3-0.2-2.7-0.3-4.7-0.2
			c-1.1,0.2-2.1,0.2-4.2,1.3c-0.8,0.4-2.3,1.6-3,2.8c-0.9,1.5-1.3,3.2-1.3,4.3c0.4,4.8,1.8,5.5,2.5,7l1.8,2.6c1.2,1.5,1.9,3,2.8,4.5
			c1.4,3,2,5.8,1.6,7.8C6619.2,1096.1,6613.4,1100.1,6606.9,1101.2"/>
		<path id="path116" class="st1" d="M6315.3,948.8c-19.6-15.4-35-28.7-36.9-26.9c-1.7,1.6,11.2,18,31.3,33.9
			c20.1,15.9,39,24.8,40.2,22.7C6351.3,976.4,6334.8,964.3,6315.3,948.8z M6444.4,1052.1c-6.8-3.9-13.2-8.8-19.4-14.2
			c-12.5-10.8-23.5-23.4-36.6-35.2c-3.4-2.9-6.9-5.8-11.5-8.3c-2.3-1.2-5.1-2.4-8.8-2.5c-3.8-0.2-8.1,1.9-10.3,4.5
			c-2.3,2.5-3.6,5.7-4,6.2c-0.7,0.9-1.2,1.5-1.8,1.7c-1,0.5-4.1,0.2-7.3-1.5c-6.4-3.2-12.8-8.5-18.7-14c-6-5.6-11.6-11.7-17.2-17.9
			c-11.1-12.4-21.6-25.6-31.9-38.9c-2.4-3-4.8-5.9-7.2-8.8c0,0,0,0,0,0c17.4-17.5,36.1-33.5,54.3-50.7c2.9-2.8,5.8-5.7,8.7-8.6
			c5.5,6,10.9,12.1,16.4,18.1c33.7,36.1,68.5,71.2,104.4,105.1c23.1,21.9,46.8,43.2,70.8,64c-7.2-4.6-14.6-9.1-22.1-13.4
			c-1.9-1.1-3.9-2.1-6.1-3.1c-1.1-0.5-2.2-1-3.7-1.5c-0.8-0.2-1.5-0.5-3.1-0.7c-0.4,0-0.7-0.1-1.4,0c-0.8,0.1-1,0-2.3,0.5
			c-1.3,0.6-2.2,1-3.3,2.3c-1.2,1.5-1.5,3-1.4,2.6c-1.3,5.2-1.9,8.3-3.2,11.7c-2.7,6.6-6.2,9.8-12.7,9.5
			C6458.8,1059,6451.2,1055.7,6444.4,1052.1"/>
		<path id="path118" class="st1" d="M6122,635.7c-3.7-0.4-7.4-0.8-11.1-1c4.3-2.7,8.9-5.9,13.6-9.6c0.9-0.7,1.6-1.4,2.4-2
			c2,0.6,3.9,1.2,5.9,1.8C6128.5,628.9,6124.8,632.6,6122,635.7"/>
		<path id="path120" class="st1" d="M6060.8,597c0.1-0.3,0.1-0.6,0.2-0.9c0,0.3,0.1,0.7,0.2,1.1C6061.1,597.1,6060.9,597,6060.8,597
			"/>
		<path id="path122" class="st1" d="M6106.9,616.8c0.8,0.3,1.6,0.5,2.5,0.8c-7.4,6.2-13.4,12-17.1,16.6c-4.2,0.1-8.4,0.3-12.7,0.8
			c-0.1-1.2-0.2-2.4-0.1-3.5c3.8,1.8,14.6-2.6,24.8-12C6105.2,618.5,6106,617.7,6106.9,616.8"/>
		<path id="path124" class="st1" d="M6079.2,701.4c1-0.3,1.9-0.6,2.8-0.9c0.1,0.1,0.1,0.2,0.2,0.3c2.4,4.6,4.9,8.6,7.1,11.6
			c-0.5-0.1-0.9-0.2-1.4-0.2C6085,708.7,6082.1,705.1,6079.2,701.4"/>
		<path id="path126" class="st1" d="M6064.2,678.2c2.2-0.6,6.7-1.7,10.6-4.5c0.7-0.5,1.2-1.1,1.8-1.7
			c44.9,14.7,90.7,28.7,136.6,43.3c1.7,0.5,3.4,1.1,5.1,1.6c10.9,17.8,22.6,35,35.1,51.7c22.1,29.6,45.9,57.9,70.4,85.4
			c-2.9,3.2-5.8,6.4-8.6,9.6c-16.6,17.7-34.2,34.9-50.5,53.4c-17.8-21.2-36.2-41.6-54.6-62c-16.7-18.3-33.5-36.4-50.5-54.3
			c-13.8-17.3-27.7-34.3-41.6-51.4c1.6-1,2.5-1.9,2.5-2.9c-0.1-1.9-3.4-3.4-8.6-4.6c-4.6-5.7-9.2-11.4-13.9-17
			c5.4-1.1,8.9-2.7,9-4.6c0.1-2.2-3.9-4.3-10.3-6c-0.6-4-3-10.4-6.6-17.3c-0.1-0.3-0.3-0.5-0.5-0.8c0.5-0.6,0.8-1.3,0.7-1.9
			c-0.2-1.2-1.4-2.1-3.4-2.9c-4.5-7.5-9-12.5-10.7-11.5c-1.3,0.7-0.8,4.5,1,9.7c-2.4-0.2-5-0.3-7.8-0.3c-2.6-3.3-5.2-6.7-7.8-10.1
			C6062.3,678.7,6063.2,678.4,6064.2,678.2"/>
		<path id="path128" class="st1" d="M6084,738.8c-5.1-0.2-9.9-0.3-14.4-0.2c-1.2-4.3-2.5-8.6-3.9-12.9c1.9,0.2,3.6,0.4,5.6,0.5
			c2.9,0.1,5.7,0.2,8.4,0.1c2.9,3,5.7,6,8.6,9c1.1,1.3,2.2,2.6,3.3,3.9C6089.2,739,6086.7,738.9,6084,738.8"/>
		<path id="path130" class="st1" d="M6051.3,690.2c-0.6-1-1.3-2-1.9-3.1c0.3-0.3,0.7-0.6,1-0.9c0.9,1.2,1.7,2.5,2.6,3.7
			C6052.4,690,6051.9,690.1,6051.3,690.2"/>
		<path id="path132" class="st1" d="M6679.1,576.2c-27.3,0.3-49.4,2.5-49.4,5c0,2.5,22.2,4.2,49.5,3.9c27.3-0.3,49.4-2.5,49.4-5
			C6728.6,577.7,6706.4,575.9,6679.1,576.2z M6679.1,547.9c-7.8,0.4-14,2.6-13.8,5.1c0.1,2.4,6.5,4.1,14.3,3.8
			c7.8-0.4,14-2.6,13.8-5.1C6693.2,549.2,6686.9,547.5,6679.1,547.9z M6806,606.3c7.3,3.9,14.4,8,21.3,12.3
			c13.9,8.7,27,18.5,38.3,29.9c5.7,5.7,10.6,11.9,15,18.4c0.2,0.3,0.3,0.6,0.5,0.9c-1.4,0.3-3,0.9-4.7,2.1c-1.9,1.3-3.3,3.4-4,5.3
			c-0.4,0.9-0.5,1.6-0.6,2.5c-41-13.9-83.2-24.5-125.9-32.2c-44.8-8.2-90.2-13.2-135.8-14.5c-45.6-0.9-91.6,1.6-136.4,11.4
			c-42.4,8.7-83.7,25.1-118.7,50.2c-0.9-0.4-1.8-0.7-2.7-1.1c4.6-4.2,9-8.6,13-13.2c2.8-3.3,5.4-6.8,8-10.2
			c9.8-2.9,20.7-6.1,32.2-9.4c41.7-12,76-20.2,75.6-22.7c-0.4-2.3-35.8,2-78,14.1c-7.6,2.2-14.8,4.4-21.6,6.7
			c4-6,7.8-12.2,11.3-18.5c35.4-10.3,61.6-19.5,61-21.5c-0.5-1.9-23.8,2.8-55.4,11c3.2-6.6,6.3-13.3,9-20.2c15.6-4.7,25.3-7.8,25-9
			c-0.2-1-8.7-0.2-22.6,2.4c6.3-17.1,11.3-34.7,14.9-52.5c43.5-5.8,87.2-9.8,131-13.3c12-1.1,23.9-1.8,35.9-2.6
			c12-0.9,24-1.6,36-2.3c21.2-1.5,42.4-2.3,63.6-3.2c0,1.9,0.8,3.4,1.6,4.6c0.4,0.5,0.9,1,1.5,1.4c0.5,0.3,1,0.6,1.3,0.8
			c1.1,0.6,1.7,0.7,2.3,1c8.8,2.8,16.4,4.6,24.5,7c15.8,4.6,31.6,9.8,45.9,16.8c7.2,3.6,13.5,7.6,18.9,12.9c2.4,2.4,4.8,5.7,4.7,6.5
			c0,0.4,0.4-0.4-0.2,0.4c-0.6,0.7-1.8,1.5-4.2,3.3c-0.7,0.7-1.2,0.9-2.4,2.7c-0.5,0.9-0.9,1.2-1.2,2.9c-0.3,1.4-0.2,3.2,0.2,4.3
			c0.4,0.9,0.8,1.7,1.4,2.5c0.3,0.4,0.6,0.8,0.9,1.1l0.6,0.5c0.7,0.6,1.5,1.1,2.2,1.6c2.1,1.2,4,2.2,5.8,3.2L6806,606.3"/>
		<path id="path134" class="st1" d="M6572.7,487.7c4.8,0.7,9.2,1,13.6,1.4l26.3,1.8c17.3,1.3,34.6,3.1,51.1,6.8
			c15.3,3.2,30.2,8.8,40.9,17.7c-0.5,1.3-1.1,2.5-1.8,3c-0.6,0.5-1.3,0.9-2.3,1.1c-0.2,0.1-0.6,0.1-0.9,0.1l-0.4,0.1l-1.4,0.1
			c-0.3,0-0.6,0.1-1.3,0.3c-0.3,0.1-0.4,0.1-1.5,0.6c-0.8,0.7-1.5,0-3.5,3.9c-0.2,0.6-0.3,1.1-0.4,1.7c-45.3-3.2-90.8-3.7-136.2-2.2
			c-42.7,1.4-85.4,4.6-127.8,9.8c0.3-1.8,0.7-3.5,0.9-5.3c2.2-15.7,3.3-31.6,3.5-47.5c7.5-1.7,16.3-3.6,25.8-5.2
			c27.6-4.8,50.7-5.2,50.8-7.8c0.2-2.3-23.5-6-52.3-1c-9,1.5-17.2,3.7-24.3,6c-0.2-12.7-1.1-25.4-2.8-38.1
			c8.7,2.5,17.1,3.9,25.5,5.3c35,5.4,70.3,7.7,104,14.1c4.1,0.9,8.3,1.8,11.9,3.1c1.8,0.6,3.4,1.4,4.5,2c0.2,0.1,1,0.9,1.3,1.4
			c-0.5,0.6-1.8,1.5-3.2,2.3c-1.6,0.9-3.4,1.8-5.5,2.8c-2.1,1.2-3.9,1.6-7.3,4.4c-0.5,0.5-0.9,0.8-1.5,1.8c-0.3,0.4-0.5,0.9-0.8,1.3
			c-0.3,0.7-0.5,1.5-0.6,2.2c-0.6,3.4,1.6,6.5,2.6,7.2c2.4,2.1,3.6,2.4,5.1,3.1l4.4,1.2L6572.7,487.7"/>
		<path id="path136" class="st1" d="M6203.2,690.3l6.1,11.5c-43.5-10.2-87.2-20.8-131.6-30.9c2.8-3.3,4.7-7.7,4.9-11.2
			c0.1-1,0-1.7,0-2.6c15.9-0.8,33,1.4,49.3,4.1c22.3,4,44.3,10,65.9,17.5C6199.6,682.6,6201.4,686.4,6203.2,690.3"/>
		<path id="path138" class="st1" d="M6873.1,768.7c-8.8-0.1-16,1.7-16.1,4.2c0,2.5,7.1,4.6,15.9,4.7c8.8,0.2,16-1.7,16.1-4.2
			C6889.1,771,6881.9,768.8,6873.1,768.7L6873.1,768.7z M6859.2,760c-15.9,0.3-28.7,3.2-28.5,5.7c0.2,2.5,13,3.5,28.7,3.2
			c15.7-0.3,28.5-1.9,28.5-4.3C6888.1,762.2,6875.2,759.7,6859.2,760z M7024.4,802.2c6.8,4.4,14,9.3,18.5,14.5l1.3,2
			c0.1,0.5,0.6,1.2,0.5,1.6c0.1,0.8,0,1.2-1,2.3c-1,1.1-2.6,2-4.8,4.1c-0.5,0.4-1.3,1.6-1.8,2.6c-0.4,1.1-0.3,2.2-0.2,3.1
			c-11.3-4.9-22.7-9.7-34.2-14.2c-15.5-4.8-30.8-10.4-46.6-14.2c-15.8-3.7-31.7-7.7-47.9-9.9c-8.1-1.2-16.1-2.6-24.2-3.4l-24.4-2
			c-32.6-1.5-65.6-0.2-97.8,6c-16.1,3.1-32,7.1-47.3,12.7c-12.6,4.6-25,9.9-36.5,16.8c-6.5-2.6-12.9-5.1-19.4-7.7
			c11.9-2.3,29.9-6.7,49.8-12.3c35.2-9.9,63.2-19.8,62.4-22.2c-0.7-2.3-29.8,3.7-64.8,13.6c-23.9,6.7-44.5,13.4-55,17.8
			c-8.2-3.3-16.3-6.5-24.5-9.8c10.2-0.1,31.6-2.6,56.1-8.4c34-8.1,60-19.4,59.2-21.6c-0.8-2.4-27.8,5-61.3,13
			c-29,7-53.4,12.1-59.2,15c-4.9-2-9.8-4-14.6-6c1.2-0.4,2.2-0.6,3.5-1.1c11-4.2,26-9.9,42.8-15.6c33.6-11.4,61.9-17.4,61.5-20
			c-0.3-2.3-29.9-0.1-64.3,11.5c-17.2,5.7-32.2,12.6-42.5,18.3c-3,1.8-5.6,3-8,3.9c-4.2-1.7-8.4-3.4-12.6-5.1
			c-0.3-0.1-0.7-0.3-1-0.4c11.8-3.3,29.2-8.6,48.9-14.3c35.3-10.2,64.3-17.4,63.9-19.9c-0.4-2.3-30.5,1-66.3,11.3
			c-23.4,6.7-42.9,14.6-53.6,19.9c-6-2.4-11.9-4.9-17.9-7.3c11.8-2.9,30.9-8.7,52.6-15.1c35.3-10.5,64.1-18.7,63.5-21.2
			c-0.5-2.3-30.4,2.1-66.1,12.6c-25.4,7.5-46.5,16-56.4,21.1c-7.2-3-14.4-5.9-21.6-8.9c10.9-1.9,26.5-5.1,44-8.2
			c32.7-5.9,59.5-9.3,59.4-11.9c-0.1-2.4-27.6-2.9-60.9,3.1c-22,3.9-40.5,9.6-50.4,13.7c-7.1-2.9-14.2-5.9-21.2-8.8
			c15.9-4,31.9-7.3,48-9.6c19.9-3.3,39.9-5.2,60-6.9c40.1-3.1,80.3-3.5,120.5-2.1l30.1,1.4c10,0.4,20,1.7,30.1,2.4
			c20.1,1.1,40,4.2,60.1,6.2c10.1,0.9,20,2.8,30,4.2l30,4.3c18,2.8,36,6.3,54.1,9.1c0.2,0.8,0.4,1.5,0.7,2.1
			c0.7,1.6,1.8,2.7,2.9,3.9c3.9,3.6,7.4,5.6,11.1,8C6995.9,785.3,7010.5,793.2,7024.4,802.2"/>
		<path id="path140" class="st1" d="M5989.5,640.2c0.4,0.2,0.7,0.4,1,0.6c0,0.4-0.1,0.9-0.1,1.2
			C5990.1,641.4,5989.8,640.8,5989.5,640.2"/>
		<path id="path142" class="st1" d="M5969.9,575.8c-0.5,0.6-0.9,1.2-1.4,1.8c-0.9-0.1-1.8-0.3-2.7-0.5
			C5967.1,576.6,5968.5,576.1,5969.9,575.8"/>
		<path id="path144" class="st1" d="M5962.1,658.3c-3.9-2.7-7.8-5.1-9.6-8.8c-0.7-1.2-1-2.7-1.2-4.2c2.6-0.8,6.2-7,10.2-16.3
			c2-0.6,4.2-1.2,6.7-2.1c0.6,0.4,1.2,0.9,1.8,1.3c-3.4,12.3-5.8,23.1-6.8,30.8C5962.9,658.9,5962.5,658.6,5962.1,658.3"/>
		<path id="path146" class="st1" d="M5950.8,569.5c-0.5,0.4-0.8,1-1.2,1.4c-2.4-1.3-4.9-2.7-7.3-4.2c6-1.4,11.9-2.8,17.9-4.2
			C5956.8,564.4,5953.3,566.8,5950.8,569.5"/>
		<path id="path148" class="st1" d="M5887.8,562.3c1.3,0.5,2.6,1,3.9,1.6c1.9,1.1,3.8,2.3,5.8,3.4c1,0.8,2,1.6,2.8,2.5
			c-7,6.9-23.9,37.3-44.1,73.4c-5,9-9.8,17.6-14.2,25.6c-27.6,33.4-54.9,67-81.5,101.2c-19.5,25.4-38.3,51.5-56,78.2
			c-6.6,0-13.3-0.3-19.9-1c18.8-25.8,37.5-51.7,56.1-77.8c24.3-34.4,48.4-68.9,72-103.7c-1.2,5-1.3,8.1-0.2,8.6
			c3.9,1.8,20.4-25.4,39.1-59.6c7.8-14.2,14.6-27.4,19.9-38.2c3.4-5.4,6.9-10.7,10.3-16.1C5883.7,560.9,5885.8,561.6,5887.8,562.3"
			/>
		<path id="path150" class="st1" d="M5969.4,611.2c-0.3,0.2-0.6,0.4-0.9,0.6c0.1-0.4,0.3-0.7,0.4-1.1
			C5969.1,610.8,5969.3,611,5969.4,611.2"/>
		<path id="path152" class="st1" d="M5903,574.4c1.2,3.7,0.8,8.5-0.8,13.4c-1.9,6.4-5.2,12.7-8.4,19.1c-1.6,1.9-3.2,3.9-4.9,5.8
			C5896.6,595.7,5901.5,581.9,5903,574.4"/>
		<path id="path154" class="st1" d="M5936.5,648.6c-3.7-2.1-13.4,8.1-21.7,22.8c-8.2,14.7-11.9,28.3-8.1,30.4
			c3.7,2.1,13.4-8.1,21.7-22.8C5936.6,664.3,5940.2,650.7,5936.5,648.6z M5932,689.7c-13.4,7.5-25.8,16.4-37.4,26.2
			c-12.7,10.8-24.2,22.8-34.8,35.7c-4.4,5.4-8.5,11-12.5,16.8c-1,1-2.1,2-3.1,3.1c-18.2,18.2-36.6,35.8-54.6,54.3
			c-0.7,0.4-1.3,0.9-1.9,1.2c-22.3,12.3-47.1,19-72.2,20.6c16.1-25,32.9-49.3,50.6-73.3c21.7-30,44.1-59.6,66.7-88.9
			c-11.4,21-18.3,35.4-16,36.9c3.4,2.4,28.9-28.5,52.9-71.5c7.4-13.1,13.7-25.7,18.8-37c1.8-2.3,3.6-4.6,5.4-6.9
			c5.7-4.5,10.7-9.8,14.8-16.1c1.9-3.3,3.7-6.8,4.5-11c0.2-0.9,0.1-1.9,0.1-2.9c1.6,1,3.1,1.9,4.7,2.9c1,1.5,2.1,2.8,3.2,4.2
			c-9.3,12.4-26.4,42-44.4,77.6c-24.5,48.3-41.1,89-37.2,90.8c3.9,1.8,26.8-35.7,51.1-83.8c16.8-33.3,30-62.9,35.3-78.8
			c2.6,3,5.4,5.7,8.2,8.5c-6.7,7.2-19.5,29.4-32.3,56.7c-16.3,34.6-26.2,64.1-22.3,65.7c4,1.7,20.2-24.8,36.3-59.1
			c8.3-17.8,15-34.1,19-46.1c0.5,4.5,2.4,9.1,5.3,12.3c2.4,2.6,5.2,4.6,8.1,6.2c-0.3,4.8,0,8.5,1,10.3c-0.4,2.1-0.6,4.2-0.1,6.5
			c1.4,5.6,5.5,9.3,8.8,12.9c1.2,1.3,2.3,2.5,3.5,3.7c-6.2,4.2-12,8.7-17.9,13.1C5939.5,683.5,5935.8,686.6,5932,689.7"/>
		<path id="path156" class="st1" d="M5948.1,632.5c-5.4-5.5-8.5-12.5-6.8-19.2c0.4-2.1,1-4.2,1.6-6.3c2.8,2.5,5.7,5,8.7,7.4
			C5949.7,621.2,5948.5,627.5,5948.1,632.5"/>
		<path id="path158" class="st1" d="M5955.9,601.6c-0.3-0.3-0.5-0.6-0.8-0.8c0.1,0,0.1-0.1,0.2-0.1c0.3,0.1,0.5,0.3,0.8,0.4
			C5956,601.3,5955.9,601.5,5955.9,601.6"/>
		<path id="path160" class="st1" d="M5967.1,579.6c0,0,0.1,0,0.1,0C5967.2,579.7,5967.2,579.7,5967.1,579.6
			C5967.1,579.7,5967.1,579.6,5967.1,579.6"/>
		<path id="path162" class="st1" d="M5990.6,616.8c1.7-0.9,3.3-1.9,4.9-2.8c-2.9,10.9-4.6,20-4.9,25.9c-1.1-1.4-2.3-2.7-3.5-4
			c-0.9-1.5-1.7-3-2.6-4.5c1.6-4.4,3.2-9,4.8-13.8C5989.7,617.2,5990.1,617,5990.6,616.8"/>
		<path id="path164" class="st1" d="M5999.1,583.2c0.1-0.6,0.3-1.3,0.5-1.9c1.1-0.6,2.3-1.2,3.3-1.8c-0.2,1.5-0.4,2.8-0.9,3.7
			c-0.1,0.2-0.2,0.3-0.3,0.4C6000.9,583.6,6000,583.4,5999.1,583.2"/>
		<path id="path166" class="st1" d="M6015.9,626.4c4.3,10.3,9.5,20.1,15.1,29.6c-1.3,1.7-2.5,3.5-3.5,5.4c-4-3-8.6-5.6-13.9-7.2
			c-2.7-0.9-5.4-1.4-8.2-1.7c-3.3-2.7-6.5-5.4-9.8-8c4.1-4.7,10-16.5,15.8-31.8C6012.6,617.4,6014.1,621.9,6015.9,626.4"/>
		<path id="path168" class="st1" d="M5984.2,632c0.3,0.5,0.7,1.1,1,1.6c-0.4-0.4-0.7-0.9-1.1-1.3
			C5984.2,632.2,5984.2,632.1,5984.2,632"/>
		<path id="path170" class="st1" d="M5994.2,652.8c-0.4-2.1-1-4.1-1.8-6.1c0.8,0,1.8-0.7,3-2c2.9,2.5,5.6,5.2,8.5,7.8
			C6000.6,652.3,5997.4,652.4,5994.2,652.8"/>
		<path id="path172" class="st1" d="M5972.3,660.5c3.1-6.1,6.7-14.4,10.4-24.3c1.9,1.1,3.7,2.2,5.6,3.3c0.5,1.1,1.2,2.1,1.6,3.1
			c0.3,0.7,0.5,1.4,0.8,2.1c0.1,0.4,0.2,0.7,0.4,1c0.9,2.3,1.7,4.7,2.2,7.2c-3.2,0.5-6.3,1.2-9.2,2.2
			C5979.9,656.8,5976,658.6,5972.3,660.5"/>
		<path id="path174" class="st1" d="M5969.1,610.3c0.2-0.6,0.4-1.1,0.6-1.6c0.2-0.6,0.4-1.2,0.7-1.8c1.3,0.4,2.7,0.9,4,1.3
			c-1.6,1-3.2,1.9-4.8,2.9C5969.5,610.8,5969.3,610.5,5969.1,610.3"/>
		<path id="path176" class="st1" d="M5457.7,749.1c-5.4,10.4-11.3,20.5-17.9,30.1c-12.2,18.8-26.5,36.2-41.5,52.7
			c-8.4,9-17,17.8-25.8,26.4c9.8-11.3,28.2-35.7,48.6-64.7c12.8-18.1,24.1-34.9,32.6-48.1C5455,746.7,5456.4,747.9,5457.7,749.1"/>
		<path id="path178" class="st1" d="M6658.7,968.1c-1.2-2.1-12.1,2-23.6,10c-11.6,8-19.2,16.8-17.6,18.7c1.6,1.9,11.5-3.5,22.7-11.4
			C6651.4,977.6,6660,970.2,6658.7,968.1z M6626,966.2c-12.5,7.3-21.6,15-20.4,17.1c1.2,2.1,12.4-2.1,24.9-9.5
			c12.5-7.4,21.6-15,20.4-17.1C6649.7,954.7,6638.5,958.9,6626,966.2L6626,966.2z M6647.5,928.4c-1.5-2-10.4,2.2-19.9,9.3
			c-9.5,7.1-16,14.5-14.6,16.5c1.5,2,10.4-2.2,19.9-9.3C6642.5,937.7,6649,930.4,6647.5,928.4z M6753.2,1086.3l0.4,0.8
			c1.1,2,1.1,2.9-0.3,5.1c-2.9,4.3-10.7,8.1-17.1,8.9c-0.8,0.1-1.6,0.2-2.3,0.1c-0.4,0-0.8,0-0.8,0l-0.9-0.2c-1.6-0.4-3.6-1-5.5-1.7
			c-3.8-1.3-7.8-2.8-11.7-4.3l-23.5-9.3c-3.5-1.4-7-2.8-10.5-4.2l-68.7-76.4c-26-29.3-51.9-58.7-76.8-88.8
			c-25.1-30-49.3-60.6-71.8-92.5c-11.1-16-21.9-32.2-31.4-49.2c-8.3-14.4-15.3-29.4-20.5-45.3c2.6,1.1,5.3,2.2,8,3.3l156.6,66
			c8.2,29.6,25.2,56.4,43.1,81.2c19.9,27.3,42.6,52.2,66.2,76.2c23.8,23.7,48.6,46.3,74.5,67.6c23.3,19.2,47.4,37.6,72.5,54.4
			c-5.1-0.1-10.7-0.8-16.6-1.3l-25.1-3.3c-8.5-1.1-16.8-2.3-26.2-2.3c-2.6,0.2-4.6-0.2-9,1.7c-0.9,0.3-2.9,1.8-4,3.8
			c-0.5,1.2-0.9,2.7-0.9,3.8c0.1,0.9,0.2,1.9,0.5,2.8C6752.1,1084.7,6752.6,1085.4,6753.2,1086.3"/>
		<path id="path180" class="st1" d="M5166.8,999.7c39-28.6,62.4-60.6,60.6-61.9c-2-1.8-27.8,26.9-65.9,54.7
			c-37.8,28.1-72.8,44.2-71.7,46.7C5090.5,1041.4,5127.9,1028.5,5166.8,999.7L5166.8,999.7z M5278,887.6c2,1.4,25.4-26.8,52.2-63.1
			c26.8-36.3,47-66.9,45-68.4c-2-1.5-25.3,26.7-52.2,63.1C5296.2,855.5,5276,886.1,5278,887.6z M5329.4,877
			c1.9,1.5,27.4-27.8,56.9-65.4c29.5-37.6,51.8-69.4,49.9-70.9c-1.9-1.5-27.4,27.8-56.9,65.4C5349.7,843.7,5327.4,875.4,5329.4,877z
			 M5039.4,1052.9l-24.6,4.9c-16.2,3.2-32.5,5.8-48.5,5.2c-4-0.2-8-0.4-11.4-1.3c-1.8-0.4-3.4-1-4.8-1.6c-1.3-0.7-1.5-1.1-1.6-1.3
			c0-0.3-0.2-0.7-0.2-1.8c-0.1-1.1,0-2.7-1-5c-0.5-1.1-1.2-2-2-2.8c17-6.5,33.8-13.4,50.6-20.4c18.3-8.8,37-17,54.8-26.8
			c36-19.1,70.7-40.5,103.8-64.4c32.8-24.2,64.4-50.3,92.9-79.6c26.1-26.9,50.5-55.9,69.4-88.2c6.8-1.9,13.5-3.8,20.3-5.6
			c-9.2,13.6-23,33.7-40.6,54.6c-31.4,37.9-62.5,63.4-60.8,65.5c1.2,1.9,35.5-21,67.6-59.8c20.1-24,34-47.6,41.2-62.3
			c20.4-5.7,40.8-11.4,61.2-17.1c-9.7,10.3-29.9,35.4-52.4,65.5c-30.2,40.3-53.1,74.3-51.2,75.8c1.9,1.5,28-30,58.3-70.5
			c25-33.4,44.9-62.3,50-72.2c10.7-3,21.4-6.1,32.1-9.2c1.9,1.9,3.7,3.8,5.6,5.8c0.2,0.2,0.4,0.4,0.6,0.6
			c-9.7,12.6-21.9,29.1-34.9,47.6c-28.5,40.4-50,74.2-48.5,76.4c-5,4.7-9.9,9.4-15.1,13.9c-16.8,14.8-34.2,29-52.4,42.2
			c-35.9,26.9-73.9,51.2-112.7,74.1c-19.4,11.4-39.1,22.5-59,33.1c-18,9.9-36.4,19.2-54.9,28.3c-0.4-0.7-1-1.6-1.9-2.4
			c-4.3-3.5-7.3-3-9.9-3.4c-2.5-0.1-4.9,0.1-7.1,0.3C5047.8,1051.3,5043.6,1052.1,5039.4,1052.9"/>
		<path id="path182" class="st1" d="M5285.8,1018c21.3-17.1,37.4-32.5,35.8-34.4c-1.5-1.9-20.1,10.4-41.4,27.4
			c-21.3,17.1-37.4,32.5-35.8,34.4C5246,1047.4,5264.5,1035.1,5285.8,1018z M5289.7,1046.1c1.6,1.9,7.7-0.7,13.6-5.8
			c5.9-5.1,9.4-10.7,7.8-12.6c-1.6-1.9-7.7,0.7-13.6,5.8C5291.6,1038.6,5288.1,1044.3,5289.7,1046.1z M5179.6,1070.4l-12.3,2.2
			c-8.1,1.4-16.3,2.6-24.4,3.4c-16.3,1.7-32.7,2.1-48.6,0c-8-1-15.7-2.9-23.2-5.3c-0.3-0.1-0.6-0.2-0.9-0.4c0.9-1.1,1.8-2.5,2.4-4.5
			c0.6-2.2,0.5-4.7-0.1-6.6c-0.3-0.9-0.6-1.6-1-2.3c40.9-14.3,80.6-32,119-52.2c40.3-21.1,79.1-45.2,115.9-72.3
			c36.5-27.4,71.1-57.7,100.4-93.1c22.2-26.2,41.1-55.9,53.9-87.6c1.5,1.3,3.1,2.6,4.6,3.9c1.2,1,2.5,1.8,3.8,2.8
			c-5.7,8-12,16.8-18.7,26.1c-25.5,35.1-47.4,62.8-45.5,64.5c1.8,1.6,27-23.7,52.7-59.2c6.7-9.2,12.8-18.2,18-26.5
			c4.1,3.1,8.2,6.1,12.3,9.1c-1.8,2.3-3.5,4.7-5.3,7.1c-26.5,35.9-46.3,66.2-44.3,67.7s25-26.5,51.5-62.4c1.8-2.4,3.5-4.8,5.2-7.2
			c4.3,3,8.6,6,12.9,9c-24.2,35.1-43.3,60.3-41.7,61.8c1.5,1.3,23.6-22.1,48.9-57.1c4.2,2.8,8.5,5.6,12.8,8.3
			c-17.1,24.6-28,42-26.6,43c1.4,1,14.8-14.8,33.2-38.7c5.7,3.5,11.5,6.8,17.3,10.2c-9.1,14.7-14.3,24.1-13.4,24.9
			c1,0.7,8.1-7.7,18.8-21.8c1.7,1,3.5,2,5.2,2.9l-1.6,1.9c-7.7,9.1-16.1,17.7-24.2,26.5c-8.2,8.8-16.3,17.6-24.8,26
			c-33.1,34.6-68.2,67.4-103.4,99.9c-8.8,8.2-17.8,16.1-26.7,24.2c-8.9,8.1-17.9,16-26.9,24c-15.7,14.2-31.9,28-48.1,41.8
			c-1.2-1.5-2.7-2.2-4.1-2.6c-0.6-0.1-1.3-0.2-2-0.2c-0.6,0-1.2,0.1-1.5,0.2c-1.2,0.3-1.8,0.5-2.4,0.7c-8.7,3.2-15.8,6.5-23.6,9.6
			c-15.3,6.1-30.9,11.8-46.5,15c-7.9,1.6-15.3,2.4-22.8,1.5c-3.4-0.4-7.3-1.5-7.7-2.2c-0.3-0.2,0,0.6-0.1-0.4c0-0.9,0.5-2.2,1.2-5.2
			c0.1-1,0.4-1.4,0.3-3.6c-0.2-1,0-1.5-0.8-3c-0.6-1.3-1.9-2.6-2.8-3.3c-0.8-0.4-1.7-0.8-2.6-1.1c-0.5-0.1-0.9-0.2-1.4-0.3l-0.7,0
			c-0.9,0-1.9,0-2.8,0.1C5183.8,1069.6,5181.7,1070,5179.6,1070.4"/>
		<path id="path184" class="st1" d="M4998.9,992.2c1.5,2,8.4-0.8,15.5-6.1c7.1-5.3,11.6-11.2,10.1-13.2s-8.4,0.8-15.5,6.1
			C5002,984.3,4997.5,990.2,4998.9,992.2z M5005.2,998.5c1.4,2,13.1-4,25.4-14.1c12.4-10.1,20.6-20.2,19-22
			c-1.7-1.8-12.4,5.2-24.6,15.2C5012.9,987.4,5003.8,996.5,5005.2,998.5L5005.2,998.5z M4846.3,1036.9c11.9-3.2,23.8-6.5,35.6-10.1
			c15.1-5.8,30.6-10.9,45.5-17.6c14.8-6.8,29.7-13.4,43.8-21.7c7.1-4,14.3-7.9,21.2-12.3l20.5-13.5c26.6-19,51.8-40.3,73.3-65
			c10.7-12.4,20.8-25.3,29.4-39.2c7.1-11.4,13.5-23.2,18.4-35.7c6.7-2,13.4-3.9,20-5.9c-8,9.2-19.4,23.6-31.7,40.4
			c-21.6,29.5-37.5,54.5-35.5,55.9c2,1.4,21.1-21.3,42.7-50.7c14.8-20.1,26.7-38,32.2-47.9c8.5-2.5,16.9-4.9,25.4-7.4
			c-8,6.4-23.3,21.5-39,41.2c-21.8,27.3-35.3,52.3-33.3,53.6c2.1,1.4,18.8-21.1,40.3-48c18.5-23.4,34.6-42.5,37.4-48.3
			c5-1.4,10-2.8,15-4.3c-0.6,1-1.3,1.9-1.9,3c-6.1,10.1-14.3,23.8-24.1,38.6c-19.5,29.7-38,51.9-36.1,53.7
			c1.6,1.7,23.6-18.3,43.5-48.8c10-15.1,17.6-29.8,22.2-40.6c1.3-3.3,2.6-5.8,3.8-8c4.4-1.2,8.7-2.5,13.1-3.7
			c0.4-0.1,0.7-0.2,1.1-0.3c-7.3,9.9-17.7,24.8-29.7,41.4c-21.5,29.8-39.9,53.3-38,55c1.8,1.6,23.5-19.6,45.2-49.8
			c14.3-19.7,24.8-38,29.9-48.7c6.2-1.8,12.4-3.5,18.6-5.3c-7.5,9.6-19,25.9-32.1,44.3c-21.3,30-38.9,54.2-37,55.8
			c1.8,1.5,22.7-20.4,44.2-50.7c15.4-21.6,26.8-41.3,31.4-51.3c7.5-2.1,15-4.2,22.5-6.3c-7.4,8.2-17.7,20.3-29.6,33.6
			c-22.1,24.8-41.1,44-39.4,45.9c1.5,1.8,23.6-14.7,46-40c14.9-16.7,25.9-32.5,31.2-41.9c7.4-2.1,14.8-4.1,22.1-6.2
			c-10,12.9-20.5,25.4-31.9,37.1c-13.6,14.8-28.2,28.7-42.9,42.4c-29.7,27.1-61.1,52.3-93.6,75.9l-24.6,17.5
			c-8.2,5.8-16.8,11-25.2,16.6c-16.5,11.5-34.1,21.4-51.2,32.1c-8.5,5.5-17.4,10.2-26.2,15.2l-26.3,15.1
			c-15.9,8.9-32.2,17.2-48.2,26.2c-0.6-0.5-1.3-1-1.8-1.2c-1.5-0.8-3.1-1.1-4.7-1.3c-5.3-0.4-9.3,0.2-13.6,0.5
			c-16.9,1.9-33.3,4.7-49.8,6.2c-8,0.7-16.7,1.3-23.5-0.1l-2.2-0.8c-0.4-0.4-1.2-0.6-1.3-0.9c-0.6-0.6-0.8-0.9-0.6-2.5
			c0.1-1.6,0.8-3.2,1.2-6.2c0.1-0.7,0-2.1-0.2-3.2C4847.5,1038.4,4846.9,1037.6,4846.3,1036.9"/>
		<path id="path186" class="st1" d="M4901.1,777.5c1.1,0.3,2.7-1.7,4.3-5c-0.1,3.2,0.3,5.3,1.5,5.7c2.4,0.7,6.6-6.5,9.5-16.1
			c2.9-9.6,3.4-18,1-18.7c-1.3-0.4-3.1,1.6-5,5.1c1.2-7.8,1-13.6-0.8-14c-2.4-0.6-6.7,8.6-9.5,20.4
			C4899.2,766.8,4898.8,776.9,4901.1,777.5L4901.1,777.5z M4921.4,779.6c2.3,0.8,7.6-9,11.8-21.9c4.2-12.9,5.6-23.9,3.3-24.6
			c-2.3-0.8-7.6,9-11.8,21.9C4920.6,767.9,4919.1,778.9,4921.4,779.6z M4853.7,718.9l91.7,7.9c33.2,3.1,66.3,6.2,99.2,10.4
			c16.5,1.9,32.9,4.2,49.3,6.9c16.4,2.4,32.7,5.6,48.9,8.9c28.9,6.4,57.8,13.6,84.5,27l-3.2,0.9c-56.2,16.4-112.4,32.8-168.1,50.9
			c-3.2,1-6.4,2.1-9.5,3.1c-6.6-6.9-15.1-12-23.6-16.2c-10.8-5-22.1-8.8-33.5-11.8c-22.8-6.1-46.2-9.4-69.5-11.7
			c-23.3-2-46.7-2.9-70.1-2.4c-20.7,0.4-41.4,1.6-61.9,4.3c1-1,2-1.9,3.2-2.9c6.1-5.2,13.1-10,20-14.8c6.9-4.8,14-9.5,21-14.5
			c3.5-2.5,7-5.2,10.5-8.1c1.7-1.6,3.5-3.2,5.3-5.8c0.9-1.1,2.2-5,2-6.1c0.1-1.6-0.1-3.2-0.4-4.5
			C4843.9,730.7,4847.2,724.4,4853.7,718.9"/>
		<path id="path188" class="st1" d="M5529,966.4c19.7-21.6,29.4-43.6,27.3-44.6c-2.2-1.3-14.9,17.9-33.9,38.7
			c-18.8,20.8-36.7,35.3-35.2,37.4C5488.4,999.8,5509.3,988.1,5529,966.4z M5427.3,1020.4l-3.2,1.8c-4.2,2.4-7.8,4.9-11.5,7.3
			l-21.8,14.8c-14.5,9.6-29.1,18.8-44.4,26.2c-14,6.9-29.2,11.7-43.1,11.2c-0.5-1.3-0.7-2.7-0.4-3.4c0.2-0.8,0.5-1.5,1.1-2.3
			c0.2-0.2,0.4-0.4,0.6-0.6l0.3-0.3l1-1c0.2-0.2,0.4-0.4,0.9-1c0.2-0.3,0.3-0.3,0.8-1.4c0.2-1,1.1-0.9,0.4-5.2
			c-0.2-0.6-0.5-1-0.7-1.5c37.7-25.4,73.8-53.1,108.6-82.2c37-31,72.7-63.6,106.4-98.3c17.9-18.8,35.5-37.8,52.4-57.6
			c14.2,7.5,28.7,14.7,43.5,21.3c13.1,5.7,26.7,10.7,41.2,14.2c-1.3,1.9-2.6,3.9-3.9,5.8c-22.8,34.1-44.8,68.8-65.8,104.2
			c-0.7,0.1-1.2,0.1-1.4-0.1c-4.7-1.3-7.4-0.4-10,0.1c-2.6,0.6-4.9,1.4-7.1,2.3c-8.8,3.5-16.5,7.8-24.4,12.1
			c-30.9,17.3-60.1,37.3-90.6,53c-3.8,1.8-7.6,3.7-11.3,4.9c-1.8,0.6-3.5,1-4.8,1.2c-0.2,0.1-1.3-0.1-1.9-0.3c0-0.8,0.5-2.3,1.1-3.8
			c0.7-1.7,1.6-3.6,2.6-5.6c1-2.2,2.1-3.7,3-8c0.1-0.8,0.2-1.1,0.1-2.3c0-0.5-0.1-1-0.2-1.6c-0.2-0.7-0.5-1.5-0.9-2.1
			c-1.6-3-5.3-4.1-6.5-4.1c-3.2-0.2-4.4,0.3-5.9,0.7L5427.3,1020.4"/>
		<path id="path190" class="st1" d="M5060.3,696.9c2.3,0.9,8.3-9,12.4-22.5c4.1-13.5,4.8-25,2.4-25.6c-2.4-0.5-6.8,9.9-10.9,23
			C5060.2,684.9,5058,696,5060.3,696.9z M5073.4,701c2.3,0.9,8.5-9.3,13.8-22.8c5.3-13.5,7.8-25.2,5.5-26.1
			c-2.3-0.9-8.5,9.3-13.8,22.8C5073.5,688.5,5071.1,700.1,5073.4,701L5073.4,701z M5093.6,721.3c2.4,0.6,6.8-8.2,9.9-19.6
			c3.1-11.5,3.7-21.3,1.3-22c-2.4-0.6-6.8,8.1-9.9,19.6C5091.8,710.8,5091.2,720.6,5093.6,721.3z M4919,638.5
			c0.3-0.2,0.6-0.5,0.6-0.5l0.9-0.4c1.5-0.7,3.4-1.4,5.3-2.1c3.8-1.3,7.8-2.6,11.8-3.8l24.3-7.1c3.6-1.1,7.2-2.1,10.9-3.2
			l101.1,17.8c38.5,7.1,77,14.2,115.2,22.5c38.2,8.1,76.2,17.3,113.5,28.6c18.6,5.7,37.1,11.9,55,19.4c15.4,6.2,30.2,13.7,44.1,23
			c-2.8,0.8-5.5,1.6-8.3,2.3l-164,44.6c-24.7-18.3-54.6-28.9-84-37.3c-32.5-9.2-65.8-14.9-99-19.2c-33.4-4-66.8-6.5-100.3-7.3
			c-30.2-0.8-60.5-0.4-90.6,1.8c4-3.1,8.9-6,13.9-9.2l21.8-12.8c7.4-4.4,14.7-8.5,22.1-14.3c1.9-1.8,3.7-2.7,6.1-6.9
			c0.5-0.8,1.2-3.2,0.8-5.4c-0.3-1.2-0.9-2.7-1.7-3.5c-0.6-0.7-1.4-1.3-2.1-1.8c-1.4-0.8-2.2-1-3.2-1.4l-0.8-0.3
			c-2.2-0.9-2.6-1.6-2.9-4.1c-0.4-5.2,3.4-13,8-17.6C4917.8,639.5,4918.4,638.9,4919,638.5"/>
		<path id="path192" class="st1" d="M5482.7,626.3l-0.3-0.4C5482.3,625.7,5482.5,626,5482.7,626.3"/>
		<path id="path194" class="st1" d="M5485,629.1l-1.9-2.3c0-0.6,0.2-1.4,0.6-2.3c1.1-3.4,3.5-7.5,6.2-11.5c3.2,0.7,6.5,1.3,9.7,2.1
			c23.9,5.5,47.7,11.3,71,18.8c21.4,6.8,42.5,15.1,60.8,28.5c-23.2,8-46.6,15.8-70,23.2c-34,10.4-67.9,20.9-102,30.8
			c-1.4-1.5-2.6-3-3.6-4.3c2.1-1.7,4.2-3.4,6.1-5.2c5.9-5.6,11.2-11.8,15.9-18.5c4.7-6.7,8.8-14.1,11.5-22.6
			c2.6-8.3,4.4-18.8-0.1-29.5C5488,633.8,5486.9,631.2,5485,629.1"/>
		<path id="path196" class="st1" d="M5342.5,500.4c24.9,0.1,45.3,1,45.6-1.5c0.4-2.4-20-7.3-45.6-7.4c-25.6-0.2-46,4.5-45.6,6.9
			C5297.2,500.9,5317.6,500.2,5342.5,500.4z M5279.4,479.4c0.5-1.1,3.1-2.6,6.6-3.3c7-1.5,15.3-1.2,23.4-0.5
			c8.1,0.7,16.4,2.1,24.6,3.5c16.4,2.9,32.8,6.8,49.1,11c33.4,7.9,66.7,13.5,100.1,19.3c24.4,4.1,48.8,8,73.3,11.6
			c4.6,1.1,9.1,2.1,13.7,3.2c-8.1,4.3-16,8.8-23.8,13.6c-25.3,16-49.7,33.6-70.1,57.6c-0.5,0.6-0.9,1.2-1.4,1.8
			c-38.9-9.4-78.3-16.8-117.7-23.2c-48.8-7.7-97.9-13.8-147-18.4c-31.3-3-62.6-5.3-94-6.9c8.1-0.8,16.3-1.8,24.5-2.9
			c2.2-0.4,4.4-0.7,6.7-1.3c1.2-0.3,2.4-0.6,3.9-1.1c0.8-0.3,1.5-0.5,2.8-1.4c0.3-0.2,0.6-0.4,1.1-0.9c0.6-0.6,0.8-0.6,1.5-1.8
			c0.6-1.2,1.1-2.1,1.1-3.9c0-1.9-0.7-3.3-0.5-2.9c-2.1-4.9-3.7-7.7-4.7-11.2c-1.9-6.9-1.1-11.6,4.2-15.3c5-3.9,13.1-6,20.6-7.3
			c7.7-1.1,15.8-1.2,24-0.8c16.5,0.8,32.9,3.9,50.5,5.1c4.5,0.2,9,0.4,14.2-0.6c2.5-0.5,5.5-1.2,8.5-3.5c3.1-2.1,5.2-6.4,5.4-9.9
			c0.3-3.3-0.7-6.7-0.7-7.4C5279,480.6,5279.1,479.9,5279.4,479.4"/>
		<path id="path198" class="st1" d="M5839,532.6c-2,1.7-4.3,4-6.8,6.7c-1.1,0-2.3-0.1-3.4-0.1c-4,0-8,0.3-11.9,0.5
			c4.3-6.8,5.6-13.7,4.8-17.8C5827.4,525.5,5833.2,529.1,5839,532.6"/>
		<path id="path200" class="st1" d="M5851.7,540.3c-2.3-0.2-4.6-0.3-6.9-0.4c0.5-1.1,0.9-2.1,1.2-3
			C5847.9,538,5849.8,539.1,5851.7,540.3"/>
		<path id="path202" class="st1" d="M5609.6,520.4c7.1-3.5,14.4-6.9,21.7-9.9c26.6-11.1,54.6-19.8,83.1-21.1
			c17.1-0.8,34.4,1,51.4,4.4c-1.3,1-2.5,2-3.7,3.4c-5.3,5.9-6.9,13.1-3.7,15.9c3.2,2.8,10.1,0.3,15.3-5.6c3.2-3.7,4.9-7.7,5.1-11
			c2.3,0.6,4.6,1.4,6.9,2c1.6,1.1,3.2,2.3,4.9,3.4c-3.5,2-7.5,5.2-11.1,9.6c-7.6,9.4-10,19.5-6.4,21.8c3.6,2.3,11.4-3.4,18.4-12.1
			c3.5-4.4,6.2-8.7,7.7-12.4c0.2-0.5,0.3-0.8,0.3-1c5.5,3.6,10.9,7.2,16.5,10.6c-3.8,1.6-8.3,7.1-12.8,13.6c-2.2,3.3-4,6.4-5.4,9.3
			c-3.9,0.5-7.9,0.8-11.8,1.6c-44.6-2.5-89-7.9-133.2-14.3C5638.5,525.5,5624.1,522.8,5609.6,520.4"/>
		<path id="path204" class="st1" d="M5868.8,557.1c0.6,0.1,1.1,0.3,1.7,0.4c-2.1,2.5-4.6,5.6-7.1,9.1c-6.6,3.5-13.3,6.9-20,10.3
			c4.7-8.4,8.4-16.2,10.7-22.4C5858.9,555.3,5863.9,556.1,5868.8,557.1"/>
		<path id="path206" class="st1" d="M5797.4,506.9c-0.1-0.1-0.8-0.5-1.3-1.1c-0.1-0.1,0-0.2-0.1-0.3c0.9,0.6,1.7,1.1,2.6,1.7
			C5798.3,507.2,5797.9,507.1,5797.4,506.9"/>
		<path id="path208" class="st1" d="M5880.8,560.1c-1.6,1.9-3.1,3.8-4.6,5.8c1-2.4,1.9-4.5,2.6-6.4
			C5879.4,559.6,5880.1,559.9,5880.8,560.1"/>
		<path id="path210" class="st1" d="M5137.8,618.5c2.4,0.5,6.3-8.1,8.7-19.3c2.4-11.2,2.4-20.6,0-21.1c-2.4-0.5-6.3,8.1-8.7,19.3
			C5135.4,608.5,5135.4,618,5137.8,618.5z M5146.6,613.9c2.2,1,6.7-4.2,8.8-12c2.1-7.8,0.8-14.5-1.6-14.8c-2.5-0.3-5.1,5.4-7,12.5
			C5144.9,606.7,5144.3,612.9,5146.6,613.9L5146.6,613.9z M5416,673.7c2.3,0.8,9.3-13.1,14.3-31.4c5-18.3,6-33.8,3.6-34.3
			c-2.4-0.5-7.3,14-12.2,31.9C5416.8,658,5413.6,672.9,5416,673.7L5416,673.7z M5019.3,560.1c0.6-0.2,1.4-0.5,2.3-0.7
			c1.7-0.5,3.7-0.9,5.6-1.2c4-0.7,8-1.3,12.2-1.8c17.9-2.3,35.9-3.8,54-5.5l115.4,15.8c48.8,6.8,97.5,13.6,146,21.5
			c24.3,3.7,48.5,7.9,72.7,12.4c13.3,2.3,26.5,4.9,39.7,7.6c-1.6,2.7-3.1,5.6-4.4,8.9c-1.5,4.4-3.9,10.4-0.4,19.1
			c0.9,1.9,2.7,4.3,3.6,5.4c0.2,0.4,0.5,0.8,0.8,1.1c0.7,0.6,0.8,1.5,1.2,2.3c2.9,6.3-2.5,19.5-9.9,29.7
			c-3.8,5.2-8.2,10.2-12.9,14.6c-2.4,2.2-4.8,4.3-7.3,6.1l-0.9,0.7c-0.3,0.3-0.3,0.2-2.1,1.6c-2.6,2-4.8,6-5.3,9.4
			c-0.9,6.9,1.1,10,2.1,12.7c0.8,1.5,1.6,2.7,2.4,4c-10.3,2.9-20.6,5.7-31,8.5c-12.7-11.5-27.5-20.7-42.5-29
			c-17.6-9.3-35.9-17-54.5-23.7c-37.2-13.6-75.5-23.5-114.1-32c-38.6-8.1-77.5-14.7-116.6-19.5c-32.2-4.1-64.5-6.9-96.9-8.5
			c10.7-3.2,21.4-6.4,32.1-10.1c4.1-1.4,8.2-2.9,12.3-4.8c2.1-0.9,4.2-1.9,6.5-3.2c1.1-0.7,2.3-1.4,3.8-2.8c0.7-0.8,1.6-1.4,2.6-3.6
			c0.4-0.8,0.8-2.6,0.6-4.1c-0.2-1.8-0.9-3.3-1.7-4.2c-3.3-3.6-4.8-3.2-6.3-3.9l-3-0.9c-1.8-0.5-3.4-1.2-4.9-1.8
			c-3-1.5-5.2-3.3-6.1-5.2c-2-3.3,0.2-10,4.5-14.8C5019.1,560.1,5019.1,560.1,5019.3,560.1"/>
		<path id="path212" class="st1" d="M5810.1,547.6c4.4,0.7,8.9,1.4,13.2,2.1c-3.2,4-6.4,8.4-9.7,13.2c-6,8.8-11,17.1-14.7,24.2
			c-1.7-2.2-3.6-4.2-5.5-6c-5-4.4-10.7-8.1-16.4-11.4c-11.6-6.5-23.7-11.7-36-16.4c-16.5-6.2-33.4-11.3-50.4-15.8
			c31.7,3.1,63.5,5.3,95.3,5.4c3.4,0.8,6.8,1.4,10.2,2c-1,3-1.3,5.5-0.1,7C5798.2,554.4,5804.3,552.8,5810.1,547.6"/>
		<path id="path214" class="st1" d="M6159.5,602.4c-2.1,1.6-4.2,3.3-6.3,5c-4.5,3.7-8.8,7.3-12.8,10.7c-0.2,0.1-0.4,0.3-0.7,0.4
			c-1.9-0.6-3.8-1.1-5.7-1.7c2.6-2.4,5-4.8,7-7.1C6146.8,607.7,6153,605.1,6159.5,602.4"/>
		<path id="path216" class="st1" d="M6116.6,1048.5c2.5-0.8,4.9-1.8,7.4-2.7C6121.4,1046.9,6119,1047.8,6116.6,1048.5"/>
		<path id="path218" class="st1" d="M6761.5,664c-48.3-1.6-86.4,9.2-85.8,11.4c0.5,2.6,38.5-4,85.6-2.5c47.1,1.2,84.6,10.1,85.3,7.5
			C6847.3,678.3,6809.9,665.3,6761.5,664L6761.5,664z M6524.9,701.2c-43.5,12-78.2,23.7-77.6,26.1c0.6,2.4,36.4-5.5,80-17.5
			c43.5-12,78.3-23.7,77.6-26.1C6604.1,681.4,6568.3,689.2,6524.9,701.2z M6472.7,676.9c-46.4,11.5-83.5,22.7-83,25.1
			c0.6,2.4,38.7-5,85.1-16.4c46.4-11.5,83.5-22.7,83-25.1C6557.3,658.1,6519.2,665.4,6472.7,676.9z M6894.6,700.7L6917,712
			c14.7,7.5,29.2,15.5,41.4,25.8c3,2.6,6,5.2,8.2,8.1c1.1,1.4,2.1,2.9,2.8,4.2c0.6,1.4,0.5,1.8,0.5,2c-0.1,0.2-0.3,0.6-1,1.5
			c-0.6,0.9-1.7,2.1-2.3,4.6c-0.3,1.2-0.3,2.3-0.1,3.4c-17.4-5.3-34.9-10.3-52.4-15.1c-19.8-4.3-39.6-9.4-59.7-12.7
			c-40.1-7.2-80.7-11.7-121.5-13.3c-40.8-1.2-81.7-0.1-122.2,5.3c-37.1,5-74.2,12.8-109,26.7c-6.5-2.7-13-5.4-19.5-8.1
			c15.6-5,38.9-12.3,65.6-18c48-10.5,88.2-11.4,88.2-14c0.2-2.2-40.9-5.4-90.1,5.3c-30.6,6.5-56.2,16.5-70.9,23.7
			c-19.5-8.1-39.1-16.2-58.7-24.2c14-2.1,45.4-9.5,81.6-19.3c48.6-13.2,87.6-25.8,87-28.1c-0.6-2.4-40.6,6.4-89.3,19.5
			c-40.2,10.9-73.8,21.3-83.9,26c-15-6.1-30.1-12.2-45.2-18.1c16.1-3.7,41.5-10.6,70-19.2c47.3-14.2,85.1-27.6,85.3-30.2
			c6.8-0.6,13.6-1.3,20.4-1.6c22.4-1.2,44.8-1.7,67.2-0.9c44.9,0.9,89.7,5.3,134.4,11.1c22.3,3,44.6,6.4,66.9,10.3
			c20.3,3.3,40.5,7.3,60.6,11.6c-0.1,0.8-0.2,1.8,0,3.1c1.2,5.4,3.9,6.9,5.7,8.7c2,1.6,3.9,3,5.8,4.1
			C6887,696.7,6890.8,698.7,6894.6,700.7"/>
		<path id="path220" class="st1" d="M6349.6,350.7c-9.1-8.4-20.1-7.8-21-3.7c-1.1,4.2,4.5,9.4,10.5,15.1c6.2,5.5,11.8,10.7,15.9,9.3
			C6359.1,370.1,6358.8,359.1,6349.6,350.7z M6380,410c-9,0.7-17.9,1.9-26.6,3.3c-35.1,6-69.1,15.7-102.5,27.1
			c-19.4,7.1-39,13.5-58.6,19.5c3.4-6,6.7-12,9.9-18.1c2.6-3.6,5.1-7.3,7.5-10.9c14.7-23.2,25.7-47.6,37.4-70.9
			c5.9-11.6,11.9-23,18.7-33.5c6.7-10.5,14.5-19.9,23.1-25.7c8.7-5.4,17.4-6.6,27.4-3.1c9.9,3.6,20,10.5,28.9,18.9
			c18.5,16.1,32.8,36.9,42.5,59.7c4.7,10.8,8.4,22,11.3,33.4C6392.4,409.3,6386.2,409.6,6380,410"/>
		<path id="path222" class="st1" d="M6253.7,449.1c33.2-10.6,67.1-19.6,101.4-24.8c15.6-2.1,32-3.9,46.6-2c0.3,1.4,0.6,2.9,0.9,4.3
			c-36.9,9.3-73.6,18.9-110.1,29.1c-39.5,10.9-78.9,22.4-118.2,34c4.3-6.7,8.4-13.4,12.4-20.2
			C6209.2,463.3,6231.7,456.6,6253.7,449.1"/>
		<path id="path224" class="st1" d="M6160.3,510.4c0.5-0.7,1-1.3,1.4-2c3.4-1,6.8-1.9,10.1-2.9c41.4-12.5,82.8-25.2,123.8-38.9
			c36-11.8,71.8-24.6,107.2-38.2c3.3,18.3,4.6,37.2,4.4,56c-0.3,0.4-0.6,0.7-0.5,0.9c0,0.1,0.4,0.1,0.5,0.2
			c-0.2,13.3-1.1,26.6-2.8,39.8c-0.5,3.9-1.1,7.8-1.7,11.7c-45.2,6.7-90.4,14.7-134.4,27.8c-26.1,7.6-52,16.6-77,27.4
			c1.9-2.2,3.4-4.2,4.5-6c5.6-2.6,11.3-5.2,17.2-7.9c14-6.3,27.4-11.9,39.8-16.6c12.4-4.4,23.7-8.2,33.4-10.5
			c19.3-4.9,31.8-6.1,31.7-7.6c0-1-12.8-2.1-33,1.4c-10.1,1.6-22,4.8-34.8,8.9c-12.8,4.3-26.6,9.8-40.7,16.2
			c-23.1,10.5-43.7,20.8-60.5,28.8c1.2-2.4,1.6-4.2,0.8-5.1c-2.8-3.1-17.2,5.2-33.3,17.8c-1.4-0.4-2.9-0.8-4.3-1.2
			c5.5-7.5,7.6-14.1,5.2-16.1c-3.1-2.5-11.9,3-21.4,11.5c-0.9-0.2-1.9-0.5-2.8-0.8c-2.3-0.6-4.6-1.1-6.9-1.7c0-2-0.1-3.8-0.2-5.8
			c15.4-3.6,49.7-14,89.2-27.4c53.3-18,95.8-34.5,95-36.9c-0.8-2.3-44.6,10.4-97.9,28.4c-38.7,13.1-71.6,25.4-86.5,32
			c-0.3-3-0.8-5.8-1.5-8.4l-1.6-6.4c6.4-2.2,12.1-5.5,18-8.5c6.1-4.3,12.6-8.4,18-13.4c3.1-1.2,6.2-2.4,9.3-3.6
			c59.7-23.4,107.3-44.2,106.4-46.5c-0.9-2.1-44.2,12.8-98.9,34c5.4-5.8,10.4-11.8,15.3-17.9c0.7-0.9,1.3-1.9,2-2.8
			c26.8-9.6,44.5-16.9,44-18.4C6196.6,500.6,6182.3,504,6160.3,510.4"/>
		<path id="path226" class="st1" d="M6013.8,606.1c0-0.1,0.1-0.2,0.1-0.4c4.3-2.8,7.8-7.1,10-11.5c-2.4,10.4-3.6,19.6-3.5,25.8
			c-2.5-4.4-4.7-8.9-6.5-13.6C6013.8,606.2,6013.8,606.1,6013.8,606.1"/>
		<path id="path228" class="st1" d="M6148.9,630.1c6.8,2.2,13.5,4.4,20.2,6.7c-2.2,2.3-4.1,4.4-5.6,6.3c-8.7-2-17.4-3.8-26.2-5.3
			C6140.9,635.6,6144.7,633,6148.9,630.1"/>
		<path id="path230" class="st1" d="M6238.6,607.7c-13.5,12.1-24.6,23.7-31,32c-5.2-1.7-10.4-3.4-15.5-5c4.8-3.5,9.8-7.4,14.9-11.8
			c4-3.4,7.6-6.7,11.1-10c6.7-1.8,14-3.9,21.9-6.3C6239.4,606.9,6239,607.3,6238.6,607.7"/>
		<path id="path232" class="st1" d="M6182.1,602.3c14.6-5.2,29.3-10,44.2-14.4c-8.1,5.6-18.5,13.7-29.5,23.1
			c-1.4,1.2-2.8,2.4-4.1,3.6c-8.6,3.4-13.6,5.8-13.3,6.6c0.2,0.5,2.5,0.3,6.3-0.4c-3.4,3-6.5,6-9.4,8.7c-6.3-2-12.6-3.8-18.9-5.8
			c1.9-1.4,3.8-2.9,5.6-4.4C6170.3,613.5,6176.7,607.7,6182.1,602.3"/>
		<path id="path234" class="st1" d="M6132.3,485c-11,9.1-22.2,18.2-33.2,27.7c-17.2,5.3-34.5,10.7-51.7,16.2c-2.9-1.4-5.5-2-7.7-2.3
			c-3.4-0.6-6.4-0.6-9.3-0.6c-4.7,0.1-9.2,0.8-13.6,1.7c-1.4-5.4-2.6-10.8-3.8-16.3c28.5-6.1,57-12.5,85.5-19.3
			c-15.2,12.2-24.6,20.9-23.2,23C6077.3,518.1,6101.9,505.8,6132.3,485"/>
		<path id="path236" class="st1" d="M7110.9,993.7c-2.9,0.6-5.8,1.2-8.7,1.7c-4.2-4.9-8.6-9.1-13.1-13.1c-5.3-4.6-10.8-9-16.4-13.1
			c-7.8-5.6-15.6-11-24.3-15.8c11.7,2.2,23.3,4.3,35.1,6c14.6,1.7,29.1,4.2,43.8,4.8c14.7,1,29.3,2.2,44,1.8
			c7.3-0.1,14.7,0.1,22-0.2l21.9-2l10.9-1l10.8-2.1l21.5-4.3c-32.7,8.8-65.4,17.4-98.2,25.8C7143.8,986.2,7127.4,990.2,7110.9,993.7
			"/>
		<path id="path238" class="st1" d="M6271.3,575.7l35-8l35.3-6.6c11.7-2.4,23.6-4,35.4-5.9c7.7-1.2,15.5-2.4,23.3-3.5
			c-2,10.2-4.4,20.4-7.4,30.3c-6.7,1.1-17,3.4-29.9,6.5c1.6-3,2.3-5.1,1.6-5.7c-1.4-1.3-7.4,2.5-16,9.4c-12,3.1-25.4,6.7-39.5,10.6
			c-3,0.8-6,1.7-8.9,2.5c7.6-9.1,11.7-15.7,10.2-17.3c-2.5-2.6-18.6,8.4-38.2,25.5c-9.8,3-18.7,5.8-26.2,8.3c1-0.9,2-1.7,3-2.6
			c8.8-7.9,16.7-15.7,22.8-22.4c1.4-0.4,2.7-0.8,4.1-1.3c52.5-16.5,94.5-31.7,93.8-34.1c-0.6-2.2-39,7.8-87.5,22.8
			c3-4.2,4.4-7.3,3.4-8.4c-2.1-2.2-13.8,4.6-28.7,16.4c-9.8,3.2-19,6.2-27.5,9.1c7.4-8,12-14.5,13.3-18.2
			C6252.2,580.6,6261.7,578.1,6271.3,575.7"/>
		<path id="path240" class="st1" d="M7037.3,921.1c-17.5,5-31.5,10.2-30.9,12.6c0.5,2.4,15.6,1,33.3-4.1c17.8-5,31.3-11.7,30.5-14
			C7069.4,913.3,7054.8,916.1,7037.3,921.1L7037.3,921.1z M7084.6,952.4c-16.7-2.9-33.3-6.3-49.9-10.1c6.6-0.5,15.5-1.9,25.2-4.6
			c19.3-5.3,33.6-13.3,32.7-15.6c-1-2.3-16.3,1.9-35,7c-16.1,4.5-29.6,8.2-32.9,10.8c-13-3-26-6.3-38.9-9.7c6-0.5,13.4-1.5,21.4-3.5
			c18.8-4.6,32.9-11.9,32-14.2c-0.9-2.4-15.9,1.1-34.1,5.6c-14.2,3.5-26.3,6.6-30.8,9c-5.5-1.5-11-2.9-16.4-4.5
			c6.2-0.6,14.7-2.1,24.1-4.3c18.2-4.3,32.4-9.7,31.7-12.1c-0.6-2.4-15.8-0.8-33.8,3.4c-14.7,3.5-26.7,7.7-30.4,10.4
			c-6.5-1.9-13-3.9-19.4-5.9c5.9-1.3,12.7-3,20.1-4.9c20.9-5.4,37.8-10.4,37.3-12.8c-0.4-2.4-18.3-1.3-39.6,4.2
			c-12.1,3.1-22.4,7-29,10.2c-1.2-0.4-2.5-0.7-3.7-1.1c-2.1-0.7-4.3-1.4-6.4-2.1c7.5-1.2,17-3.2,27.3-6.2
			c22.8-6.5,40.4-14.6,39.6-16.9c-0.8-2.4-19.4,1.9-42,8.3c-15.1,4.3-28.1,8.5-34.9,11.5c-12.4-4-24.7-8-37-12.2
			c17.6-2.5,35.1-4.8,52.6-6.6c22-2.2,44-3.9,66-4.5c22-1,44.1-0.8,66.1,0c20.8,0.5,41.4,2.6,62.5,4.2c0.6,0.7,1.3,1.4,1.9,2.1
			c3.2,3,5.9,6.5,9.5,8.9c13.4,10.7,28.5,18.5,43.7,25.7c30.3,14,61.9,24.9,93.9,34.2c0.3,0.1,0.5,0.2,0.5,0.2
			C7200.7,966.9,7141.8,962.5,7084.6,952.4"/>
		<path id="path242" class="st1" d="M6080.2,1054.3c-0.9-0.3-1.8-0.7-2.6-1.2C6078.5,1053.6,6079.4,1054,6080.2,1054.3"/>
		<path id="path244" class="st1" d="M6898.8,1007c1.2,2.2,9.5-0.7,18.6-6.3c9.1-5.6,15.3-11.9,13.9-13.9c-1.4-2-9.7,0.8-18.6,6.3
			C6903.8,998.6,6897.6,1004.8,6898.8,1007L6898.8,1007z M6927.4,1013c6.2-3.5,9.5-8.6,8-10.5c-1.5-2-6.8-0.4-12.4,2.7
			c-5.5,3.2-9.6,6.9-8.7,9.2C6915.2,1016.7,6921.3,1016.4,6927.4,1013L6927.4,1013z M6920.2,1024c1.3,2.1,6.6,1.1,11.9-2.2
			c5.3-3.3,8.5-7.7,7.2-9.8c-1.3-2.1-6.7-1.1-12,2.2C6922.1,1017.5,6918.9,1021.9,6920.2,1024z M6917.1,921.7
			c1.8,11,7.1,21.2,13.1,30.4c7.2,10.9,15.9,20.5,25.2,29.3c9.4,8.7,19.3,16.8,30,23.7c7.5,5,15.5,9.4,23.7,13.3
			c-3.4-0.4-6.8-1-10.4-1.5c-8.4-1.3-16.8-2.7-25.7-3.2c-4.5-0.2-9-0.2-14.1,1.2c-2.5,0.8-5.5,2.1-7.7,5c-2.2,3-2.5,6.8-2.1,9.5
			c0.5,4.2,1.2,8.4,1.5,12.4c0.4,4,0.2,7.6-0.9,9.2c-1.1,1.7-4.2,3.4-7.9,4.6c-1.5,0.5-3,0.8-4.5,1c-15.4-14.7-30.9-28.9-46.5-43.1
			c-17.1-15.7-34.3-31.1-51-47c-16.8-15.7-33.2-31.8-48.7-48.7c-7.6-8.5-15.1-17.2-21.7-26.5c-5.1-7.1-9.7-14.7-12.7-23
			c51.2,18.6,102.7,36.8,155.2,51.7C6913.7,920.8,6915.4,921.2,6917.1,921.7"/>
		<path id="path246" class="st1" d="M6085.2,1055.3c-1.2-0.1-2.3-0.3-3.4-0.6C6082.9,1055,6084.1,1055.2,6085.2,1055.3"/>
		<path id="path248" class="st1" d="M7048.1,966c4.8,5.5,10.2,10.5,16.1,14.8c9.8,7.1,20.7,12.8,32.8,15.7
			c-3.6,0.6-7.2,1.2-10.7,1.6c-2,0.1-3.5,0.2-5.6,0l-6.4-0.8c-4.3-0.4-8.7-0.7-13.1-0.5c-2.2,0.1-4.5,0.2-6.9,0.7
			c-2.3,0.6-4.9,1-7.6,3.7c-1.4,1.2-2.2,3.8-2,5.7c0.2,1.9,1,3.6,1,3.6c0.1,0.8,0.1,1-0.9,2c-2.1,1.8-6,3.3-9.8,4.2
			c-3.9,1-7.9,1.6-12,2c-2.5,0.4-5.1,0.4-7.7,0.2c-16.3-17.1-33.4-32.3-49.9-48.1c-9.1-8.3-17.8-17-26.2-25.8
			c-6.6-7.1-13-14.3-18.6-22.5c38.9,11.1,78.1,21.2,117.9,29C7041.1,956.8,7044.3,961.6,7048.1,966"/>
		<path id="path250" class="st1" d="M6028.3,578.4c-0.4,1.1-0.7,2.3-1.1,3.5c0.1-1.3,0.3-2.6,0.4-3.8c0,0,0,0,0,0
			C6027.9,578.2,6028.1,578.3,6028.3,578.4"/>
		<path id="path252" class="st1" d="M6039.4,617.6c-0.3-6.7,0.4-13.5,2.3-19.9c0.9,0.2,1.8,0.5,2.7,0.7c-0.3,1-0.6,2-0.9,3
			C6041.9,607.1,6040.5,612.6,6039.4,617.6"/>
		<path id="path254" class="st1" d="M6063.6,704.5c0,0,0.1,0,0.1,0c0.1,0.1,0.2,0.3,0.3,0.4C6063.9,704.8,6063.7,704.6,6063.6,704.5
			"/>
		<path id="path256" class="st1" d="M6047.9,583.5c0.5,0.1,1,0.1,1.5,0.1c-1.2,3.1-2.3,6.3-3.5,9.8c-0.8-0.2-1.7-0.4-2.5-0.6
			C6044.8,589.6,6046.3,586.5,6047.9,583.5"/>
		<path id="path258" class="st1" d="M6808.7,828.8c-29.7,7.4-51.7,19.3-50.7,21.5c1,2.3,24-5.6,52.9-12.8
			c28.9-7.4,52.9-11.3,52.6-13.8C6863.4,821.3,6838.4,821.2,6808.7,828.8z M6786.1,822.3c-29.7,9.4-53.2,18.9-52.4,21.3
			c0.7,2.3,25.4-3.4,55.1-12.8c29.7-9.4,53.2-18.9,52.4-21.3C6840.5,807.1,6815.8,812.8,6786.1,822.3z M7064.2,848.5
			c7.3,3.5,14.1,7.8,20.5,12.9c6.4,5,12.3,10.8,17.9,16.8c1.8,1.8,3.4,3.8,5.1,5.7c-19.5-6.5-39.7-11.5-60.3-13.9
			c-11.2-1.9-22.5-2.2-33.7-3.2c-11.3-0.2-22.6-0.6-33.9-0.1c-22.6,0.9-45.1,3.3-67.2,7.8c-19,3.8-37.7,8.9-55.7,16
			c-9.6-3.2-19.2-6.5-28.7-9.9c9-0.7,26.4-3.8,46.6-7.7c29-5.6,52.4-10.5,52.1-13c-0.3-2.4-24.5-1.4-53.8,4.2
			c-25,4.8-45.2,11.3-50.2,14.5c-5.3-1.9-10.6-3.8-15.8-5.7c11.2-1.9,26.6-5.2,43.4-9.3c33.7-8.2,60.5-16.9,59.9-19.3
			c-0.6-2.4-28.4,2.4-62,10.6c-21.6,5.3-40.2,10.7-50.8,14.6c-5.7-2.1-11.5-4.2-17.2-6.3c10.5-1.7,29.5-6.5,51.1-12.9
			c32.3-9.6,57.9-19.4,57.2-21.7c-0.7-2.4-27.5,3.6-59.8,13.2c-25.7,7.7-46.9,15.3-54.3,19.4c-24.3-9-48.5-18.2-72.6-27.6
			c8.8-0.4,23.8-2.8,40.6-7.5c26.2-7.3,45.9-17.4,45-19.6c-0.9-2.3-21.7,3.9-47.4,11.1c-21.3,6-39.1,10.7-44.5,13.6
			c-5.2-2-10.3-4.1-15.5-6.1c26.9-10,55-15.7,83.1-19.4c31.6-3.8,63.5-4.4,95.2-2.7l23.8,1.6c7.9,0.7,15.8,2,23.7,2.9
			c15.9,1.3,31.5,5,47.3,7.4c8,1.1,15.6,3.4,23.5,4.9l23.6,5.1c12.3,3.1,24.6,6.4,37,9.4c0.5,0.9,1,1.4,1.5,1.9
			c0.7,0.7,1.2,1,1.7,1.4c4.4,2.7,8.1,4,12,5.7C7056.7,845.1,7060.5,846.7,7064.2,848.5"/>
		<path id="path260" class="st1" d="M6037.4,550.9c-2.1,0.8-4.2,1.6-6.1,2.3c-0.3,0-0.5,0-0.8,0c-1.7-1.2-3.3-2.8-4.8-4.4
			c1.6-0.1,3.2-0.2,4.7-0.1c1.9,0.1,3.7,0.3,5,0.6c0.5,0.1,0.8,0.2,1.1,0.3L6037.4,550.9"/>
		<path id="path262" class="st1" d="M6090,1055.1c-1.3,0.2-2.6,0.2-3.8,0.2C6087.5,1055.4,6088.8,1055.3,6090,1055.1"/>
		<path id="path264" class="st1" d="M6024.9,627.5c2.5-2.1,5.8-8.2,9.1-16.9c0.1,6.8,1.2,13.5,3.3,19.8c-1,8.6-0.6,14.4,1.5,15.1
			c1.1,0.3,2.4-0.7,4-2.7c0.4,0.7,0.8,1.3,1.1,2c-1.8,1-3.6,2.2-5.3,3.6C6033.8,641.6,6029.2,634.6,6024.9,627.5"/>
		<path id="path266" class="st1" d="M5763.3,1176.3c0.5,3.3,1,6.7,1.7,10C5764.4,1183.2,5763.8,1179.9,5763.3,1176.3"/>
		<path id="path268" class="st1" d="M6075.5,1051.6c-0.4-0.3-0.8-0.6-1.2-1C6074.6,1051,6075,1051.3,6075.5,1051.6"/>
		<path id="path270" class="st1" d="M6058.4,704.9c0.2,0,0.3,0,0.5,0c1.9,1.9,3.8,3.7,5.6,5.6c-1.3,0-2.5,0.1-3.7,0.1
			C6060,708.7,6059.2,706.8,6058.4,704.9"/>
		<path id="path272" class="st1" d="M6391.3,586.5c-2.2,6.8-4.6,13.6-7.3,20.2c-13.7,3.4-29.4,7.7-46.1,13.1
			c7.8-8.2,14-15.5,18.5-21.7C6371.3,593.5,6383.5,589.5,6391.3,586.5"/>
		<path id="path274" class="st1" d="M6348.2,641.9c-29.7,8.9-50.7,16.5-50.1,18.3c0.4,1.5,15.7-1.2,38.1-6.7
			c-2.8,2.8-5.6,5.6-8.5,8.5c-5,5.1-9.7,10-14.1,14.6c-9.5-3.6-19.1-7.1-28.7-10.5c9.7-6.9,20.9-15.8,32.4-26.3
			c2.3-2,4.4-4.1,6.5-6.1c4.6-1.6,9.3-3.1,14.1-4.7c15.2-5,29.6-9.4,42.4-13.3c-3,6.7-6.2,13.2-9.7,19.6c-0.5,0.1-1,0.3-1.6,0.4
			c4-6.5,5.8-11.1,4.5-12.2C6371.1,621.7,6361.4,629.5,6348.2,641.9"/>
		<path id="path276" class="st1" d="M6218,703c-4.9-7.2-9.7-14.6-14.1-22.2c22.1,7.6,43.7,16.8,64.3,27.6c1.3,0.7,2.5,1.4,3.7,2.1
			c-5.9,0.5-11.8,0.7-17.7,0.3c-11.7-0.5-23.4-3.8-35.5-6.7C6218.5,703.7,6218.2,703.4,6218,703"/>
		<path id="path278" class="st1" d="M6207.7,650.1c7,2.5,14,5,21,7.5c-1.3,1.6-2.5,3.2-3.5,4.6c-5.1-2-10.1-3.9-15.2-5.8
			c-6.7-2.3-13.5-4.4-20.3-6.5c-0.8-2.3-1.5-4.6-2.1-6.9c4.9,1.7,9.8,3.4,14.7,5.1c-0.5,1.3-0.7,2.3-0.2,2.8
			C6202.7,651.8,6204.7,651.4,6207.7,650.1"/>
		<path id="path280" class="st1" d="M6475.8,653.4c12.1-2,24.3-3.6,36.6-4.8c-14.6,2.9-44.2,10.7-78.2,20.9
			c-32.4,9.7-60.3,19.1-74.8,24.8c-1.1-0.4-2.3-0.9-3.4-1.3c17.6-9.6,35.7-17.7,54.6-23.7C6431.9,662,6453.8,657.1,6475.8,653.4"/>
		<path id="path282" class="st1" d="M6182.6,641.3c1.4,0.5,2.7,1,4.1,1.4c0.3,2.2,0.7,4.5,1.1,6.7c-4.2-1.2-8.4-2.4-12.6-3.5
			C6177.5,644.6,6180,643.1,6182.6,641.3"/>
		<path id="path284" class="st1" d="M6020.1,39.7c0.8-1.1,1.8-2.3,2.7-3.5C6021.9,37.3,6020.9,38.5,6020.1,39.7"/>
		<path id="path286" class="st1" d="M6013.1,50c0,0,1.9-3.2,5.2-7.9C6016.5,44.7,6014.7,47.3,6013.1,50"/>
		<path id="path288" class="st1" d="M6029.9,376.3c-4.2,1.3-1.4,22.1,2,47.3c3.5,25.2,6.4,46,10.8,46.1c4.2,0.1,8.2-21.6,4.6-48.2
			C6043.7,394.9,6033.9,375.1,6029.9,376.3z M6017.7,482.8c0.3,6.8,2.9,12.8,7.2,13.5c4.2,0.7,8.7-5.6,8.3-14
			c-0.3-8.4-5.2-14.4-9.4-13.4C6019.6,469.8,6017.4,476,6017.7,482.8z M6152.5,298c2.5,3.4,22.4-7.4,44.4-24.3
			c22-16.9,37.6-33.3,35-36.6c-2.7-3.3-22.6,7.6-44.4,24.3C6165.6,278.1,6149.9,294.5,6152.5,298z M6220.8,198.3
			c-2.8-3.2-20,7.4-38.4,23.8c-18.4,16.3-31,32.2-28.1,35.4c2.9,3.2,20.1-7.5,38.5-23.8C6211,217.3,6223.6,201.5,6220.8,198.3z
			 M6041.1,17.2c11-9.1,24.3-16.4,38.7-17.2c14.4-0.5,28.4,5.7,38.7,15.5c10.5,9.7,19.6,21,28.1,32.5c16.9,23.3,31.1,48.4,44,74.1
			c4.5,9.1,8.8,18.3,12.9,27.6c-0.4-0.9-0.9-1.8-1.7-2.3c-3.5-2.5-9.1-0.7-13.1,3.6c-4,4.3-5.4,10-2.6,13.3c2.7,3.3,9.3,2.3,14-2.8
			c3.5-3.7,4.6-8.3,3.6-11.4c2,4.7,4.1,9.3,6,14c-4.6-0.3-16,8-27.1,20.1c-12.5,13.6-20.1,27.1-17.1,30.2c3,3,15.8-5.8,28.5-19.7
			c9.4-10.3,16-20.3,17.5-26c4.4,10.8,8.5,21.7,12.1,32.8c8,24.4,14.2,49.5,16.5,74.5c-10.1,4.5-31.5,19.1-55.2,38.2
			c-30.9,24.9-53.9,47.9-51.4,51.3c2.6,3.4,29.9-14.1,61.1-39.2c21-16.9,38-32.7,46.2-42.3c0,0,0,0.1,0,0.1
			c0.4,7.9,0.1,15.8-0.8,23.4c-11,5.7-31.4,20.7-52.5,41.5c-29.5,29-48,57.3-44.7,59.9c3.4,2.8,26.8-20.5,55.6-48.9
			c15.8-15.6,29.9-29.4,39.1-39.4c-0.3,1-0.5,2.1-0.8,3.1c-3.5,11.1-12.2,24.4-18.3,37.2c-0.1,0.1-0.1,0.3-0.2,0.4
			c-13.3,6.6-34.8,20.1-57.3,38.2c-35.6,28.5-59.5,57-56.5,59.9c3.1,3.1,31.3-19.9,66.2-47.8c13.8-11.1,26.5-21.3,36.8-29.9
			c-8.8,16.7-17.7,33.3-26.9,49.6c-11.6,7.9-25.6,18-40.8,29.2c-11,8.1-21.2,15.8-30.2,22.8c-32.2,8.8-64.6,17.1-97,25.3
			c-0.8-3.7-1.6-7.4-2.4-11.1c-5.5-28.7-9.7-58.6-6.4-85.8c0.3-3.4,1.1-6.5,1.8-9.7c0.8-3.3,1.7-5.4,3-9.2c3.3-7.9,5.3-16.5,6.4-25
			c1.9-17.2-0.6-33.4-3.7-48.6c-6.5-30.3-14.8-59-21.6-88.2c-1.5-7.1-3.3-14.5-5.6-21.8c3,1.4,7.2,0.6,10.3-2.8
			c4-4.3,3.8-10.1,0.2-12.5c-3.6-2.4-8.5-1.3-11.6,2c-1,1.1-1.7,2.5-2.1,3.9c-1.3-3.5-2.7-7-4.3-10.5c4.2-1.6,9.6-6,14.5-12.2
			c7.2-9.2,10.4-19,7.2-21.8c-3.2-2.8-11.9,2.6-19.4,12.3c-3.3,4.2-5.7,8.4-7.1,12c-5.9-10.8-13.3-20.8-22.7-29.2
			c6.8-8.5,13.7-17.1,20.2-26c13.3-18.3,25.6-37.4,35.9-57.6c5.5-10.6,8.1-16.9,8.1-16.9C6020.8,37.8,6030.2,26.6,6041.1,17.2"/>
		<path id="path290" class="st1" d="M6259.3,625.2c-9,8.5-17.1,16.7-23.5,23.9c-5.6-1.9-11.3-3.9-16.9-5.8
			c4.9-3.4,10.5-7.7,16.6-12.6C6241.9,629.4,6250,627.5,6259.3,625.2"/>
		<path id="path292" class="st1" d="M4768.6,991.9c2.1,1.4,11.8-9.9,22.6-24.6c10.7-14.7,18.5-27.4,16.5-29
			c-1.9-1.5-12.9,8.8-23.7,23.7C4773.1,977,4766.6,990.6,4768.6,991.9z M4734.6,971.8c14.9-8,30.2-15.6,45.5-22.8
			c-4.9,4.4-11.1,11.1-17.1,19.2c-12,16.1-18.2,31.2-16.1,32.4c2.2,1.2,11.7-11.5,23.3-27.1c9.9-13.4,18.3-24.7,19.2-28.8
			c12.1-5.6,24.3-11,36.6-16.3c-4.4,4-9.6,9.5-14.7,16c-12,15.2-18.5,29.7-16.4,30.9c2.1,1.3,11.8-10.7,23.4-25.4
			c9-11.5,16.6-21.4,18.7-26.1c5.2-2.2,10.4-4.5,15.7-6.6c-4.5,4.3-10.3,10.7-16.4,18.2c-11.7,14.6-19.5,27.6-17.5,29.1
			c2,1.5,12.9-9.1,24.5-23.5c9.4-11.8,16.3-22.5,17.5-27c6.3-2.5,12.6-4.9,18.9-7.3c-3.8,4.7-8.2,10.2-12.8,16.3
			c-13.1,17.1-23.3,31.4-21.5,33.1c1.8,1.6,15.2-10.2,28.6-27.7c7.6-9.9,13.4-19.3,16.6-25.9c1.2-0.5,2.4-1,3.6-1.4
			c2.1-0.8,4.2-1.5,6.4-2.3c-5.1,5.5-11.4,13-17.7,21.7c-14,19.2-22.8,36.4-20.8,37.7c2.1,1.3,14.1-13.5,28-32.5
			c9.2-12.7,16.9-24,20.4-30.6c12.2-4.5,24.4-8.9,36.7-13.2c-12.3,12.8-24.7,25.4-37.3,37.6c-16,15.3-32.2,30.2-49.2,44.3
			c-16.7,14.3-34.2,27.8-52.1,40.7c-16.7,12.4-34.2,23.5-51.8,35.3c-0.9-0.2-1.9-0.3-2.8-0.5c-4.3-0.4-8.7-1.5-13-1.2
			c-17.2-0.2-33.9,3-50.2,6.7c-32.7,7.7-64.5,18.7-95.5,31.2C4634.2,1032,4683.3,999.1,4734.6,971.8"/>
		<path id="path294" class="st1" d="M4688.5,955.5c1.9-2.3,3.9-4.5,5.8-6.7c6.3,1.2,12.4,1.8,18.4,2.3c7,0.3,14,0.5,21,0.2
			c9.6-0.4,19.1-1,28.9-2.5c-10.5,5.5-21,11-31.3,16.9c-12.5,7.7-25.5,14.6-37.4,23.2c-12.2,8.2-24.4,16.3-35.7,25.7
			c-5.7,4.6-11.6,9-17.2,13.7l-16.1,15.1l-8,7.6l-7.2,8.3l-14.3,16.6c20.3-27.1,40.8-54.1,61.5-80.8
			C4667.2,981.7,4677.6,968.4,4688.5,955.5"/>
		<path id="path296" class="st1" d="M6778.4,1015.9c1.4,2,11.6-2.4,22.8-10c11.2-7.6,19.2-15.3,17.8-17.4s-11.6,2.4-22.8,10
			C6785.1,1006.1,6777.1,1013.9,6778.4,1015.9z M6799,1030.2c1.5,1.9,10.5-2.6,20.1-10.2c9.6-7.6,16.1-15.3,14.6-17.2
			c-0.7-0.9-3.1-0.3-6.5,1.3c2-2.4,3-4.4,2.4-5.4c-1.4-2-9.2,1-17.4,6.8c-8.2,5.8-13.7,12.1-12.3,14.1c0.8,1.1,3.6,0.6,7.2-1
			C6801.2,1024,6797.8,1028.7,6799,1030.2L6799,1030.2z M6661.4,910.1c-11.4-12-22.3-24.5-33-37.1c-18.8-22.9-37.1-46.4-49.9-73.4
			l3.1,1.3c54.4,21.7,108.7,43.4,163.8,63.5c3.1,1.1,6.3,2.3,9.5,3.4c0.9,9.5,4.5,18.8,8.6,27.3c5.4,10.6,12,20.6,19.1,30
			c14.2,18.9,30.6,35.9,47.5,52c17.1,15.9,35,31.1,53.7,45.1c16.6,12.5,33.7,24.2,51.7,34.8c-1.5,0.2-2.9,0.3-4.5,0.3
			c-8,0.3-16.4-0.2-24.8-0.7c-8.4-0.5-16.9-1.1-25.5-1.5c-4.3-0.2-8.7-0.2-13.2-0.1c-2.4,0.2-4.8,0.4-7.8,1.3
			c-1.4,0.3-4.9,2.6-5.3,3.6c-1,1.2-1.9,2.6-2.5,3.8c-1.8,11.1-8.2,14-16.8,14.3l-67.3-62.8c-24.2-22.9-48.4-45.7-71.7-69.4
			C6684.1,934.3,6672.6,922.3,6661.4,910.1"/>
		<path id="path298" class="st1" d="M5765.6,1188.5c0.5,2.3,1.3,4.6,2,6.9C5766.8,1193.2,5766.2,1190.9,5765.6,1188.5"/>
		<path id="path300" class="st1" d="M6332.7,684c-1.3-0.5-2.6-1-3.9-1.5c1-0.9,2-1.9,3.1-2.9c1.7-0.2,4.1-0.8,7.4-1.6
			C6337.1,680.1,6334.9,682.1,6332.7,684"/>
		<path id="path302" class="st1" d="M6321.2,692.8c-5.3,3.6-10.8,6.7-16.5,9.2c4-2.7,8.6-6.2,13.6-10.4
			C6319.3,692,6320.2,692.4,6321.2,692.8"/>
		<path id="path304" class="st1" d="M5777.6,1119.8c6-3.4,9.9-8.7,8.2-12.7c-1.6-3.9-8.9-4.7-15.9-0.8c-7,3.9-10.1,10.6-7.5,14
			C5765.1,1123.7,5771.6,1123.1,5777.6,1119.8z M5787.4,1078.2c-1.4-4-10.5-4.4-19.6,0.4c-9.1,4.8-13.9,12.4-11.4,15.9
			c2.5,3.5,10.5,2.1,18.6-2.2C5783.1,1088.1,5788.9,1082.3,5787.4,1078.2z M5792.3,1047.3c-2-3.8-13.5-1.8-25.7,4.6
			c-12.2,6.3-20.6,14.6-18.6,18.3c2,3.8,13.5,1.8,25.7-4.6C5785.9,1059.3,5794.3,1051.1,5792.3,1047.3L5792.3,1047.3z
			 M5801.7,1012.1c-2-3.8-16.8,0.8-33,10.2c-16.1,9.4-27.4,20-25.1,23.6s17-0.9,33-10.2C5792.5,1026.5,5803.8,1015.9,5801.7,1012.1z
			 M5813.6,979.6c-1.9-3.8-20.8,1.8-42.2,12.6c-21.4,10.8-37.1,22.7-35.2,26.5c1.9,3.8,20.8-1.8,42.2-12.6
			S5815.5,983.4,5813.6,979.6L5813.6,979.6z M5899.7,1143.3c21.7-12,51.6-29.9,79.8-56.5c28.3-26.6,47.2-57.5,55.3-81.7
			c8.4-24.3,7.5-40.4,5.7-40.5c-2.4-0.4-5.5,14.7-15.9,36.3c-10.2,21.7-29,49.4-55.8,74.6c-26.8,25.2-54.9,44.2-74.9,58.4
			c-20.2,14.1-32.5,23.5-31.3,25.3C5863.6,1161.1,5877.8,1155.1,5899.7,1143.3L5899.7,1143.3z M6024.8,944.9
			c-4.4-0.2-8.5,10.5-15.4,21.8c-6.7,11.4-14.2,20.1-11.9,23.8c2,3.7,16.3-0.9,25.2-15.9C6031.6,959.7,6029,944.9,6024.8,944.9
			L6024.8,944.9z M5763.8,1158.3c0.1-23.7-2.3-47.5-9.9-70.1c-10.9-27.6-17.9-56.6-20.1-86c-0.3-3.2-0.2-6.3-0.4-9.5
			c5.2,1.5,28.5-7.7,55.3-22.1c29-15.6,51-31.4,49.1-35.2c-1.9-3.8-27.2,5.8-56.5,21.6c-24.5,13.2-43.6,26.2-48.1,32.4
			c-0.5-17.3,1.3-34.5,5-51.2c2.4,3.5,35.2-5.7,73.4-22.8c38.7-17.3,67.8-35.9,65.9-39.7c-2-3.9-33.9,8.4-72.2,25.5
			c-34.4,15.4-62.4,29.6-66.6,35.2c2.7-11.9,6.2-23.5,11-34.7c10.4-1.1,39.3-11.2,72.5-25.8c40.7-17.8,72.2-35.4,70.4-39.3
			c-1.9-3.9-36.2,7.4-76.6,25.1c-27.7,12.1-51.2,24.2-62.7,31.9c6.6-13.4,14.8-25.9,24.4-37.1c14-3.1,38.7-11.1,66.4-22
			c41.9-16.4,74.5-33,72.8-36.9c-1.7-3.9-36.8,6.1-78.5,22.5c-16.3,6.4-31.1,12.8-43.2,18.5c2.5-2.3,5.1-4.6,7.6-6.9
			c7.7-5.4,14.9-11.3,21.6-17.8c12.4-3.3,33.7-11.6,57.3-22.7c35.9-16.8,63.6-33.6,61.9-37.6c-1.7-3.9-32.4,6.6-68.5,23.5
			c-9.5,4.5-18.4,8.9-26.4,13.1c12.7-11.3,25.5-22.6,38.4-33.7c10.5-1.4,26.7-5.5,44.4-12.7c29.6-12,50.7-27.3,48.7-31
			c-2-3.8-25.8,5-54.6,16.6c-4.7,1.9-9.1,3.7-13.4,5.5c3.5-3,7-6,10.5-9c8.5-7.2,17.1-14.1,25.8-20.8c4.8-2,10.4-4.6,16.4-7.5
			c7.5-3.8,14.3-7.4,19.3-10.7c3.9,1.4,8.1,2,11.7,2.1c5.3,0.2,9.7,0.2,13.5,1c1.9,0.3,3.7,0.9,5.4,1.5l6.6,2.7
			c0.8,0.3,1.8,0.5,2.7,0.7c0.8,5.4,1.6,10.9,2.8,16.2c5.1,24.9,12.8,48.8,20.6,72.4c4.3,13,8.6,25.9,12.6,38.9
			c3.4,23.4,6.9,47.2,9.9,70.3c1.3,10.7,2.5,21.4,3.3,32c-0.1,0.8-0.2,1.6-0.3,2.4c-4.8,24.2-9.7,48.8-10.5,73.6
			c-0.2,4.3-0.1,8.7,0,13c-6,14.9-14.3,28.9-24.7,41.6c-18.1,22.6-41.6,40.2-65.6,57.5c-24.1,17.3-47.8,35.2-72,52.3
			c-24.3,16.8-48.6,34.2-75.7,46.2c-6.8,2.8-13.9,5.2-21.2,6.3c-7.2,1.1-15,0.7-21.4-2.9c-6.6-3.5-10.8-10.1-13.6-16.9
			c-2.7-6.9-4.1-14.2-5.2-21.5C5763.3,1176.3,5763.8,1169.2,5763.8,1158.3"/>
		<path id="path306" class="st1" d="M6074.4,937.9c0.2,5.8,0.3,11.6,0.1,17.4c-0.7,0.5-1.1,1-1.2,1.6c-0.1,0.7,0.4,1.4,1.1,2.2
			c-0.3,6.6-0.9,13.2-1.9,19.7c-1.7,11.4-4.8,22.5-9,33.2c0-3.7,0-7.5,0.2-11.1C6064.9,979.4,6069.5,958.7,6074.4,937.9"/>
		<path id="path308" class="st1" d="M6347,669.8c-3.7,1.6-6.9,3-9.5,4.3c0.4-0.4,0.8-0.8,1.2-1.2c9-9.1,16.6-18.1,22.5-25.8
			c0.9-0.2,1.8-0.5,2.7-0.7c-4.2,6.7-8.6,13.2-13.4,19.3C6349.4,667.1,6348.1,668.4,6347,669.8"/>
		<path id="path310" class="st1" d="M6262.3,761.7c-10.9-13.4-21.5-27.1-31.7-41.1c7.2,2,14.5,3.7,22.3,4.5
			c13.4,1.6,27.3,1,40.7-1.9c11.9,7.5,23.2,15.7,32.9,25.2c7.4,8,14.7,16.8,19.8,26.2c-3.9,2.4-8.1,5.2-12.5,8.5
			c-15.2,11.3-25.6,22.9-24,24.7c1.6,1.9,14.4-6.5,29.3-17.6c3.8-2.9,7.4-5.6,10.7-8.2c2.9,7.6,4.1,15.5,2.3,23.6
			c-0.3,5.3-3,10.3-4.8,15.5c-2.9,4.9-5.2,10.1-9,14.8c-1.6,2.4-3.4,4.8-5.2,7.1c-7.7-8.5-15.5-16.8-23-25.3
			C6293.7,799.4,6277.9,780.6,6262.3,761.7"/>
		<path id="path312" class="st1" d="M6094.8,1054.2c5.5-0.9,10.9-2.3,16.2-3.8C6100.9,1053.4,6094.8,1054.2,6094.8,1054.2"/>
		<path id="path314" class="st1" d="M6108.2,1017.8c5.4,1.6,13.4,1.8,21.5-0.8c8.2-2.6,14.6-7.3,18.1-11.7c3.5-4.4,4.4-8.1,2.9-9.6
			c-3.3-2.9-13.1,2.7-25.6,6.5c-12.4,4.1-23.7,5.1-24.7,9.4C6099.9,1013.7,6102.7,1016.3,6108.2,1017.8L6108.2,1017.8z
			 M6210.1,935.5c2.6,3.4,12.4,0.2,21-8.2c8.6-8.3,12.2-18,8.9-20.8c-3.3-2.8-11.7,1.9-19.7,9.6
			C6212.5,923.8,6207.5,932.1,6210.1,935.5z M6077,1052.5c-5.1-3.3-8.2-8.9-9.9-14.7c10.6-17.1,18.4-36.2,22.5-56.1
			c1-5,1.8-9.9,2.4-14.9c4.5,1.2,9.4,2.3,14.8,3.2c18.9,3,34.9,2,35.8-2.2c0.9-4.2-14-10.1-33.4-13.1c-5.7-0.9-11-1.4-15.9-1.6
			c0.6-8.6,0.8-17.3,0.6-25.8c5.8,2,12.9,4,20.6,5.6c20.2,4.1,37.5,4.1,38.6-0.1c1.1-4.1-14.8-10.9-35.5-15.1
			c-9.1-1.8-17.4-2.8-24.1-3c-0.4-8.1-1-16.2-1.7-24.1c-0.1-0.7-0.1-1.4-0.2-2.1c7.3,2.2,16.3,4.1,26.4,5.5
			c25,3.3,45.6,1.1,45.9-3.1c0.3-4.3-19.4-9.1-43.8-12.3c-11.4-1.5-21.7-2.3-29.7-2.4c-0.9-8.4-1.8-16.9-2.7-25.3
			c7.1,2,15.2,4,24,6.5c25.2,6.7,45.7,13.2,47.7,9.4c2-3.7-16.7-17.1-43.6-24.3c-10.9-3-21.3-4.3-29.6-4.7c-1-8.6-2-17.2-3-25.8
			c5.3,1.6,11.1,3.2,17.3,5c22.1,6.1,40.3,11.4,42.3,7.5c1.9-3.7-14.4-15.8-38.1-22.4c-8.5-2.4-16.4-3.6-23.2-4.1
			c-0.7-4.9-1.4-9.7-2.2-14.6c2.9,0.6,5.9,1.1,9.1,1.7c19.4,3.3,35.7,5.1,37.1,1c1.4-4-13.7-12.8-34.5-16.3
			c-5.1-0.9-10-1.3-14.4-1.5c-0.9-4.8-1.9-9.6-2.9-14.5c3.2,0.4,6.5,0.7,10.1,0.9c7.5,0.3,14.4-0.1,20.3-0.9
			c9,10.3,18.2,20.4,27.7,30.2c7.3,7.6,14.9,15.1,22.4,22.5c16.6,18.2,33.2,36.5,49.5,55c18.4,21.2,36.9,42.5,54.3,64.3
			c-14,16.6-26,34.7-39.8,50.9c-31.9,37.1-74,68.3-123,78C6088.9,1055.8,6082.2,1056,6077,1052.5"/>
		<path id="path316" class="st1" d="M6258.2,656.7c7.4-2.5,17.2-6,28.8-10.1c-5.9,5.4-11.1,10.4-15.6,14.9c-3.5-1.2-7-2.6-10.5-3.8
			C6260,657.3,6259.1,657,6258.2,656.7"/>
		<path id="path318" class="st1" d="M6234.2,665.9c1.8-1.2,3.7-2.6,5.8-4.1c5.7,2.1,11.5,4.1,17.1,6.3c1.9,0.7,3.8,1.5,5.7,2.2
			c-2.2,2.4-3.7,4.3-5,6C6250.1,672.5,6242.2,669.1,6234.2,665.9"/>
		<path id="path320" class="st1" d="M6304.6,686.3c-3.5,3.9-6.4,7.3-8.8,10.4c-10.3-6.5-21-12.3-31.8-17.6c2.5-1.2,5.5-2.9,8.9-5
			C6283.5,678.2,6294.1,682.3,6304.6,686.3"/>
		<path id="path322" class="st1" d="M6289.1,617.5c7.1-1.9,14.6-3.9,22.2-6.1c7.5-2.1,14.7-4.2,21.6-6.2
			c-7.9,6.8-16.7,14.7-26.1,23.2c-1.4,1.3-2.8,2.5-4.1,3.8c-22.6,8.7-40.6,17.1-50.5,22.4c-0.7-0.2-1.4-0.5-2.1-0.7
			c6.5-5.3,13.6-11.5,21-18.4C6277.7,629.3,6283.7,623.2,6289.1,617.5"/>
	</g>
</g>
</svg>
