<?xml version="1.0" encoding="UTF-8" standalone="no"?>
<svg
   xmlns:dc="http://purl.org/dc/elements/1.1/"
   xmlns:cc="http://creativecommons.org/ns#"
   xmlns:rdf="http://www.w3.org/1999/02/22-rdf-syntax-ns#"
   xmlns:svg="http://www.w3.org/2000/svg"
   xmlns="http://www.w3.org/2000/svg"
   viewBox="0 0 2104.6667 408.73334"
   height="408.73334"
   width="2104.6667"
   xml:space="preserve"
   id="svg2"
   version="1.1"><metadata
     id="metadata8"><rdf:RDF><cc:Work
         rdf:about=""><dc:format>image/svg+xml</dc:format><dc:type
           rdf:resource="http://purl.org/dc/dcmitype/StillImage" /></cc:Work></rdf:RDF></metadata><defs
     id="defs6" /><g
     transform="matrix(1.3333333,0,0,-1.3333333,0,408.73333)"
     id="g10"><g
       transform="scale(0.1)"
       id="g12"><path
         id="path14"
         style="fill:#eddcc6;fill-opacity:1;fill-rule:nonzero;stroke:none"
         d="m 15267.2,2789.36 h -91.6 v 53.77 h 250.9 v -53.77 h -91.6 v -233 h -65.7 v 233 h -2" /><path
         id="path16"
         style="fill:#eddcc6;fill-opacity:1;fill-rule:nonzero;stroke:none"
         d="m 15721.3,2556.36 v 171.27 l -83.7,-141.4 h -29.8 l -83.7,137.41 v -169.27 h -61.7 v 286.77 h 55.7 l 107.6,-179.23 105.5,179.23 h 53.8 v -286.77 h -63.7 v 1.99" /><path
         id="path18"
         style="fill:#eddcc6;fill-opacity:1;fill-rule:nonzero;stroke:none"
         d="m 11425.1,1927.86 c 150.8,0 301.5,0 452.1,0 -196.4,736.24 -903.8,1216.38 -1660.5,1126.96 C 9459.93,2965.41 8884,2333.52 8864.68,1571.98 8845.36,810.25 9388.63,150.082 10139.8,22.4297 10891,-105.219 11621.9,338.281 11855.3,1063.57 c -206,0 -411.7,0 -617.6,0 43.4,-212.691 69.9,-488.109 -36.8,-699.8 -130.5,-258.891 -389.4,-247.34 -616,-138.411 -403.9,194.172 -747.19,674.512 -933,1047.911 -159.91,321.42 -398.29,982.58 -186.99,1369.12 138.6,253.52 402.87,226.83 623.29,116.31 222.9,-111.73 384.8,-271.04 540.3,-457.84 197,-236.39 488.7,-373 796.6,-373" /><path
         id="path20"
         style="fill:#eddcc6;fill-opacity:1;fill-rule:nonzero;stroke:none"
         d="m 15117.5,2140.35 c -335.6,776.86 -1237.3,1134.73 -2014.4,799.17 -776.9,-335.36 -1134.7,-1237.29 -799.2,-2014.161 335.6,-776.871 1237.3,-1134.73 2014.4,-799.168 776.9,335.559 1134.7,1237.289 799.2,2014.159 m -487.1,-117.5 c -52.2,-299.31 -158.6,-565.77 -304.1,-829.64 -145.4,-263.671 -313.9,-495.671 -539.1,-699.401 -178.5,-161.309 -515.8,-414.2192 -793.6,-261.079 -277.6,153.141 -244,573.141 -202.8,809.93 52.2,299.31 158.6,565.77 304.1,829.64 145.4,263.66 313.9,495.67 539.1,699.2 178.5,161.31 515.8,414.22 793.6,261.08 277.8,-152.95 244,-572.94 202.8,-809.73" /><path
         id="path22"
         style="fill:#eddcc6;fill-opacity:1;fill-rule:nonzero;stroke:none"
         d="M 6253.28,2140.35 C 5917.72,2917.21 5015.79,3275.08 4238.92,2939.52 3462.05,2603.96 3104.19,1702.03 3439.75,925.16 3775.31,148.289 4677.24,-209.57 5454.11,125.988 6230.98,461.551 6588.84,1363.48 6253.28,2140.35 m -838,-1480.651 C 5337.01,432.469 5163.75,48.3203 4846.71,48.3203 c -317.43,0 -490.49,384.3517 -568.76,611.7817 -98.77,287.16 -134.42,571.548 -134.42,872.648 0,301.31 35.45,585.89 134.42,873.26 78.27,227.22 251.52,611.38 568.56,611.38 317.24,0 490.5,-384.55 568.77,-611.78 98.77,-287.17 134.42,-571.55 134.42,-872.66 0,-301.5 -35.45,-586.079 -134.42,-873.251 v 0" /><path
         id="path24"
         style="fill:#eddcc6;fill-opacity:1;fill-rule:nonzero;stroke:none"
         d="m 2560.92,1927.86 c 150.75,0 301.5,0 452.06,0 C 2816.62,2664.1 2109.26,3144.24 1352.5,3054.82 595.746,2965.41 19.8164,2333.52 0.5,1571.98 -18.8164,810.25 524.453,150.082 1275.63,22.4297 2026.81,-105.219 2757.67,338.281 2991.07,1063.57 c -205.91,0 -411.63,0 -617.55,0 43.42,-212.691 69.9,-488.109 -36.84,-699.8 C 2206.24,104.879 1947.35,116.43 1720.72,225.359 1316.85,419.531 973.527,899.871 787.723,1273.27 c -159.914,321.42 -398.09,982.58 -186.996,1369.12 138.605,253.52 402.873,226.83 623.323,116.31 222.85,-111.73 384.75,-271.04 540.28,-457.84 196.96,-236.39 488.91,-373 796.59,-373" /><path
         id="path26"
         style="fill:#eddcc6;fill-opacity:1;fill-rule:nonzero;stroke:none"
         d="m 8197.34,1826.29 c -14.93,-22.9 -32.26,-44.6 -52.37,-64.72 -135.02,-135.02 -322.82,-135.02 -440.11,-252.32 -109.73,-109.73 -100.57,-259.28 -201.94,-360.45 -47.2,-47.2 -89.22,-80.06 -150.15,-103.75 179.03,-85.839 444.49,-16.53 643.83,182.81 183.22,183.02 256.7,421.99 200.74,598.43" /><path
         id="path28"
         style="fill:#eddcc6;fill-opacity:1;fill-rule:nonzero;stroke:none"
         d="m 7389.81,1223.48 c 106.74,106.74 72.88,242.56 173.25,342.93 135.02,135.02 346.32,144.38 462.02,260.28 44.81,44.81 67.11,92.01 75.68,148.17 -172.86,149.35 -486.91,91.21 -714.74,-136.62 -227.62,-227.62 -285.77,-541.28 -137.01,-714.13 48.99,24.09 95.39,53.77 140.8,99.37" /></g></g></svg>