<?xml version="1.0" encoding="utf-8"?>
<!-- Generator: Adobe Illustrator 27.2.0, SVG Export Plug-In . SVG Version: 6.00 Build 0)  -->
<svg version="1.1" id="Layer_1" xmlns="http://www.w3.org/2000/svg" xmlns:xlink="http://www.w3.org/1999/xlink" x="0px" y="0px"
	 viewBox="0 0 1920 153.6" style="enable-background:new 0 0 1920 153.6;" xml:space="preserve">
<style type="text/css">
	.st0{fill:#EDDCC6;}
</style>
<path class="st0" d="M1920,76.8c0-6.4,0-12.8,0-19.2c-5,0-10,0.3-14.9,0.8c-20.8,2.3-37.1,12.7-57.1,16.3c-7.9,1.4-15.8,2.1-24,2.1
	c-8.2,0-16-0.7-24-2.1c-20.1-3.6-36.3-14-57.1-16.3c-5-0.5-9.9-0.8-14.9-0.8c-5,0-10,0.3-14.9,0.8c-20.8,2.3-37.1,12.7-57.1,16.3
	c-7.9,1.4-15.8,2.1-24,2.1c-8.2,0-16-0.7-24-2.1c-20.1-3.6-36.3-14-57.1-16.3c-5-0.5-9.9-0.8-14.9-0.8s-10,0.3-14.9,0.8
	c-20.8,2.3-37.1,12.7-57.1,16.3c-7.9,1.4-15.8,2.1-24,2.1c-8.2,0-16-0.7-24-2.1c-20.1-3.6-36.3-14-57.1-16.3
	c-5-0.5-9.9-0.8-14.9-0.8c-5,0-10,0.3-14.9,0.8c-20.8,2.3-37.1,12.7-57.1,16.3c-7.9,1.4-15.8,2.1-24,2.1c-8.2,0-16-0.7-24-2.1
	c-20.1-3.6-36.3-14-57.1-16.3c-5-0.5-9.9-0.8-14.9-0.8c-5,0-10,0.3-14.9,0.8c-20.8,2.3-37.1,12.7-57.1,16.3
	c-7.9,1.4-15.8,2.1-24,2.1c-8.2,0-16-0.7-24-2.1c-20.1-3.6-36.3-14-57.1-16.3c-5-0.5-9.9-0.8-14.9-0.8s-10,0.3-14.9,0.8
	C924.3,60.7,908,71.1,888,74.7c-7.9,1.4-15.8,2.1-24,2.1c-8.2,0-16-0.7-24-2.1c-20.1-3.6-36.3-14-57.1-16.3c-5-0.5-9.9-0.8-14.9-0.8
	c-5,0-10,0.3-14.9,0.8C732.3,60.7,716,71.1,696,74.7c-7.9,1.4-15.8,2.1-24,2.1s-16-0.7-24-2.1c-20.1-3.6-36.3-14-57.1-16.3
	c-5-0.5-9.9-0.8-14.9-0.8c-5,0-10,0.3-14.9,0.8C540.3,60.7,524,71.1,504,74.7c-7.9,1.4-15.8,2.1-24,2.1c-8.2,0-16-0.7-24-2.1
	c-20.1-3.6-36.3-14-57.1-16.3c-5-0.5-9.9-0.8-14.9-0.8c-5,0-10,0.3-14.9,0.8C348.3,60.7,332,71.1,312,74.7c-7.9,1.4-15.8,2.1-24,2.1
	s-16-0.7-24-2.1c-20.1-3.6-36.3-14-57.1-16.3c-5-0.5-9.9-0.8-14.9-0.8c-5,0-10,0.3-14.9,0.8C156.3,60.7,140,71.1,120,74.7
	c-7.9,1.4-15.8,2.1-24,2.1s-16-0.7-24-2.1c-20.1-3.6-36.3-14-57.1-16.3C10,57.9,5,57.6,0,57.6c0,0,0,0,0,0C0,64,0,70.4,0,76.8
	c4.2,0,8.4,0.1,12.5,0.6c7.9,1,15.6,3.4,23.1,6.1c5.8,2.1,11.5,4.3,17.4,6.2c5.4,1.7,10.9,3,16.5,4C78.2,95.3,87.1,96,96,96
	c8.9,0,17.8-0.7,26.5-2.3c2.8-0.5,5.6-1.1,8.4-1.8c2.7-0.7,5.4-1.4,8-2.2c5.9-1.9,11.6-4.1,17.4-6.2c7.5-2.7,15.3-5.1,23.2-6.1
	c4.1-0.5,8.3-0.6,12.4-0.6c4.2,0,8.4,0.1,12.5,0.6c7.9,1,15.6,3.4,23.2,6.1c5.8,2.1,11.5,4.3,17.4,6.2c5.4,1.7,10.9,3,16.5,4
	c8.8,1.6,17.6,2.3,26.5,2.3c8.9,0,17.8-0.7,26.5-2.3c2.8-0.5,5.6-1.1,8.4-1.8c2.7-0.7,5.4-1.4,8-2.3c5.9-1.9,11.6-4.1,17.3-6.2
	c7.5-2.7,15.3-5.1,23.2-6.1c4.1-0.5,8.3-0.6,12.5-0.6c4.2,0,8.4,0.1,12.5,0.6c7.9,1,15.6,3.4,23.1,6.1c5.8,2.1,11.5,4.4,17.4,6.2
	c5.4,1.7,10.9,3,16.5,4c8.8,1.6,17.6,2.3,26.5,2.3c8.9,0,17.8-0.7,26.5-2.3c2.8-0.5,5.6-1.1,8.4-1.8c2.7-0.7,5.4-1.4,8-2.3
	c5.9-1.9,11.6-4.1,17.4-6.2c7.5-2.7,15.2-5.1,23.2-6.1c4.1-0.5,8.3-0.6,12.5-0.6c4.2,0,8.3,0.1,12.5,0.6c7.9,1,15.6,3.4,23.2,6.1
	c5.8,2.1,11.5,4.4,17.4,6.2c5.4,1.7,10.9,3,16.5,4c8.8,1.6,17.6,2.3,26.5,2.3c8.9,0,17.8-0.7,26.5-2.3c2.8-0.5,5.6-1.1,8.4-1.8
	c2.7-0.7,5.4-1.4,8-2.3c5.9-1.9,11.6-4.1,17.4-6.2c7.5-2.7,15.3-5.1,23.2-6.1c4.1-0.5,8.3-0.6,12.5-0.6c4.2,0,8.4,0.1,12.5,0.6
	c7.9,1,15.6,3.4,23.1,6.1c5.8,2.1,11.5,4.3,17.4,6.2c5.4,1.7,10.9,3,16.5,4c8.8,1.6,17.6,2.3,26.5,2.3c8.9,0,17.8-0.7,26.5-2.3
	c2.8-0.5,5.6-1.1,8.4-1.8c2.7-0.7,5.4-1.4,8-2.2c5.9-1.9,11.6-4.1,17.4-6.2c7.5-2.7,15.3-5.1,23.2-6.1c4.1-0.5,8.3-0.6,12.4-0.6
	c4.2,0,8.4,0.1,12.5,0.6c7.9,1,15.6,3.4,23.2,6.1c5.8,2.1,11.5,4.3,17.4,6.2c5.4,1.7,10.9,3,16.5,4c8.8,1.6,17.6,2.3,26.5,2.3
	c8.9,0,17.8-0.7,26.5-2.3c2.8-0.5,5.6-1.1,8.4-1.8c2.7-0.7,5.4-1.4,8-2.3c5.9-1.9,11.6-4.1,17.3-6.2c7.5-2.7,15.3-5.1,23.2-6.1
	c4.1-0.5,8.3-0.6,12.5-0.6c4.2,0,8.4,0.1,12.5,0.6c7.9,1,15.6,3.4,23.1,6.1c5.8,2.1,11.5,4.4,17.4,6.2c5.4,1.7,10.9,3,16.5,4
	c8.8,1.6,17.6,2.3,26.5,2.3c8.9,0,17.8-0.7,26.5-2.3c2.8-0.5,5.6-1.1,8.4-1.8c2.7-0.7,5.4-1.4,8-2.3c5.9-1.9,11.6-4.1,17.4-6.2
	c7.5-2.7,15.2-5.1,23.2-6.1c4.1-0.5,8.3-0.6,12.5-0.6c4.2,0,8.3,0.1,12.5,0.6c7.9,1,15.6,3.4,23.2,6.1c5.8,2.1,11.5,4.4,17.4,6.2
	c5.4,1.7,10.9,3,16.5,4c8.8,1.6,17.6,2.3,26.5,2.3c8.9,0,17.8-0.7,26.5-2.3c2.8-0.5,5.6-1.1,8.4-1.8c2.7-0.7,5.4-1.4,8-2.3
	c5.9-1.9,11.6-4.1,17.4-6.2c7.5-2.7,15.3-5.1,23.2-6.1c4.1-0.5,8.3-0.6,12.5-0.6c4.2,0,8.4,0.1,12.5,0.6c7.9,1,15.6,3.4,23.1,6.1
	c5.8,2.1,11.5,4.3,17.4,6.2c5.4,1.7,10.9,3,16.5,4c8.8,1.6,17.6,2.3,26.5,2.3c8.9,0,17.8-0.7,26.5-2.3c2.8-0.5,5.6-1.1,8.4-1.8
	c2.7-0.7,5.4-1.4,8-2.2c5.9-1.9,11.6-4.1,17.4-6.2c7.5-2.7,15.3-5.1,23.2-6.1c4.1-0.5,8.3-0.6,12.4-0.6c4.2,0,8.4,0.1,12.5,0.6
	c7.9,1,15.6,3.4,23.2,6.1c5.8,2.1,11.5,4.3,17.4,6.2c5.4,1.7,10.9,3,16.5,4c8.8,1.6,17.6,2.3,26.5,2.3c8.9,0,17.8-0.7,26.5-2.3
	c2.8-0.5,5.6-1.1,8.4-1.8c2.7-0.7,5.4-1.4,8-2.3c5.9-1.9,11.6-4.1,17.4-6.2c7.5-2.7,15.3-5.1,23.2-6.1
	C1911.7,76.9,1915.8,76.8,1920,76.8C1920,76.8,1920,76.8,1920,76.8z"/>
<path class="st0" d="M1920,19.2c0-6.4,0-12.8,0-19.2c-5,0-10,0.3-14.9,0.8c-20.8,2.3-37.1,12.7-57.1,16.3c-7.9,1.4-15.8,2.1-24,2.1
	c-8.2,0-16-0.7-24-2.1c-20.1-3.6-36.3-14-57.1-16.3C1738,0.3,1733,0,1728,0c-5,0-10,0.3-14.9,0.8c-20.8,2.3-37.1,12.7-57.1,16.3
	c-7.9,1.4-15.8,2.1-24,2.1c-8.2,0-16-0.7-24-2.1c-20.1-3.6-36.3-14-57.1-16.3C1546,0.3,1541,0,1536,0s-10,0.3-14.9,0.8
	c-20.8,2.3-37.1,12.7-57.1,16.3c-7.9,1.4-15.8,2.1-24,2.1c-8.2,0-16-0.7-24-2.1c-20.1-3.6-36.3-14-57.1-16.3C1354,0.3,1349,0,1344,0
	c-5,0-10,0.3-14.9,0.8c-20.8,2.3-37.1,12.7-57.1,16.3c-7.9,1.4-15.8,2.1-24,2.1c-8.2,0-16-0.7-24-2.1c-20.1-3.6-36.3-14-57.1-16.3
	C1162,0.3,1157,0,1152,0c-5,0-10,0.3-14.9,0.8c-20.8,2.3-37.1,12.7-57.1,16.3c-7.9,1.4-15.8,2.1-24,2.1c-8.2,0-16-0.7-24-2.1
	c-20.1-3.6-36.3-14-57.1-16.3C970,0.3,965,0,960,0s-10,0.3-14.9,0.8C924.3,3.1,908,13.5,888,17.1c-7.9,1.4-15.8,2.1-24,2.1
	c-8.2,0-16-0.7-24-2.1c-20.1-3.6-36.3-14-57.1-16.3C778,0.3,773,0,768,0c-5,0-10,0.3-14.9,0.8C732.3,3.1,716,13.5,696,17.1
	c-7.9,1.4-15.8,2.1-24,2.1s-16-0.7-24-2.1c-20.1-3.6-36.3-14-57.1-16.3C586,0.3,581,0,576,0c-5,0-10,0.3-14.9,0.8
	C540.3,3.1,524,13.5,504,17.1c-7.9,1.4-15.8,2.1-24,2.1c-8.2,0-16-0.7-24-2.1c-20.1-3.6-36.3-14-57.1-16.3C394,0.3,389,0,384,0
	c-5,0-10,0.3-14.9,0.8C348.3,3.1,332,13.5,312,17.1c-7.9,1.4-15.8,2.1-24,2.1s-16-0.7-24-2.1c-20.1-3.6-36.3-14-57.1-16.3
	C202,0.3,197,0,192,0c-5,0-10,0.3-14.9,0.8C156.3,3.1,140,13.5,120,17.1c-7.9,1.4-15.8,2.1-24,2.1s-16-0.7-24-2.1
	C52,13.5,35.7,3.1,14.9,0.8C10,0.3,5,0,0,0c0,6.4,0,12.8,0,19.2c4.2,0,8.4,0.1,12.5,0.6c7.9,1,15.6,3.4,23.1,6.1
	c5.8,2.1,11.5,4.3,17.4,6.2c5.4,1.7,10.9,3,16.5,4c8.8,1.6,17.6,2.3,26.5,2.3c8.9,0,17.8-0.7,26.5-2.3c2.8-0.5,5.6-1.1,8.4-1.8
	c2.7-0.7,5.4-1.4,8-2.2c5.9-1.9,11.6-4.1,17.4-6.2c7.5-2.7,15.3-5.1,23.2-6.1c4.1-0.5,8.3-0.6,12.4-0.6c4.2,0,8.4,0.1,12.5,0.6
	c7.9,1,15.6,3.4,23.2,6.1c5.8,2.1,11.5,4.3,17.4,6.2c5.4,1.7,10.9,3,16.5,4c8.8,1.6,17.6,2.3,26.5,2.3c8.9,0,17.8-0.7,26.5-2.3
	c2.8-0.5,5.6-1.1,8.4-1.8c2.7-0.7,5.4-1.4,8-2.3c5.9-1.9,11.6-4.1,17.3-6.2c7.5-2.7,15.3-5.1,23.2-6.1c4.1-0.5,8.3-0.6,12.5-0.6
	c4.2,0,8.4,0.1,12.5,0.6c7.9,1,15.6,3.4,23.1,6.1c5.8,2.1,11.5,4.4,17.4,6.2c5.4,1.7,10.9,3,16.5,4c8.8,1.6,17.6,2.3,26.5,2.3
	c8.9,0,17.8-0.7,26.5-2.3c2.8-0.5,5.6-1.1,8.4-1.8c2.7-0.7,5.4-1.4,8-2.3c5.9-1.9,11.6-4.1,17.4-6.2c7.5-2.7,15.2-5.1,23.2-6.1
	c4.1-0.5,8.3-0.6,12.5-0.6c4.2,0,8.3,0.1,12.5,0.6c7.9,1,15.6,3.4,23.2,6.1c5.8,2.1,11.5,4.4,17.4,6.2c5.4,1.7,10.9,3,16.5,4
	c8.8,1.6,17.6,2.3,26.5,2.3c8.9,0,17.8-0.7,26.5-2.3c2.8-0.5,5.6-1.1,8.4-1.8c2.7-0.7,5.4-1.4,8-2.3c5.9-1.9,11.6-4.1,17.4-6.2
	c7.5-2.7,15.3-5.1,23.2-6.1c4.1-0.5,8.3-0.6,12.5-0.6c4.2,0,8.4,0.1,12.5,0.6c7.9,1,15.6,3.4,23.1,6.1c5.8,2.1,11.5,4.3,17.4,6.2
	c5.4,1.7,10.9,3,16.5,4c8.8,1.6,17.6,2.3,26.5,2.3c8.9,0,17.8-0.7,26.5-2.3c2.8-0.5,5.6-1.1,8.4-1.8c2.7-0.7,5.4-1.4,8-2.2
	c5.9-1.9,11.6-4.1,17.4-6.2c7.5-2.7,15.3-5.1,23.2-6.1c4.1-0.5,8.3-0.6,12.4-0.6c4.2,0,8.4,0.1,12.5,0.6c7.9,1,15.6,3.4,23.2,6.1
	c5.8,2.1,11.5,4.3,17.4,6.2c5.4,1.7,10.9,3,16.5,4c8.8,1.6,17.6,2.3,26.5,2.3c8.9,0,17.8-0.7,26.5-2.3c2.8-0.5,5.6-1.1,8.4-1.8
	c2.7-0.7,5.4-1.4,8-2.3c5.9-1.9,11.6-4.1,17.3-6.2c7.5-2.7,15.3-5.1,23.2-6.1c4.1-0.5,8.3-0.6,12.5-0.6c4.2,0,8.4,0.1,12.5,0.6
	c7.9,1,15.6,3.4,23.1,6.1c5.8,2.1,11.5,4.4,17.4,6.2c5.4,1.7,10.9,3,16.5,4c8.8,1.6,17.6,2.3,26.5,2.3c8.9,0,17.8-0.7,26.5-2.3
	c2.8-0.5,5.6-1.1,8.4-1.8c2.7-0.7,5.4-1.4,8-2.3c5.9-1.9,11.6-4.1,17.4-6.2c7.5-2.7,15.2-5.1,23.2-6.1c4.1-0.5,8.3-0.6,12.5-0.6
	c4.2,0,8.3,0.1,12.5,0.6c7.9,1,15.6,3.4,23.2,6.1c5.8,2.1,11.5,4.4,17.4,6.2c5.4,1.7,10.9,3,16.5,4c8.8,1.6,17.6,2.3,26.5,2.3
	c8.9,0,17.8-0.7,26.5-2.3c2.8-0.5,5.6-1.1,8.4-1.8c2.7-0.7,5.4-1.4,8-2.3c5.9-1.9,11.6-4.1,17.4-6.2c7.5-2.7,15.3-5.1,23.2-6.1
	c4.1-0.5,8.3-0.6,12.5-0.6c4.2,0,8.4,0.1,12.5,0.6c7.9,1,15.6,3.4,23.1,6.1c5.8,2.1,11.5,4.3,17.4,6.2c5.4,1.7,10.9,3,16.5,4
	c8.8,1.6,17.6,2.3,26.5,2.3c8.9,0,17.8-0.7,26.5-2.3c2.8-0.5,5.6-1.1,8.4-1.8c2.7-0.7,5.4-1.4,8-2.2c5.9-1.9,11.6-4.1,17.4-6.2
	c7.5-2.7,15.3-5.1,23.2-6.1c4.1-0.5,8.3-0.6,12.4-0.6c4.2,0,8.4,0.1,12.5,0.6c7.9,1,15.6,3.4,23.2,6.1c5.8,2.1,11.5,4.3,17.4,6.2
	c5.4,1.7,10.9,3,16.5,4c8.8,1.6,17.6,2.3,26.5,2.3c8.9,0,17.8-0.7,26.5-2.3c2.8-0.5,5.6-1.1,8.4-1.8c2.7-0.7,5.4-1.4,8-2.3
	c5.9-1.9,11.6-4.1,17.4-6.2c7.5-2.7,15.3-5.1,23.2-6.1C1911.7,19.3,1915.8,19.2,1920,19.2C1920,19.2,1920,19.2,1920,19.2z"/>
<path class="st0" d="M1920,134.4c0-6.4,0-12.8,0-19.2c-5,0-10,0.3-14.9,0.8c-20.8,2.3-37.1,12.7-57.1,16.3c-7.9,1.4-15.8,2.1-24,2.1
	c-8.2,0-16-0.7-24-2.1c-20.1-3.6-36.3-14-57.1-16.3c-5-0.5-9.9-0.8-14.9-0.8c-5,0-10,0.3-14.9,0.8c-20.8,2.3-37.1,12.7-57.1,16.3
	c-7.9,1.4-15.8,2.1-24,2.1c-8.2,0-16-0.7-24-2.1c-20.1-3.6-36.3-14-57.1-16.3c-5-0.5-9.9-0.8-14.9-0.8s-10,0.3-14.9,0.8
	c-20.8,2.3-37.1,12.7-57.1,16.3c-7.9,1.4-15.8,2.1-24,2.1c-8.2,0-16-0.7-24-2.1c-20.1-3.6-36.3-14-57.1-16.3
	c-5-0.5-9.9-0.8-14.9-0.8c-5,0-10,0.3-14.9,0.8c-20.8,2.3-37.1,12.7-57.1,16.3c-7.9,1.4-15.8,2.1-24,2.1c-8.2,0-16-0.7-24-2.1
	c-20.1-3.6-36.3-14-57.1-16.3c-5-0.5-9.9-0.8-14.9-0.8c-5,0-10,0.3-14.9,0.8c-20.8,2.3-37.1,12.7-57.1,16.3
	c-7.9,1.4-15.8,2.1-24,2.1c-8.2,0-16-0.7-24-2.1c-20.1-3.6-36.3-14-57.1-16.3c-5-0.5-9.9-0.8-14.9-0.8s-10,0.3-14.9,0.8
	c-20.8,2.3-37.1,12.7-57.1,16.3c-7.9,1.4-15.8,2.1-24,2.1c-8.2,0-16-0.7-24-2.1c-20.1-3.6-36.3-14-57.1-16.3
	c-5-0.5-9.9-0.8-14.9-0.8c-5,0-10,0.3-14.9,0.8c-20.8,2.3-37.1,12.7-57.1,16.3c-7.9,1.4-15.8,2.1-24,2.1s-16-0.7-24-2.1
	c-20.1-3.6-36.3-14-57.1-16.3c-5-0.5-9.9-0.8-14.9-0.8c-5,0-10,0.3-14.9,0.8c-20.8,2.3-37.1,12.7-57.1,16.3
	c-7.9,1.4-15.8,2.1-24,2.1c-8.2,0-16-0.7-24-2.1c-20.1-3.6-36.3-14-57.1-16.3c-5-0.5-9.9-0.8-14.9-0.8c-5,0-10,0.3-14.9,0.8
	c-20.8,2.3-37.1,12.7-57.1,16.3c-7.9,1.4-15.8,2.1-24,2.1s-16-0.7-24-2.1c-20.1-3.6-36.3-14-57.1-16.3c-5-0.5-9.9-0.8-14.9-0.8
	c-5,0-10,0.3-14.9,0.8c-20.8,2.3-37.1,12.7-57.1,16.3c-7.9,1.4-15.8,2.1-24,2.1s-16-0.7-24-2.1c-20.1-3.6-36.3-14-57.1-16.3
	c-5-0.5-9.9-0.8-14.9-0.8c0,0,0,0,0,0c0,6.4,0,12.8,0,19.2c4.2,0,8.4,0.1,12.5,0.6c7.9,1,15.6,3.4,23.1,6.1
	c5.8,2.1,11.5,4.3,17.4,6.2c5.4,1.7,10.9,3,16.5,4c8.8,1.6,17.6,2.3,26.5,2.3c8.9,0,17.8-0.7,26.5-2.3c2.8-0.5,5.6-1.1,8.4-1.8
	c2.7-0.7,5.4-1.4,8-2.2c5.9-1.9,11.6-4.1,17.4-6.2c7.5-2.7,15.3-5.1,23.2-6.1c4.1-0.5,8.3-0.6,12.4-0.6c4.2,0,8.4,0.1,12.5,0.6
	c7.9,1,15.6,3.4,23.2,6.1c5.8,2.1,11.5,4.3,17.4,6.2c5.4,1.7,10.9,3,16.5,4c8.8,1.6,17.6,2.3,26.5,2.3c8.9,0,17.8-0.7,26.5-2.3
	c2.8-0.5,5.6-1.1,8.4-1.8c2.7-0.7,5.4-1.4,8-2.3c5.9-1.9,11.6-4.1,17.3-6.2c7.5-2.7,15.3-5.1,23.2-6.1c4.1-0.5,8.3-0.6,12.5-0.6
	c4.2,0,8.4,0.1,12.5,0.6c7.9,1,15.6,3.4,23.1,6.1c5.8,2.1,11.5,4.4,17.4,6.2c5.4,1.7,10.9,3,16.5,4c8.8,1.6,17.6,2.3,26.5,2.3
	c8.9,0,17.8-0.7,26.5-2.3c2.8-0.5,5.6-1.1,8.4-1.8c2.7-0.7,5.4-1.4,8-2.3c5.9-1.9,11.6-4.1,17.4-6.2c7.5-2.7,15.2-5.1,23.2-6.1
	c4.1-0.5,8.3-0.6,12.5-0.6c4.2,0,8.3,0.1,12.5,0.6c7.9,1,15.6,3.4,23.2,6.1c5.8,2.1,11.5,4.4,17.4,6.2c5.4,1.7,10.9,3,16.5,4
	c8.8,1.6,17.6,2.3,26.5,2.3c8.9,0,17.8-0.7,26.5-2.3c2.8-0.5,5.6-1.1,8.4-1.8c2.7-0.7,5.4-1.4,8-2.3c5.9-1.9,11.6-4.1,17.4-6.2
	c7.5-2.7,15.3-5.1,23.2-6.1c4.1-0.5,8.3-0.6,12.5-0.6c4.2,0,8.4,0.1,12.5,0.6c7.9,1,15.6,3.4,23.1,6.1c5.8,2.1,11.5,4.3,17.4,6.2
	c5.4,1.7,10.9,3,16.5,4c8.8,1.6,17.6,2.3,26.5,2.3c8.9,0,17.8-0.7,26.5-2.3c2.8-0.5,5.6-1.1,8.4-1.8c2.7-0.7,5.4-1.4,8-2.2
	c5.9-1.9,11.6-4.1,17.4-6.2c7.5-2.7,15.3-5.1,23.2-6.1c4.1-0.5,8.3-0.6,12.4-0.6c4.2,0,8.4,0.1,12.5,0.6c7.9,1,15.6,3.4,23.2,6.1
	c5.8,2.1,11.5,4.3,17.4,6.2c5.4,1.7,10.9,3,16.5,4c8.8,1.6,17.6,2.3,26.5,2.3c8.9,0,17.8-0.7,26.5-2.3c2.8-0.5,5.6-1.1,8.4-1.8
	c2.7-0.7,5.4-1.4,8-2.3c5.9-1.9,11.6-4.1,17.3-6.2c7.5-2.7,15.3-5.1,23.2-6.1c4.1-0.5,8.3-0.6,12.5-0.6c4.2,0,8.4,0.1,12.5,0.6
	c7.9,1,15.6,3.4,23.1,6.1c5.8,2.1,11.5,4.4,17.4,6.2c5.4,1.7,10.9,3,16.5,4c8.8,1.6,17.6,2.3,26.5,2.3c8.9,0,17.8-0.7,26.5-2.3
	c2.8-0.5,5.6-1.1,8.4-1.8c2.7-0.7,5.4-1.4,8-2.3c5.9-1.9,11.6-4.1,17.4-6.2c7.5-2.7,15.2-5.1,23.2-6.1c4.1-0.5,8.3-0.6,12.5-0.6
	c4.2,0,8.3,0.1,12.5,0.6c7.9,1,15.6,3.4,23.2,6.1c5.8,2.1,11.5,4.4,17.4,6.2c5.4,1.7,10.9,3,16.5,4c8.8,1.6,17.6,2.3,26.5,2.3
	c8.9,0,17.8-0.7,26.5-2.3c2.8-0.5,5.6-1.1,8.4-1.8c2.7-0.7,5.4-1.4,8-2.3c5.9-1.9,11.6-4.1,17.4-6.2c7.5-2.7,15.3-5.1,23.2-6.1
	c4.1-0.5,8.3-0.6,12.5-0.6c4.2,0,8.4,0.1,12.5,0.6c7.9,1,15.6,3.4,23.1,6.1c5.8,2.1,11.5,4.3,17.4,6.2c5.4,1.7,10.9,3,16.5,4
	c8.8,1.6,17.6,2.3,26.5,2.3c8.9,0,17.8-0.7,26.5-2.3c2.8-0.5,5.6-1.1,8.4-1.8c2.7-0.7,5.4-1.4,8-2.2c5.9-1.9,11.6-4.1,17.4-6.2
	c7.5-2.7,15.3-5.1,23.2-6.1c4.1-0.5,8.3-0.6,12.4-0.6c4.2,0,8.4,0.1,12.5,0.6c7.9,1,15.6,3.4,23.2,6.1c5.8,2.1,11.5,4.3,17.4,6.2
	c5.4,1.7,10.9,3,16.5,4c8.8,1.6,17.6,2.3,26.5,2.3c8.9,0,17.8-0.7,26.5-2.3c2.8-0.5,5.6-1.1,8.4-1.8c2.7-0.7,5.4-1.4,8-2.3
	c5.9-1.9,11.6-4.1,17.4-6.2c7.5-2.7,15.3-5.1,23.2-6.1C1911.7,134.5,1915.8,134.4,1920,134.4C1920,134.4,1920,134.4,1920,134.4z"/>
</svg>
